<?xml version="1.0" encoding="utf-8"?>
<svg version="1.1" xmlns:xlink="http://www.w3.org/1999/xlink" width="18px" height="14px" xmlns="http://www.w3.org/2000/svg">
  <g transform="matrix(1 0 0 1 -281 -402 )">
    <path d="M 13.8938783115973 8.46068991078308  L 0.527000143017377 8.46068991078308  C 0.352442210495048 8.45966715928576  0.211469153332942 8.31629936717644  0.211469153332942 8.13979893882161  C 0.211469153332942 8.13838137867298  0.211478443223059 8.13696383408495  0.21149702239147 8.13554639841585  L 0.211497022391468 7.91658183776778  C 0.211478443504923 7.91516441284917  0.21146915375575 7.91374687901405  0.21146915375575 7.91232932961876  C 0.21146915375575 7.73582890143068  0.352442210661313 7.59246110939125  0.527000143017379 7.59143835765977  L 13.8976120582151 7.59143835765977  C 14.0721700031165 7.5924610917222  14.213143079379 7.73582888903542  14.213143079379 7.91232932980567  C 14.213143079379 7.91374687913854  14.2131337896306 7.91516441291158  14.2131152107457 7.91658183776778  L 14.2131152107457 8.13554639841585  C 14.212616730377 8.31406818057347  14.0704272288221 8.45909870862676  13.8938783115973 8.4611618309991  Z M 14.2131152107457 13.4010779051665  C 14.2123623397929 13.5794156930779  14.0702461821605 13.7241613248643  13.8938783115973 13.7262214175338  L 0.527000143017377 13.7262214175337  C 0.352442210495048 13.7251986660364  0.211469153332942 13.5818308739271  0.211469153332942 13.4053304455723  C 0.211469153332942 13.4039128854237  0.211478443223059 13.4024953408356  0.21149702239147 13.4010779051665  L 0.211497022391468 10.9061088224662  C 0.211478443504923 10.9046913975476  0.21146915375575 10.9032738637125  0.21146915375575 10.9018563143172  C 0.21146915375575 10.7253558861292  0.352442210661313 10.5819880940897  0.527000143017379 10.5809653423582  L 13.8976120582151 10.5809653423582  C 14.0721725703508 10.5819844606026  14.2131496078077 10.725353337115  14.2131496078077 10.9018563526863  C 14.2131496078077 10.903431213359  14.2131381418097 10.9050060526954  14.2131152107457 10.9065807426823  L 14.2131152107457 13.4010779051665  Z M 17.0134388292737 0.0409361590819086  C 16.4979135020933 0.0409361590819086  16.0799976431905 0.463495502341584  16.0799976124628 0.984748888712874  C 16.0799976124628 1.50600235330898  16.4979134803655 1.92856173085509  17.0134388292737 1.92856173085509  C 17.5289641781819 1.92856173085509  17.9468800460846 1.50600235330898  17.9468800460846 0.9847489449685  C 17.9468800460846 0.46349553662802  17.5289641781819 0.0409361590819086  17.0134388292737 0.0409361590819086  Z " fill-rule="nonzero" fill="#fcca4c" stroke="none" transform="matrix(1 0 0 1 281 402 )" />
  </g>
</svg>