<?xml version="1.0" encoding="utf-8"?>
<svg version="1.1" xmlns:xlink="http://www.w3.org/1999/xlink" width="7px" height="7px" xmlns="http://www.w3.org/2000/svg">
  <g transform="matrix(1 0 0 1 -365 -408 )">
    <path d="M 6.85416666666668 3.434375  C 6.85052083333334 1.60052083333334  5.36666666666668 0.116666666666668  3.53645833333333 0.116666666666668  C 1.70625 0.116666666666668  0.222395833333334 1.60052083333334  0.222395833333334 3.43072916666667  C 0.222395833333334 5.2609375  1.70625 6.74479166666667  3.53645833333333 6.74479166666667  C 3.78072916666667 6.74479166666667  4.01770833333333 6.71927083333333  4.24739583333333 6.66822916666667  C 4.58645833333333 6.5953125  4.90364583333333 6.47135416666667  5.1953125 6.3  C 5.22447916666667 6.28177083333333  5.25364583333333 6.2671875  5.2828125 6.24895833333333  C 5.30104166666667 6.23802083333333  5.315625 6.22708333333333  5.33385416666667 6.21614583333333  C 5.35208333333333 6.20520833333334  5.3703125 6.190625  5.38854166666667 6.1796875  L 5.3921875 6.17604166666667  C 5.40677083333333 6.16510416666667  5.42135416666666 6.1578125  5.4359375 6.146875  C 5.43958333333334 6.14322916666667  5.44322916666667 6.14322916666667  5.446875 6.13958333333333  C 5.45416666666667 6.1359375  5.46145833333333 6.12864583333333  5.46875 6.125  C 5.4796875 6.11770833333333  5.490625 6.10677083333333  5.5015625 6.09947916666667  C 5.51614583333333 6.08854166666667  5.53072916666666 6.08125  5.54166666666667 6.0703125  C 5.55989583333333 6.059375  5.57447916666667 6.04479166666667  5.59270833333333 6.03020833333333  C 5.6109375 6.015625  5.62916666666667 6.00104166666667  5.64375 5.98645833333333  C 5.665625 5.96822916666666  5.68385416666667 5.95364583333333  5.70572916666667 5.93541666666667  C 5.72395833333333 5.9171875  5.74583333333333 5.89895833333333  5.7640625 5.88072916666667  C 5.7859375 5.8625  5.8078125 5.840625  5.8296875 5.81875  C 5.84427083333333 5.80416666666666  5.85885416666666 5.78958333333333  5.8734375 5.77864583333333  C 5.8953125 5.75677083333333  5.91354166666667 5.73489583333333  5.93541666666667 5.71302083333333  C 5.95 5.6984375  5.96458333333333 5.68020833333333  5.97916666666667 5.665625  L 5.99375 5.65104166666667  C 6.00104166666667 5.64010416666667  6.01197916666667 5.6328125  6.01927083333334 5.621875  C 6.03385416666667 5.60729166666667  6.04479166666667 5.59270833333334  6.05937500000001 5.578125  C 6.06302083333334 5.57447916666667  6.06666666666667 5.57083333333333  6.0703125 5.56354166666667  C 6.08489583333334 5.54895833333334  6.09947916666667 5.53072916666667  6.11041666666667 5.51614583333334  C 6.11770833333334 5.50885416666667  6.12135416666667 5.5015625  6.12864583333334 5.49427083333334  L 6.16145833333334 5.45052083333333  C 6.16875000000001 5.44322916666667  6.17604166666667 5.4359375  6.1796875 5.425  C 6.190625 5.41041666666667  6.20156250000001 5.39583333333333  6.2125 5.37760416666667  L 6.2453125 5.33385416666667  L 6.2671875 5.30104166666667  C 6.27447916666667 5.29010416666667  6.28541666666667 5.27552083333333  6.29270833333334 5.26458333333333  C 6.30729166666667 5.24635416666667  6.31822916666667 5.22447916666667  6.33281250000001 5.20625  C 6.34375 5.18802083333333  6.35833333333334 5.16614583333333  6.36927083333334 5.14791666666666  L 6.41302083333334 5.07135416666666  C 6.43125000000001 5.0421875  6.44583333333334 5.009375  6.46406250000001 4.9765625  C 6.47135416666668 4.965625  6.47500000000001 4.9546875  6.48229166666667 4.94375  C 6.48593750000001 4.9328125  6.49322916666667 4.921875  6.49687500000001 4.9109375  C 6.50416666666667 4.9  6.5078125 4.88541666666666  6.51510416666667 4.87447916666666  C 6.51875000000001 4.86354166666667  6.52604166666667 4.85625  6.52968750000001 4.8453125  C 6.52968750000001 4.84166666666667  6.53333333333334 4.83802083333333  6.53333333333334 4.83802083333333  C 6.53333333333334 4.834375  6.53697916666667 4.834375  6.53697916666667 4.83072916666666  C 6.53697916666667 4.83072916666666  6.53697916666667 4.82708333333333  6.54062500000001 4.82708333333333  C 6.54791666666668 4.80885416666666  6.55520833333334 4.79427083333333  6.56250000000001 4.77604166666666  C 6.56979166666668 4.76510416666666  6.57343750000001 4.75416666666666  6.57708333333334 4.73958333333333  C 6.58437500000001 4.72135416666666  6.59531250000001 4.69947916666666  6.60260416666668 4.67760416666666  C 6.60260416666668 4.67395833333333  6.60260416666668 4.67395833333333  6.60625000000001 4.67031249999999  C 6.60625000000001 4.66666666666666  6.60625000000001 4.66666666666666  6.60989583333334 4.66302083333332  C 6.62083333333334 4.63749999999999  6.62812500000001 4.61197916666666  6.63906250000001 4.59010416666666  C 6.64635416666668 4.56822916666666  6.65729166666668 4.54635416666666  6.66458333333334 4.52447916666666  C 6.66458333333334 4.52083333333333  6.66822916666668 4.51354166666666  6.67187500000001 4.50989583333333  C 6.68281250000001 4.48072916666666  6.69010416666668 4.44791666666666  6.70104166666668 4.41874999999999  C 6.70833333333335 4.39687499999999  6.71562500000001 4.37499999999999  6.71927083333334 4.353125  C 6.72656250000001 4.33489583333333  6.73020833333334 4.31302083333333  6.73750000000001 4.29479166666666  C 6.74479166666668 4.27291666666666  6.74843750000001 4.25104166666666  6.75572916666668 4.22916666666666  C 6.75937500000001 4.20729166666666  6.76666666666668 4.18541666666666  6.77031250000001 4.16354166666666  C 6.77031250000001 4.15989583333333  6.77031250000001 4.15625  6.77395833333334 4.15260416666667  C 6.77395833333334 4.14895833333333  6.77395833333334 4.1453125  6.77760416666668 4.14166666666667  L 6.78854166666668 4.08697916666667  C 6.78854166666668 4.08333333333333  6.78854166666668 4.0796875  6.79218750000001 4.07604166666667  L 6.79218750000001 4.07239583333334  C 6.82864583333334 3.89375  6.84687500000001 3.71145833333334  6.85416666666668 3.52552083333334  L 6.85416666666668 3.434375  Z " fill-rule="nonzero" fill="#fad672" stroke="none" transform="matrix(1 0 0 1 365 408 )" />
  </g>
</svg>