<?xml version="1.0" encoding="utf-8"?>
<svg version="1.1" xmlns:xlink="http://www.w3.org/1999/xlink" width="4px" height="7px" xmlns="http://www.w3.org/2000/svg">
  <g transform="matrix(1 0 0 1 -368 -408 )">
    <path d="M 0.596428571428565 0.113020833333334  C 2.39999999999999 0.116666666666668  3.85357142857142 1.60052083333333  3.85357142857143 3.43072916666667  L 3.85357142857143 3.521875  C 3.85 3.7078125  3.82857142857143 3.89375  3.79285714285714 4.06875  L 3.79285714285714 4.07239583333334  C 3.79285714285714 4.07604166666667  3.79285714285714 4.0796875  3.78928571428571 4.08333333333333  L 3.77857142857143 4.13802083333333  C 3.77857142857143 4.14166666666667  3.77857142857143 4.1453125  3.775 4.14895833333333  C 3.775 4.15260416666667  3.775 4.15625  3.77142857142857 4.15989583333333  C 3.76785714285714 4.18177083333333  3.76071428571428 4.20364583333333  3.75714285714285 4.22552083333333  C 3.75357142857143 4.24739583333333  3.74642857142857 4.26927083333333  3.73928571428571 4.29114583333333  C 3.73571428571428 4.30937499999999  3.72857142857143 4.33124999999999  3.72142857142857 4.34947916666666  C 3.71428571428571 4.37135416666666  3.70714285714286 4.39322916666666  3.70357142857143 4.41510416666666  C 3.69285714285714 4.44427083333332  3.68571428571428 4.47708333333333  3.675 4.50624999999999  C 3.675 4.50989583333333  3.67142857142857 4.51718749999999  3.66785714285714 4.52083333333333  C 3.66071428571428 4.54270833333333  3.65357142857143 4.56458333333333  3.64285714285714 4.58645833333332  C 3.63571428571428 4.61197916666666  3.625 4.63749999999999  3.61428571428571 4.65937499999999  C 3.61428571428571 4.66302083333332  3.61428571428571 4.66302083333332  3.61071428571428 4.66666666666666  C 3.61071428571428 4.67031249999999  3.60714285714285 4.67031249999999  3.60714285714285 4.67395833333333  C 3.59999999999999 4.69583333333333  3.58928571428571 4.71406249999999  3.58214285714285 4.7359375  C 3.57857142857142 4.74687499999999  3.57142857142857 4.7578125  3.56785714285714 4.77239583333333  C 3.56071428571428 4.790625  3.55357142857142 4.80520833333333  3.54642857142857 4.82343749999999  C 3.54642857142857 4.82343749999999  3.54642857142857 4.82708333333333  3.54285714285714 4.82708333333333  C 3.54285714285714 4.83072916666666  3.53928571428571 4.83072916666666  3.53928571428571 4.834375  C 3.53928571428571 4.83802083333333  3.53571428571428 4.84166666666667  3.53571428571428 4.84166666666667  C 3.53214285714285 4.85260416666666  3.52499999999999 4.85989583333333  3.52142857142856 4.87083333333333  C 3.51428571428571 4.88541666666666  3.50714285714285 4.89635416666667  3.50357142857142 4.90729166666666  C 3.49999999999999 4.91822916666666  3.49285714285714 4.92916666666666  3.48928571428571 4.94010416666666  C 3.48214285714285 4.95104166666666  3.47857142857142 4.96197916666666  3.47142857142856 4.97291666666666  C 3.45357142857142 5.00572916666666  3.43928571428571 5.03489583333333  3.42142857142857 5.06770833333333  L 3.37857142857142 5.14427083333333  C 3.36785714285714 5.1625  3.35357142857142 5.184375  3.34285714285714 5.20260416666666  C 3.32857142857142 5.22083333333333  3.31785714285713 5.24270833333333  3.30357142857142 5.2609375  C 3.29642857142856 5.27552083333333  3.28571428571428 5.28645833333333  3.27857142857142 5.29739583333333  L 3.25714285714285 5.33020833333333  L 3.22499999999999 5.37395833333333  C 3.21428571428571 5.38854166666667  3.20357142857142 5.403125  3.19285714285713 5.42135416666666  C 3.18571428571428 5.42864583333333  3.18214285714285 5.43958333333333  3.17499999999999 5.446875  L 3.14285714285713 5.490625  C 3.13571428571428 5.49791666666667  3.13214285714285 5.50520833333333  3.12499999999999 5.5125  C 3.11428571428571 5.53072916666667  3.09999999999999 5.5453125  3.08571428571428 5.55989583333333  C 3.08214285714285 5.56354166666667  3.07857142857142 5.5671875  3.07499999999999 5.57447916666667  C 3.06428571428571 5.5890625  3.04999999999999 5.60364583333333  3.03571428571428 5.61822916666667  C 3.02857142857142 5.62916666666667  3.01785714285713 5.64010416666667  3.01071428571428 5.64739583333333  L 2.99642857142856 5.66197916666667  C 2.98214285714285 5.68020833333333  2.96785714285714 5.69479166666666  2.95357142857142 5.709375  C 2.93214285714285 5.73125  2.9142857142857 5.753125  2.89285714285713 5.775  C 2.87857142857142 5.78958333333333  2.8642857142857 5.80416666666666  2.84999999999999 5.81510416666666  C 2.82857142857141 5.83697916666666  2.80714285714284 5.85520833333333  2.78571428571427 5.87708333333333  C 2.76785714285713 5.8953125  2.74642857142856 5.91354166666666  2.72857142857142 5.93177083333333  C 2.71071428571427 5.95  2.6892857142857 5.96458333333333  2.66785714285713 5.9828125  C 2.64999999999999 5.99739583333333  2.63214285714284 6.01197916666666  2.61785714285713 6.0265625  C 2.59999999999999 6.04114583333333  2.58571428571427 6.05208333333333  2.56785714285713 6.06666666666667  C 2.55357142857142 6.07760416666666  2.54285714285713 6.08854166666667  2.52857142857141 6.09583333333333  C 2.51785714285713 6.103125  2.50714285714284 6.1140625  2.49642857142856 6.12135416666667  C 2.4892857142857 6.12864583333333  2.48214285714284 6.13229166666666  2.47499999999999 6.1359375  C 2.47142857142856 6.13958333333333  2.46785714285713 6.14322916666667  2.4642857142857 6.14322916666667  C 2.44999999999999 6.15416666666667  2.43571428571428 6.16510416666667  2.42142857142856 6.17239583333333  C 2.42142857142856 6.17239583333333  2.41785714285713 6.17239583333333  2.41785714285713 6.17604166666667  C 2.39999999999999 6.18697916666666  2.38214285714284 6.2015625  2.3642857142857 6.2125  C 2.34642857142856 6.2234375  2.33214285714284 6.234375  2.3142857142857 6.2453125  C 2.28571428571427 6.26354166666667  2.25714285714284 6.28177083333333  2.22857142857142 6.29635416666666  C 1.94285714285713 6.4640625  1.63214285714284 6.59166666666667  1.29999999999999 6.66458333333333  C 1.07499999999999 6.715625  0.842857142857129 6.74114583333333  0.603571428571416 6.74114583333333  C 0.428571428571416 6.74114583333333  0.253571428571415 6.7265625  0.0857142857142727 6.69739583333333  C 0.146428571428558 6.68645833333333  0.203571428571416 6.67552083333333  0.260714285714272 6.66458333333333  C 0.592857142857129 6.59166666666667  0.903571428571415 6.46770833333333  1.1892857142857 6.29635416666666  C 1.21785714285713 6.278125  1.24642857142856 6.26354166666667  1.27499999999999 6.2453125  C 1.29285714285713 6.234375  1.30714285714284 6.2234375  1.32499999999998 6.2125  C 1.34285714285713 6.2015625  1.36071428571427 6.18697916666666  1.37857142857141 6.17604166666667  L 1.38214285714284 6.17239583333333  C 1.39642857142856 6.16145833333333  1.41071428571427 6.15416666666667  1.42499999999998 6.14322916666667  C 1.42857142857141 6.13958333333333  1.43214285714284 6.13958333333333  1.43571428571427 6.1359375  C 1.44285714285713 6.13229166666666  1.44999999999998 6.125  1.45714285714284 6.12135416666667  C 1.46785714285713 6.1140625  1.47857142857142 6.103125  1.4892857142857 6.09583333333333  C 1.50357142857141 6.08489583333333  1.51785714285713 6.07760416666666  1.52857142857141 6.06666666666667  C 1.54642857142856 6.05572916666667  1.56071428571427 6.04114583333333  1.57857142857141 6.0265625  C 1.59642857142856 6.01197916666667  1.6142857142857 5.99739583333333  1.62857142857141 5.9828125  C 1.64999999999999 5.96458333333333  1.66785714285713 5.95  1.6892857142857 5.93177083333333  C 1.71071428571427 5.91354166666666  1.72857142857141 5.8953125  1.74642857142855 5.87708333333333  C 1.76785714285713 5.85885416666666  1.7892857142857 5.83697916666666  1.81071428571427 5.81510416666666  C 1.82499999999998 5.80052083333333  1.83928571428569 5.7859375  1.85357142857141 5.775  C 1.87499999999998 5.75312499999999  1.89642857142856 5.73124999999999  1.9142857142857 5.709375  C 1.92857142857141 5.69479166666666  1.94285714285713 5.6765625  1.95714285714284 5.66197916666667  L 1.97142857142856 5.64739583333333  C 1.97857142857142 5.63645833333333  1.9892857142857 5.62916666666667  1.99642857142856 5.61822916666667  C 2.01071428571427 5.60364583333334  2.02142857142856 5.5890625  2.03571428571427 5.57447916666667  C 2.0392857142857 5.57083333333333  2.04285714285713 5.5671875  2.04642857142856 5.55989583333333  C 2.06071428571427 5.5453125  2.07499999999998 5.52708333333333  2.08571428571427 5.5125  C 2.09285714285713 5.50520833333333  2.09642857142856 5.49791666666667  2.10357142857142 5.490625  L 2.13571428571427 5.446875  C 2.14285714285713 5.43958333333333  2.14642857142856 5.43229166666667  2.15357142857141 5.42135416666666  C 2.1642857142857 5.40677083333333  2.17499999999999 5.3921875  2.18571428571427 5.37395833333333  L 2.21785714285713 5.33020833333333  L 2.2392857142857 5.29739583333333  C 2.24642857142856 5.28645833333333  2.25714285714284 5.271875  2.2642857142857 5.2609375  C 2.27857142857141 5.24270833333333  2.2892857142857 5.22083333333333  2.30357142857142 5.20260416666666  C 2.31785714285713 5.184375  2.32857142857142 5.1625  2.3392857142857 5.14427083333333  L 2.38214285714285 5.06770833333333  C 2.39999999999999 5.03854166666666  2.41785714285713 5.00572916666666  2.43214285714285 4.97291666666666  C 2.43571428571428 4.96197916666666  2.44285714285713 4.95104166666666  2.44999999999999 4.94010416666666  C 2.45357142857142 4.92916666666666  2.46071428571427 4.91822916666666  2.4642857142857 4.90729166666666  C 2.47142857142856 4.89635416666667  2.47499999999999 4.88177083333333  2.48214285714284 4.87083333333333  C 2.48571428571427 4.85989583333333  2.49285714285713 4.85260416666666  2.49642857142856 4.84166666666667  C 2.49642857142856 4.83802083333333  2.49999999999999 4.834375  2.49999999999999 4.834375  C 2.49999999999999 4.83072916666666  2.50357142857142 4.83072916666666  2.50357142857142 4.82708333333333  C 2.50357142857142 4.82708333333333  2.50357142857142 4.82343749999999  2.50714285714285 4.82343749999999  C 2.51428571428571 4.80520833333333  2.52142857142856 4.790625  2.52857142857142 4.77239583333333  C 2.53214285714285 4.76145833333333  2.5392857142857 4.75052083333333  2.54285714285713 4.7359375  C 2.54999999999999 4.71770833333333  2.56071428571428 4.69583333333333  2.56785714285713 4.67395833333333  C 2.56785714285713 4.67031249999999  2.56785714285713 4.67031249999999  2.57142857142856 4.66666666666666  C 2.57142857142856 4.66302083333332  2.57142857142856 4.66302083333332  2.57499999999999 4.65937499999999  C 2.58571428571428 4.63385416666666  2.59285714285714 4.60833333333332  2.60357142857142 4.58645833333332  C 2.61071428571428 4.56458333333332  2.62142857142856 4.54270833333332  2.62857142857142 4.52083333333333  C 2.62857142857142 4.51718749999999  2.63214285714285 4.50989583333333  2.63214285714285 4.50624999999999  C 2.64285714285713 4.47708333333333  2.65357142857142 4.44427083333332  2.66071428571428 4.41510416666666  C 2.66785714285714 4.39322916666666  2.67499999999999 4.37135416666666  2.67857142857142 4.34947916666666  C 2.68214285714285 4.33124999999999  2.6892857142857 4.30937499999999  2.69642857142856 4.29114583333333  C 2.70357142857142 4.26927083333333  2.70714285714285 4.24739583333333  2.71071428571428 4.22552083333333  C 2.71785714285714 4.20364583333333  2.72142857142856 4.18177083333333  2.72499999999999 4.15989583333333  C 2.72499999999999 4.15625  2.72499999999999 4.15260416666666  2.72857142857142 4.14895833333333  C 2.72857142857142 4.1453125  2.72857142857142 4.14166666666666  2.73214285714285 4.13802083333333  L 2.74285714285713 4.08333333333333  C 2.74285714285713 4.0796875  2.74285714285713 4.07604166666667  2.74642857142856 4.07239583333334  L 2.74642857142856 4.06875  C 2.78214285714285 3.89010416666667  2.79999999999999 3.7078125  2.80714285714285 3.521875  L 2.80714285714285 3.43072916666667  C 2.80714285714285 1.77916666666667  1.62499999999999 0.411979166666669  0.0785714285714221 0.156770833333336  C 0.246428571428565 0.127604166666671  0.421428571428566 0.113020833333334  0.596428571428565 0.113020833333334  Z " fill-rule="nonzero" fill="#f7bd81" stroke="none" transform="matrix(1 0 0 1 368 408 )" />
  </g>
</svg>