<?xml version="1.0" encoding="utf-8"?>
<svg version="1.1" xmlns:xlink="http://www.w3.org/1999/xlink" width="23px" height="31px" xmlns="http://www.w3.org/2000/svg">
  <g transform="matrix(1 0 0 1 -359 -389 )">
    <path d="M 22.186038961039 30.8537735849057  C 22.7087662337662 30.8537735849057  23.0336038961039 30.2944575471698  22.7685064935065 29.8521226415094  L 21.8612012987013 28.3350235849057  C 21.6782467532468 28.0279481132076  21.3422077922078 27.8415094339623  20.9837662337662 27.8415094339623  L 2.0012987012987 27.8415094339623  C 1.63912337662338 27.8415094339623  1.30681818181818 28.0279481132076  1.12386363636364 28.3350235849057  L 0.216558441558442 29.8521226415094  C -0.0485389610389604 30.2944575471698  0.276298701298701 30.8537735849057  0.80275974025974 30.8537735849057  L 22.186038961039 30.8537735849057  Z M 20.0316558441558 2.01792452830189  C 20.2743506493506 2.3688679245283  20.1847402597403 2.84410377358491  19.8300324675325 3.08172169811321  L 18.7024350649351 3.83844339622642  L 18.3925324675325 3.39610849056604  L 16.7422077922078 1.03820754716981  L 17.825 0.310731132075472  L 17.8698051948052 0.277830188679245  C 18.224512987013 0.0402122641509432  18.7099025974026 0.127948113207547  18.9525974025974 0.475235849056604  L 20.0316558441558 2.01792452830189  Z " fill-rule="nonzero" fill="#45dabd" stroke="none" transform="matrix(1 0 0 1 359 389 )" />
  </g>
</svg>