<?xml version="1.0" encoding="utf-8"?>
<svg version="1.1" xmlns:xlink="http://www.w3.org/1999/xlink" width="16px" height="14px" xmlns="http://www.w3.org/2000/svg">
  <g transform="matrix(1 0 0 1 -362 -389 )">
    <path d="M 15.3849056603774 5.81684782608695  C 15.811320754717 5.52010869565217  15.9169811320755 4.93804347826087  15.6264150943396 4.51195652173913  L 15.2754716981132 3.99836956521739  L 14.9622641509434 3.53804347826087  L 13.2943396226415 1.08423913043478  L 12.9811320754717 0.623913043478261  L 12.9433962264151 0.570652173913043  C 12.7622641509434 0.304347826086957  12.4716981132076 0.163586956521739  12.177358490566 0.163586956521739  C 12.1547169811321 0.163586956521739  12.1358490566038 0.163586956521739  12.1132075471698 0.167391304347826  C 12.0905660377359 0.167391304347826  12.0716981132076 0.171195652173912  12.0490566037736 0.175  C 12.0377358490566 0.175  12.0301886792453 0.178804347826087  12.0188679245283 0.178804347826087  C 12.011320754717 0.178804347826087  12.0037735849057 0.182608695652173  11.9962264150943 0.182608695652173  C 11.988679245283 0.182608695652173  11.9811320754717 0.18641304347826  11.9735849056604 0.18641304347826  C 11.9660377358491 0.18641304347826  11.9622641509434 0.190217391304347  11.9547169811321 0.190217391304347  C 11.9358490566038 0.194021739130433  11.9132075471698 0.201630434782608  11.8943396226415 0.209239130434782  C 11.8830188679245 0.213043478260868  11.8754716981132 0.216847826086956  11.8641509433962 0.220652173913042  C 11.8528301886793 0.224456521739129  11.8452830188679 0.228260869565216  11.8339622641509 0.232065217391303  C 11.8150943396226 0.239673913043477  11.7962264150943 0.247282608695651  11.777358490566 0.258695652173912  C 11.7471698113208 0.27391304347826  11.7169811320755 0.289130434782607  11.6867924528302 0.308152173913042  L 11.6528301886793 0.330978260869564  L 0.0264150943396286 8.35434782608696  L 0.63396226415095 9.24836956521739  L 3.15471698113208 12.9576086956522  L 3.7622641509434 13.8478260869565  L 11.6301886792453 8.41141304347826  L 12.2415094339623 7.9891304347826  L 15.3849056603774 5.81684782608695  Z " fill-rule="nonzero" fill="#8adcff" stroke="none" transform="matrix(1 0 0 1 362 389 )" />
  </g>
</svg>