<?xml version="1.0" encoding="utf-8"?>
<svg version="1.1" xmlns:xlink="http://www.w3.org/1999/xlink" width="6px" height="7px" xmlns="http://www.w3.org/2000/svg">
  <g transform="matrix(1 0 0 1 -373 -389 )">
    <path d="M 4.43055555555556 5.20909090909091  L 3.59722222222222 5.77159090909091  C 3.98611111111111 5.50909090909091  4.08680555555556 4.9875  3.81944444444444 4.60227272727273  L 3.49652777777778 4.14204545454545  L 3.20833333333334 3.72954545454545  L 1.67361111111111 1.53068181818182  L 1.38541666666667 1.11818181818182  L 1.35069444444445 1.07045454545455  C 1.18402777777778 0.831818181818182  0.91666666666667 0.705681818181818  0.642361111111115 0.705681818181818  C 0.621527777777781 0.705681818181818  0.60416666666667 0.705681818181818  0.583333333333336 0.709090909090909  C 0.565972222222225 0.709090909090909  0.545138888888891 0.7125  0.524305555555556 0.715909090909091  C 0.513888888888891 0.715909090909091  0.503472222222222 0.719318181818182  0.49652777777778 0.719318181818182  C 0.489583333333338 0.719318181818182  0.482638888888892 0.722727272727272  0.475694444444446 0.722727272727272  C 0.46875 0.722727272727272  0.461805555555558 0.726136363636363  0.454861111111112 0.726136363636363  C 0.447916666666666 0.726136363636363  0.444444444444447 0.729545454545454  0.437500000000001 0.729545454545454  C 0.42013888888889 0.732954545454545  0.399305555555556 0.739772727272726  0.381944444444444 0.746590909090908  C 0.371527777777779 0.749999999999999  0.364583333333333 0.75340909090909  0.354166666666668 0.756818181818181  C 0.343750000000003 0.760227272727272  0.336805555555557 0.763636363636363  0.326388888888892 0.767045454545453  C 0.309027777777781 0.773863636363636  0.29166666666667 0.780681818181817  0.274305555555559 0.79090909090909  C 0.246527777777783 0.804545454545454  0.222222222222225 0.818181818181817  0.194444444444449 0.831818181818181  L 0.996527777777783 0.293181818181817  L 1.02777777777778 0.272727272727272  C 1.05555555555556 0.255681818181818  1.08333333333334 0.242045454545454  1.11111111111112 0.228409090909091  C 1.12847222222223 0.221590909090909  1.14583333333334 0.211363636363636  1.16319444444445 0.204545454545454  C 1.17361111111111 0.201136363636363  1.18055555555556 0.197727272727272  1.19097222222222 0.194318181818181  C 1.20138888888889 0.190909090909091  1.20833333333334 0.1875  1.21875 0.184090909090909  C 1.23611111111111 0.177272727272727  1.25694444444445 0.173863636363636  1.27430555555556 0.167045454545454  C 1.28125 0.167045454545454  1.28472222222222 0.163636363636364  1.29166666666667 0.163636363636364  C 1.29861111111111 0.163636363636364  1.30555555555556 0.160227272727273  1.3125 0.160227272727273  C 1.31944444444445 0.160227272727273  1.32638888888889 0.156818181818182  1.33333333333334 0.156818181818182  C 1.34375 0.156818181818182  1.35416666666667 0.153409090909091  1.36111111111111 0.153409090909091  C 1.38194444444445 0.150000000000001  1.39930555555556 0.150000000000001  1.42013888888889 0.146590909090909  C 1.44097222222223 0.146590909090909  1.45833333333334 0.143181818181819  1.47916666666667 0.143181818181819  C 1.75 0.143181818181819  2.02083333333334 0.272727272727273  2.18402777777778 0.507954545454546  L 2.21875 0.555681818181819  L 2.50694444444445 0.968181818181819  L 4.04166666666667 3.16704545454546  L 4.32986111111111 3.57954545454546  L 4.65277777777778 4.03977272727273  C 4.92013888888889 4.42159090909091  4.81944444444444 4.94659090909091  4.43055555555556 5.20909090909091  Z " fill-rule="nonzero" fill="#46cdfb" stroke="none" transform="matrix(1 0 0 1 373 389 )" />
  </g>
</svg>