<?xml version="1.0" encoding="utf-8"?>
<svg version="1.1" xmlns:xlink="http://www.w3.org/1999/xlink" width="8px" height="21px" xmlns="http://www.w3.org/2000/svg">
  <g transform="matrix(1 0 0 1 -369 -397 )">
    <path d="M 7.19285714285715 3.35625  C 8.38571428571429 6.79875  7.63928571428572 10.51875  5.24642857142857 13.06875  C 4.49642857142857 13.86375  3.61428571428571 14.51625  2.65 14.985  C 2.68571428571428 14.80125  2.70357142857143 14.61375  2.71071428571429 14.4225  C 3.29285714285714 14.04  3.83571428571429 13.58625  4.31785714285714 13.06875  C 6.71071428571428 10.5225  7.45714285714286 6.79875  6.26785714285714 3.3525  C 5.9 2.28375  5.37142857142857 1.32375  4.71785714285714 0.491249999999999  L 5.29642857142857 0.0749999999999979  C 6.11071428571429 0.993749999999998  6.76071428571429 2.10375  7.19285714285715 3.35625  Z M 0.160714285714286 17.65875  C 0.492857142857143 17.58375  0.803571428571429 17.45625  1.08928571428571 17.28  L 1.08928571428571 20.76  L 0.160714285714286 20.76  L 0.160714285714286 17.65875  Z " fill-rule="nonzero" fill="#15b7ff" stroke="none" transform="matrix(1 0 0 1 369 397 )" />
  </g>
</svg>