<?xml version="1.0" encoding="utf-8"?>
<svg version="1.1" xmlns:xlink="http://www.w3.org/1999/xlink" width="5px" height="5px" xmlns="http://www.w3.org/2000/svg">
  <g transform="matrix(1 0 0 1 -366 -409 )">
    <path d="M 4.26171875 4.19852941176471  C 4.72265625 3.76470588235294  4.9765625 3.19117647058824  4.9765625 2.57720588235294  C 4.9765625 1.96323529411765  4.72265625 1.38970588235294  4.26171875 0.955882352941176  C 3.80078125 0.522058823529413  3.1875 0.283088235294119  2.5390625 0.283088235294119  C 1.890625 0.283088235294119  1.27734375 0.522058823529413  0.816406249999999 0.955882352941176  C 0.355468749999999 1.38970588235294  0.101562499999999 1.96691176470588  0.101562499999999 2.57720588235294  C 0.101562499999999 3.1875  0.355468749999999 3.76470588235294  0.816406249999999 4.19852941176471  C 1.27734375 4.63235294117647  1.890625 4.87132352941176  2.5390625 4.87132352941176  C 3.1875 4.87132352941176  3.80078125 4.63235294117647  4.26171875 4.19852941176471  Z M 4.1953125 2.57720588235294  C 4.1953125 2.99264705882353  4.0234375 3.38602941176471  3.7109375 3.68014705882353  C 3.3984375 3.97426470588235  2.98046875 4.13602941176471  2.5390625 4.13602941176471  C 2.09765625 4.13602941176471  1.6796875 3.97426470588235  1.3671875 3.68014705882353  C 1.0546875 3.38602941176471  0.882812500000001 2.99264705882353  0.882812500000001 2.57720588235294  C 0.882812500000001 2.16176470588236  1.0546875 1.76838235294118  1.3671875 1.47426470588235  C 1.6796875 1.18014705882353  2.09765625 1.01838235294118  2.5390625 1.01838235294118  C 2.98046875 1.01838235294118  3.3984375 1.18014705882353  3.7109375 1.47426470588235  C 4.0234375 1.76838235294118  4.1953125 2.16176470588236  4.1953125 2.57720588235294  Z " fill-rule="nonzero" fill="#00435b" stroke="none" transform="matrix(1 0 0 1 366 409 )" />
  </g>
</svg>