<?xml version="1.0" encoding="utf-8"?>
<svg version="1.1" xmlns:xlink="http://www.w3.org/1999/xlink" width="25px" height="32px" xmlns="http://www.w3.org/2000/svg">
  <g transform="matrix(1 0 0 1 -357 -389 )">
    <path d="M 24.8028273809524 31.4  C 24.9888392857143 31.0740740740741  24.985119047619 30.6814814814815  24.7916666666667 30.3518518518519  L 23.8876488095238 28.8148148148148  C 23.6421130952381 28.3925925925926  23.1808035714286 28.1296296296296  22.6934523809524 28.1296296296296  L 13.4114583333333 28.1296296296296  L 13.4114583333333 25.2703703703704  C 13.4151785714286 25.2666666666667  13.4188988095238 25.2666666666667  13.422619047619 25.262962962963  L 13.4300595238095 25.2555555555555  L 13.4635416666667 25.2333333333333  C 13.4709821428571 25.2296296296296  13.4784226190476 25.2222222222222  13.4895833333333 25.2148148148148  C 13.4933035714286 25.2111111111111  13.4970238095238 25.2074074074074  13.5044642857143 25.2074074074074  C 13.5119047619048 25.2037037037037  13.515625 25.2  13.5193452380952 25.1962962962963  C 13.5193452380952 25.1962962962963  13.5230654761905 25.1962962962963  13.5230654761905 25.1925925925926  C 13.5416666666667 25.1814814814815  13.5565476190476 25.1666666666667  13.5677083333333 25.1592592592593  C 13.578869047619 25.1518518518518  13.59375 25.1407407407407  13.6123511904762 25.1259259259259  C 13.6346726190476 25.1111111111111  13.6532738095238 25.0962962962963  13.6644345238095 25.0851851851852  L 13.671875 25.0777777777778  C 13.6904761904762 25.062962962963  13.7165178571429 25.0444444444444  13.7388392857143 25.0222222222222  L 13.7574404761905 25.0074074074074  C 13.7686011904762 25  13.7797619047619 24.9888888888889  13.7909226190476 24.9777777777778  C 13.7983630952381 24.9703703703704  13.8095238095238 24.962962962963  13.8169642857143 24.9555555555555  C 13.8206845238095 24.9518518518518  13.828125 24.9444444444444  13.8355654761905 24.9407407407407  C 13.8467261904762 24.9333333333333  13.8541666666667 24.9222222222222  13.8653273809524 24.9111111111111  C 13.8950892857143 24.8851851851852  13.921130952381 24.8592592592593  13.9434523809524 24.837037037037  L 13.9546130952381 24.8259259259259  C 13.9657738095238 24.8185185185185  13.9769345238095 24.8074074074074  13.9880952380952 24.7962962962963  L 14.0327380952381 24.7518518518519  C 14.0401785714286 24.7444444444444  14.047619047619 24.737037037037  14.0513392857143 24.7296296296296  C 14.0625 24.7185185185185  14.077380952381 24.7037037037037  14.0885416666667 24.6888888888889  C 14.0922619047619 24.6851851851852  14.0959821428571 24.6814814814815  14.0959821428571 24.6777777777778  L 14.1071428571429 24.6666666666667  C 14.1145833333333 24.6592592592593  14.1220238095238 24.6518518518519  14.1294642857143 24.6407407407407  C 14.1369047619048 24.6333333333333  14.1443452380952 24.6259259259259  14.1517857142857 24.6148148148148  C 14.1592261904762 24.6074074074074  14.1629464285714 24.6  14.1703869047619 24.5925925925926  L 14.1741071428571 24.5888888888889  C 14.1815476190476 24.5814814814815  14.1964285714286 24.5666666666667  14.2150297619048 24.5444444444444  C 14.2261904761905 24.5296296296296  14.2410714285714 24.5148148148148  14.2522321428571 24.5  C 14.2559523809524 24.4925925925926  14.2633928571429 24.4888888888889  14.2671130952381 24.4851851851852  C 14.2708333333333 24.4777777777778  14.2782738095238 24.4740740740741  14.2819940476191 24.4666666666667  L 14.3043154761905 24.4407407407407  C 14.3191964285714 24.4259259259259  14.3377976190476 24.4  14.3563988095238 24.3703703703704  L 14.3787202380952 24.337037037037  L 14.4010416666667 24.3037037037037  C 14.4047619047619 24.3  14.4084821428571 24.2925925925926  14.4122023809524 24.2888888888889  L 14.4419642857143 24.2481481481481  C 14.4456845238095 24.2444444444444  14.4494047619048 24.237037037037  14.453125 24.2333333333333  C 14.468005952381 24.2148148148148  14.4791666666667 24.1962962962963  14.4866071428571 24.1851851851852  L 14.4903273809524 24.1814814814815  L 14.5126488095238 24.1481481481481  C 14.516369047619 24.1407407407407  14.5200892857143 24.1333333333333  14.5275297619048 24.1259259259259  C 14.5349702380952 24.1111111111111  14.5424107142857 24.1  14.5498511904762 24.0888888888889  C 14.5498511904762 24.0851851851852  14.5535714285714 24.0851851851852  14.5535714285714 24.0814814814815  L 14.594494047619 24.0074074074074  C 14.6130952380952 23.9777777777778  14.624255952381 23.9518518518518  14.6354166666667 23.9296296296296  L 14.6465773809524 23.9074074074074  C 14.6540178571429 23.8962962962963  14.6614583333333 23.8851851851852  14.6651785714286 23.8740740740741  L 14.6875 23.8296296296296  C 14.6912202380952 23.8259259259259  14.6912202380952 23.8222222222222  14.6949404761905 23.8148148148148  C 14.6986607142857 23.8037037037037  14.702380952381 23.7962962962963  14.7061011904762 23.7888888888889  C 14.7098214285714 23.7851851851852  14.7098214285714 23.7814814814815  14.7135416666667 23.7777777777778  C 14.7172619047619 23.7740740740741  14.7209821428571 23.7666666666667  14.7247023809524 23.7592592592593  C 14.7358630952381 23.7407407407407  14.7433035714286 23.7222222222222  14.7507440476191 23.7037037037037  C 14.7507440476191 23.7  14.7544642857143 23.6962962962963  14.7581845238095 23.6925925925926  C 14.7619047619048 23.6888888888889  14.7619047619048 23.6851851851852  14.765625 23.6814814814815  C 14.780505952381 23.6555555555555  14.7916666666667 23.6296296296296  14.7953869047619 23.6074074074074  C 14.7991071428571 23.5962962962963  14.8065476190476 23.5814814814815  14.8139880952381 23.5666666666667  C 14.8177083333333 23.562962962963  14.8177083333333 23.5555555555556  14.8214285714286 23.5518518518518  C 14.8288690476191 23.5333333333333  14.8363095238095 23.5185185185185  14.8400297619048 23.5  C 14.8400297619048 23.4962962962963  14.84375 23.4925925925926  14.84375 23.4888888888889  C 14.8511904761905 23.4740740740741  14.8549107142857 23.462962962963  14.858630952381 23.4481481481481  C 14.858630952381 23.4444444444444  14.8623511904762 23.4407407407407  14.8623511904762 23.437037037037  C 14.8660714285714 23.4259259259259  14.8697916666667 23.4185185185185  14.8735119047619 23.4074074074074  C 14.8772321428571 23.3962962962963  14.8846726190476 23.3851851851852  14.8883928571429 23.3740740740741  C 14.8995535714286 23.3481481481481  14.9069940476191 23.3222222222222  14.9107142857143 23.3037037037037  C 14.9144345238095 23.2962962962963  14.9144345238095 23.2888888888889  14.9181547619048 23.2814814814815  C 14.9181547619048 23.2777777777778  14.921875 23.2740740740741  14.921875 23.2666666666667  C 14.9293154761905 23.2444444444444  14.9404761904762 23.2148148148148  14.9479166666667 23.1814814814815  C 14.9516369047619 23.1703703703704  14.9553571428572 23.1592592592593  14.9553571428572 23.1518518518519  L 14.9553571428572 23.1481481481482  C 14.9553571428572 23.1444444444444  14.9553571428572 23.1444444444444  14.9590773809524 23.1407407407407  C 14.9665178571429 23.1222222222222  14.9702380952381 23.1  14.9776785714286 23.0814814814815  L 14.9813988095238 23.0740740740741  C 14.9851190476191 23.0666666666667  14.9851190476191 23.0592592592593  14.9851190476191 23.0518518518519  C 15.9747023809524 22.5703703703704  16.8638392857143 21.937037037037  17.6302083333334 21.162962962963  C 20.2232142857143 18.5444444444444  21.0342261904762 14.7185185185185  19.7470238095238 11.1814814814815  C 19.3377976190476 10.0518518518519  18.7425595238095 9.02962962962963  17.9799107142857 8.13703703703704  L 20.7328869047619 6.25925925925926  C 21.3169642857143 5.85555555555556  21.4694940476191 5.05555555555556  21.0677083333334 4.47407407407407  L 20.9337797619048 4.27777777777778  L 21.7522321428572 3.71851851851852  C 22.2730654761905 3.36296296296296  22.4069940476191 2.65185185185185  22.0498511904762 2.12592592592593  L 20.9747023809524 0.562962962962963  C 20.6175595238095 0.0444444444444446  19.9032738095238 -0.0888888888888891  19.3787202380953 0.266666666666667  C 19.375 0.27037037037037  19.3712797619048 0.274074074074074  19.3638392857143 0.277777777777778  L 19.3266369047619 0.307407407407407  L 18.5565476190476 0.833333333333333  L 18.4598214285714 0.692592592592593  C 18.4598214285714 0.688888888888889  18.4561011904762 0.688888888888889  18.4561011904762 0.685185185185185  L 18.4226190476191 0.637037037037037  C 18.1808035714286 0.288888888888889  17.7864583333333 0.0814814814814816  17.3623511904762 0.0814814814814816  C 17.3363095238095 0.0814814814814816  17.3065476190476 0.0814814814814816  17.265625 0.0851851851851851  C 17.2321428571429 0.0851851851851851  17.2061011904762 0.0925925925925926  17.1875 0.0925925925925926  C 17.1800595238095 0.0925925925925926  17.1726190476191 0.0962962962962961  17.1651785714286 0.0962962962962961  C 17.1502976190476 0.0962962962962961  17.1391369047619 0.0999999999999996  17.1279761904762 0.0999999999999996  C 17.1205357142857 0.0999999999999996  17.1130952380952 0.103703703703703  17.1056547619048 0.103703703703703  C 17.0907738095238 0.107407407407407  17.0796130952381 0.107407407407407  17.0647321428572 0.111111111111111  C 17.0200892857143 0.118518518518518  16.9791666666667 0.133333333333333  16.953125 0.144444444444444  C 16.9456845238095 0.148148148148148  16.9382440476191 0.148148148148148  16.9308035714286 0.151851851851852  C 16.9196428571429 0.155555555555555  16.9122023809524 0.159259259259259  16.9010416666667 0.162962962962963  C 16.8973214285714 0.162962962962963  16.889880952381 0.166666666666666  16.8861607142857 0.166666666666666  C 16.8638392857143 0.174074074074074  16.8303571428572 0.188888888888888  16.7931547619048 0.211111111111111  C 16.7596726190476 0.225925925925926  16.7224702380952 0.248148148148148  16.6815476190476 0.27037037037037  C 16.6778273809524 0.274074074074073  16.6741071428572 0.274074074074073  16.6741071428572 0.277777777777777  L 16.640625 0.299999999999999  C 16.640625 0.299999999999999  16.6369047619048 0.299999999999999  16.6369047619048 0.303703703703703  L 5.17485119047619 8.12222222222222  C 5.09300595238095 8.17777777777778  5.03720238095238 8.26296296296296  5.01860119047619 8.35925925925926  C 5 8.45555555555555  5.02232142857143 8.55555555555556  5.078125 8.63703703703704  L 5.46502976190476 9.2  L 4.47544642857143 9.87407407407407  C 4.09598214285714 10.1296296296296  3.99925595238095 10.6444444444444  4.25967261904762 11.0222222222222  L 6.22767857142857 13.8814814814815  C 6.35044642857143 14.062962962963  6.54017857142857 14.1851851851852  6.75967261904762 14.2259259259259  C 6.81175595238095 14.237037037037  6.86383928571429 14.2407407407407  6.91220238095238 14.2407407407407  C 7.07589285714286 14.2407407407407  7.23958333333333 14.1925925925926  7.38095238095238 14.0962962962963  L 8.37053571428572 13.4222222222222  L 8.76116071428572 13.9851851851852  C 8.83184523809524 14.0888888888889  8.95089285714286 14.1444444444444  9.06622023809524 14.1444444444444  C 9.13690476190476 14.1444444444444  9.21130952380952 14.1222222222222  9.27455357142857 14.0777777777778  L 14.8846726190476 10.2518518518518  C 15.4799107142857 10.862962962963  15.952380952381 11.6148148148148  16.25 12.4407407407407  C 17.0424107142857 14.6222222222222  16.5550595238095 16.9666666666667  14.9813988095238 18.5592592592593  C 14.6577380952381 18.8851851851852  14.296875 19.1740740740741  13.9025297619048 19.4185185185185  C 13.3630952380952 18.9148148148148  12.6748511904762 18.5703703703704  11.9122023809524 18.4555555555556  C 11.8601190476191 18.4296296296296  11.8005952380952 18.4111111111111  11.7373511904762 18  L 1.20163690476191 18  C 0.90029761904762 18.4111111111111  0.60639880952381 18.5333333333333  0.394345238095239 18.7407407407407  L 0.390625000000001 18.7444444444444  C 0.17857142857143 18.962962962963  0.0632440476190483 19.2444444444444  0.0632440476190483 19.5444444444444  C 0.0632440476190483 20.1703703703704  0.572916666666667 20.6777777777778  1.20163690476191 20.6777777777778  L 7.89434523809524 20.6777777777778  C 7.70089285714286 21.1296296296296  7.59300595238095 21.6259259259259  7.59300595238095 22.1481481481481  C 7.59300595238095 23.4518518518519  8.26636904761905 24.6  9.28571428571429 25.2703703703704  L 9.28571428571429 28.1296296296296  L 3.77976190476191 28.1296296296296  C 3.28869047619048 28.1296296296296  2.83110119047619 28.3925925925926  2.58556547619048 28.8111111111111  L 1.68154761904762 30.3481481481481  C 1.48809523809524 30.6740740740741  1.48809523809524 31.0666666666667  1.67782738095238 31.3962962962963  C 1.86755952380952 31.7259259259259  2.20610119047619 31.9222222222222  2.58928571428572 32  L 23.8950892857143 32  C 24.2745535714286 31.9222222222222  24.6130952380952 31.7259259259259  24.8028273809524 31.4  Z M 18.984375 1.44444444444444  L 19.7581845238095 0.914814814814815  C 19.7619047619048 0.911111111111111  19.765625 0.907407407407407  19.7693452380952 0.907407407407407  L 19.8065476190476 0.881481481481481  C 19.8958333333333 0.822222222222222  20 0.803703703703704  20.1041666666667 0.822222222222222  C 20.2120535714286 0.840740740740741  20.3013392857143 0.9  20.3645833333333 0.988888888888889  L 21.4397321428571 2.55185185185185  C 21.5662202380952 2.73703703703704  21.5215773809524 2.99259259259259  21.3355654761905 3.11481481481481  L 20.5171130952381 3.67037037037037  L 18.984375 1.44444444444444  Z M 14.7693452380952 23.6444444444444  L 14.7693452380952 23.6518518518519  L 14.7693452380952 23.6444444444444  Z M 7.95014880952381 12.8148148148148  L 6.96056547619048 13.4851851851852  C 6.93452380952381 13.5037037037037  6.90848214285715 13.5  6.89360119047619 13.5  C 6.87872023809524 13.4962962962963  6.85639880952381 13.4888888888889  6.84151785714286 13.4666666666667  L 4.87351190476191 10.6074074074074  C 4.84747023809524 10.5666666666667  4.85491071428571 10.5148148148148  4.89583333333333 10.4888888888889  L 5.88541666666667 9.81481481481481  L 7.95014880952381 12.8148148148148  Z M 14.7172619047619 9.47777777777778  L 9.16294642857143 13.262962962963  L 8.78348214285714 12.7148148148148  C 8.7797619047619 12.7111111111111  8.77604166666667 12.7037037037037  8.77232142857143 12.7  L 6.28720238095238 9.08518518518519  C 6.27976190476191 9.07407407407407  6.27232142857143 9.06296296296296  6.26488095238095 9.05555555555556  L 5.90029761904762 8.52592592592593  L 17.0535714285714 0.925925925925926  L 17.0796130952381 0.907407407407407  C 17.094494047619 0.9  17.1130952380952 0.888888888888889  17.1354166666667 0.877777777777778  C 17.1428571428571 0.874074074074074  17.1465773809524 0.87037037037037  17.1540178571429 0.87037037037037  L 17.1577380952381 0.87037037037037  C 17.1651785714286 0.866666666666667  17.172619047619 0.866666666666667  17.1800595238095 0.862962962962963  C 17.1912202380952 0.859259259259259  17.1986607142857 0.855555555555555  17.2098214285714 0.851851851851852  C 17.2135416666667 0.851851851851852  17.2209821428571 0.848148148148148  17.2247023809524 0.848148148148148  L 17.2321428571429 0.848148148148148  C 17.2358630952381 0.848148148148148  17.2395833333333 0.848148148148148  17.2433035714286 0.844444444444445  C 17.250744047619 0.844444444444445  17.2544642857143 0.840740740740741  17.2619047619048 0.840740740740741  C 17.2693452380952 0.840740740740741  17.2767857142857 0.837037037037038  17.2842261904762 0.837037037037038  C 17.2916666666667 0.837037037037038  17.2953869047619 0.837037037037038  17.3028273809524 0.833333333333334  L 17.3177083333333 0.829629629629631  C 17.3325892857143 0.829629629629631  17.34375 0.829629629629631  17.3549107142857 0.825925925925927  L 17.3660714285714 0.825925925925927  C 17.5446428571429 0.825925925925927  17.7120535714286 0.914814814814817  17.8162202380952 1.06296296296296  C 17.8162202380952 1.06666666666667  17.8199404761905 1.06666666666667  17.8199404761905 1.07037037037037  L 17.8534226190476 1.11851851851852  L 19.8028273809524 3.95185185185185  L 20.4575892857143 4.9  C 20.6287202380952 5.14444444444445  20.5617559523809 5.48518518518519  20.3162202380952 5.65555555555556  L 17.2172619047619 7.77037037037037  L 14.7172619047619 9.47777777777778  Z M 14.4047619047619 19.9888888888889  C 14.8065476190476 19.7259259259259  15.1785714285714 19.4222222222222  15.5133928571429 19.0814814814815  C 17.2916666666667 17.2851851851852  17.8422619047619 14.6444444444444  16.953125 12.1925925925926  C 16.6331845238095 11.3074074074074  16.1346726190476 10.5  15.5096726190476 9.83333333333334  L 17.0349702380952 8.79259259259259  L 17.3697916666667 8.56666666666667  C 18.0989583333333 9.40370370370371  18.6644345238095 10.3703703703704  19.0550595238095 11.4407407407407  C 20.2455357142857 14.7074074074074  19.4977678571429 18.237037037037  17.109375 20.6518518518518  C 16.5178571428571 21.2481481481481  15.8444940476191 21.7555555555555  15.1078869047619 22.1666666666667  L 15.1078869047619 22.1592592592593  C 15.1078869047619 21.3518518518518  14.8474702380952 20.6037037037037  14.4047619047619 19.9888888888889  Z M 8.32217261904762 19.9407407407407  L 1.20163690476191 19.9407407407407  C 0.985863095238095 19.9407407407407  0.807291666666667 19.762962962963  0.807291666666667 19.5481481481482  C 0.807291666666667 19.4148148148148  0.870535714285715 19.3222222222222  0.922619047619048 19.2666666666667  C 0.993303571428572 19.1962962962963  1.09747023809524 19.1555555555556  1.20163690476191 19.1555555555556  L 9.10714285714286 19.1555555555556  C 8.80952380952381 19.3777777777778  8.54538690476191 19.6407407407407  8.32217261904762 19.9407407407407  Z M 11.3504464285714 25.1592592592593  C 9.68749999999998 25.1481481481482  8.33705357142855 23.8037037037037  8.33705357142857 22.1518518518519  C 8.33705357142857 20.5  9.6875 19.1555555555556  11.3467261904762 19.1555555555556  C 13.0059523809524 19.1555555555556  14.3563988095238 20.5  14.360119047619 22.1555555555556  L 14.360119047619 22.2407407407407  C 14.3526785714286 22.4148148148148  14.3377976190476 22.5703703703704  14.3080357142857 22.7111111111111  C 14.3043154761905 22.7259259259259  14.3005952380952 22.7444444444445  14.296875 22.762962962963  L 14.296875 22.7703703703704  C 14.2894345238095 22.7925925925926  14.2819940476191 22.8148148148148  14.2782738095238 22.837037037037  L 14.2782738095238 22.8407407407407  C 14.2745535714286 22.8481481481482  14.2745535714286 22.862962962963  14.2708333333333 22.8740740740741  C 14.2671130952381 22.8851851851852  14.2633928571429 22.8962962962963  14.2633928571429 22.9074074074074  L 14.2633928571429 22.9148148148148  C 14.2559523809524 22.9333333333333  14.2522321428571 22.9518518518519  14.2485119047619 22.962962962963  L 14.2485119047619 22.9666666666667  C 14.2410714285714 22.9851851851852  14.2373511904762 23.0037037037037  14.233630952381 23.0222222222222  C 14.233630952381 23.0259259259259  14.2299107142857 23.0296296296296  14.2299107142857 23.0333333333333  C 14.2224702380952 23.0592592592593  14.2150297619048 23.0814814814815  14.2075892857143 23.1  L 14.2075892857143 23.1037037037037  C 14.2001488095238 23.1185185185185  14.1927083333333 23.137037037037  14.1889880952381 23.1518518518519  C 14.1889880952381 23.1518518518519  14.1889880952381 23.1555555555556  14.1852678571429 23.1555555555556  C 14.1815476190476 23.1666666666667  14.1741071428571 23.1777777777778  14.1703869047619 23.1888888888889  C 14.1629464285714 23.2074074074074  14.155505952381 23.2259259259259  14.1480654761905 23.2407407407407  C 14.1480654761905 23.2444444444444  14.1443452380952 23.2444444444444  14.1443452380952 23.2481481481482  C 14.1331845238095 23.2703703703704  14.125744047619 23.2888888888889  14.1183035714286 23.3111111111111  L 14.1183035714286 23.3148148148148  C 14.1145833333333 23.3259259259259  14.1071428571429 23.337037037037  14.1034226190476 23.3481481481482  C 14.0997023809524 23.3555555555556  14.0997023809524 23.3592592592593  14.0959821428571 23.3666666666667  C 14.0922619047619 23.3740740740741  14.0922619047619 23.3777777777778  14.0885416666667 23.3851851851852  C 14.0885416666667 23.3888888888889  14.0848214285714 23.3925925925926  14.0848214285714 23.3925925925926  C 14.0811011904762 23.3962962962963  14.0811011904762 23.4  14.0773809523809 23.4037037037037  C 14.0736607142857 23.4074074074074  14.0736607142857 23.4148148148148  14.0699404761905 23.4185185185185  C 14.0662202380952 23.4222222222222  14.0662202380952 23.4296296296296  14.0625 23.4333333333333  C 14.0587797619047 23.4407407407407  14.0550595238095 23.4481481481482  14.0513392857143 23.4518518518519  C 14.0438988095238 23.462962962963  14.0401785714286 23.4740740740741  14.0364583333333 23.4814814814815  C 14.0327380952381 23.4925925925926  14.0252976190476 23.5  14.0215773809524 23.5111111111111  C 14.0215773809524 23.5148148148148  14.0178571428571 23.5185185185185  14.0178571428571 23.5222222222222  C 14.0141369047619 23.5259259259259  14.0141369047619 23.5296296296296  14.0104166666667 23.5333333333333  C 14.0104166666667 23.537037037037  14.0066964285714 23.537037037037  14.0066964285714 23.5407407407407  C 13.9955357142857 23.5592592592593  13.9880952380952 23.5740740740741  13.9806547619047 23.5925925925926  C 13.9769345238095 23.6037037037037  13.969494047619 23.6185185185185  13.9657738095238 23.6222222222222  C 13.9620535714286 23.6259259259259  13.9620535714286 23.6296296296296  13.9583333333333 23.6333333333333  L 13.9174107142857 23.7074074074074  C 13.9136904761905 23.7148148148148  13.9099702380952 23.7185185185185  13.90625 23.7259259259259  C 13.9025297619047 23.7333333333333  13.8988095238095 23.7407407407407  13.8950892857143 23.7444444444444  C 13.8839285714286 23.7592592592593  13.8764880952381 23.7740740740741  13.8690476190476 23.7851851851852  L 13.8653273809524 23.7888888888889  C 13.8616071428571 23.7962962962963  13.8578869047619 23.8  13.8504464285714 23.8074074074074  L 13.8430059523809 23.8148148148148  C 13.8355654761905 23.8259259259259  13.828125 23.837037037037  13.8244047619047 23.8444444444444  L 13.7797619047619 23.9074074074074  C 13.7723214285714 23.9185185185185  13.7648809523809 23.9296296296296  13.7574404761905 23.937037037037  C 13.7574404761905 23.9407407407407  13.75 23.9481481481481  13.7462797619047 23.9555555555555  C 13.7425595238095 23.962962962963  13.735119047619 23.9703703703704  13.7313988095238 23.9740740740741  C 13.7313988095238 23.9777777777778  13.7276785714286 23.9777777777778  13.7276785714286 23.9814814814815  L 13.7016369047619 24.0148148148148  C 13.6979166666666 24.0185185185185  13.6941964285714 24.0259259259259  13.6904761904762 24.0296296296296  C 13.6867559523809 24.037037037037  13.6793154761905 24.0407407407407  13.6755952380952 24.0481481481481  C 13.671875 24.0518518518518  13.671875 24.0555555555556  13.6681547619047 24.0592592592593  C 13.656994047619 24.0703703703704  13.6458333333333 24.0814814814815  13.6346726190476 24.0962962962963  C 13.6309523809524 24.1037037037037  13.6235119047619 24.1074074074074  13.6197916666667 24.1148148148148  L 13.6160714285714 24.1185185185185  L 13.59375 24.1407407407407  L 13.5751488095238 24.1592592592593  C 13.5639880952381 24.1703703703704  13.5491071428571 24.1851851851852  13.5379464285714 24.2  L 13.5305059523809 24.2074074074074  C 13.515625 24.2222222222222  13.500744047619 24.237037037037  13.4895833333333 24.2518518518519  L 13.4784226190476 24.262962962963  C 13.4561011904762 24.2814814814815  13.4375 24.3  13.422619047619 24.3148148148148  L 13.3816964285714 24.3555555555556  C 13.3742559523809 24.362962962963  13.3630952380952 24.3703703703704  13.3556547619047 24.3777777777778  C 13.3519345238095 24.3814814814815  13.344494047619 24.3888888888889  13.3370535714285 24.3925925925926  C 13.3258928571428 24.4  13.3184523809524 24.4111111111111  13.3110119047619 24.4185185185185  L 13.2589285714285 24.462962962963  C 13.2514880952381 24.4703703703704  13.2440476190476 24.4740740740741  13.2366071428571 24.4851851851852  C 13.2291666666666 24.4925925925926  13.2217261904762 24.4962962962963  13.2142857142857 24.5037037037037  C 13.2068452380952 24.5111111111111  13.1956845238095 24.5185185185185  13.188244047619 24.5259259259259  C 13.1770833333333 24.5333333333333  13.1696428571428 24.5407407407407  13.1584821428571 24.5481481481482  C 13.1510416666666 24.5518518518519  13.1436011904762 24.5592592592593  13.1361607142857 24.562962962963  C 13.1212797619047 24.5703703703704  13.1138392857143 24.5814814814815  13.1026785714285 24.5888888888889  C 13.0989583333333 24.5925925925926  13.0952380952381 24.5925925925926  13.0952380952381 24.5962962962963  C 13.0840773809524 24.6037037037037  13.0766369047619 24.6074074074074  13.0654761904762 24.6148148148148  C 13.0543154761905 24.6222222222222  13.0357142857143 24.6333333333333  13.0171130952381 24.6481481481482  L 13.0133928571428 24.6481481481482  C 13.0059523809524 24.6518518518519  13.0022321428571 24.6555555555556  12.9947916666666 24.662962962963  L 12.9873511904762 24.6703703703704  C 12.9724702380952 24.6777777777778  12.9613095238095 24.6851851851852  12.9501488095238 24.6962962962963  C 12.9464285714285 24.7  12.9427083333333 24.7  12.9389880952381 24.7037037037037  L 12.9352678571428 24.7074074074074  C 12.9241071428571 24.7148148148148  12.9166666666666 24.7185185185185  12.9055059523809 24.7259259259259  L 12.8497023809524 24.7592592592593  C 12.5855654761905 24.9111111111111  12.2991071428571 25.0222222222222  11.9940476190476 25.0888888888889  C 11.7857142857143 25.1333333333333  11.5699404761905 25.1592592592593  11.3504464285714 25.1592592592593  Z M 10.0297619047619 28.1333333333333  L 10.0297619047619 25.6518518518519  C 10.4389880952381 25.8037037037037  10.8816964285714 25.8888888888889  11.3467261904762 25.8888888888889  C 11.6220238095238 25.8888888888889  11.8936011904762 25.8592592592593  12.1502976190476 25.8037037037037  C 12.328869047619 25.7666666666667  12.5 25.7148148148148  12.6674107142857 25.6518518518519  L 12.6674107142857 28.1333333333333  L 10.0297619047619 28.1333333333333  Z M 24.1517857142857 30.7333333333333  C 24.2299107142857 30.8666666666667  24.1778273809524 30.9888888888889  24.1517857142857 31.0333333333333  C 24.125744047619 31.0777777777778  24.0476190476191 31.1851851851852  23.891369047619 31  L 2.58556547619048 31  C 2.42559523809524 31.1851851851852  2.34747023809524 31.0777777777778  2.32142857142857 31.0333333333333  C 2.29538690476191 30.9888888888889  2.24330357142857 30.8666666666667  2.32142857142857 30.7296296296296  L 3.22544642857143 29.1925925925926  C 3.34077380952381 28.9962962962963  3.54910714285714 28.8777777777778  3.7797619047619 28.8777777777778  L 22.6934523809524 28.8777777777778  C 22.9203869047619 28.8777777777778  23.1324404761905 29  23.2477678571429 29.1962962962963  L 24.1517857142857 30.7333333333333  Z " fill-rule="nonzero" fill="#00435b" stroke="none" transform="matrix(1 0 0 1 357 389 )" />
  </g>
</svg>