<?xml version="1.0" encoding="utf-8"?>
<svg version="1.1" xmlns:xlink="http://www.w3.org/1999/xlink" width="32px" height="32px" xmlns="http://www.w3.org/2000/svg">
  <g transform="matrix(1 0 0 1 -110 -466 )">
    <path d="M 31.8793650793651 16  C 31.8793650793651 7.23174603174603  24.768253968254 0.120634920634921  16 0.120634920634921  C 7.23174603174603 0.120634920634921  0.120634920634921 7.23174603174603  0.120634920634921 16  C 0.120634920634921 24.768253968254  7.23174603174603 31.8793650793651  16 31.8793650793651  C 24.768253968254 31.8793650793651  31.8793650793651 24.768253968254  31.8793650793651 16  Z M 22.647619047619 16  C 22.647619047619 19.6698412698413  19.6698412698413 22.647619047619  16 22.647619047619  C 12.3301587301587 22.647619047619  9.35238095238095 19.6698412698413  9.35238095238095 16  C 9.35238095238095 12.3301587301587  12.3301587301587 9.35238095238095  16 9.35238095238095  C 19.6698412698413 9.35238095238095  22.647619047619 12.3301587301587  22.647619047619 16  Z " fill-rule="nonzero" fill="#7babf1" stroke="none" transform="matrix(1 0 0 1 110 466 )" />
  </g>
</svg>