<?xml version="1.0" encoding="utf-8"?>
<svg version="1.1" xmlns:xlink="http://www.w3.org/1999/xlink" width="29px" height="32px" xmlns="http://www.w3.org/2000/svg">
  <g transform="matrix(1 0 0 1 -110 -466 )">
    <path d="M 28.802850877193 16  C 28.802850877193 7.75873015873016  22.5131578947368 0.977777777777778  14.4618421052632 0.196825396825397  C 6.41052631578947 0.977777777777778  0.120833333333333 7.75873015873016  0.120833333333333 16  C 0.120833333333333 24.2412698412698  6.41052631578947 31.0222222222222  14.4618421052632 31.8031746031746  C 22.5131578947368 31.0222222222222  28.802850877193 24.2412698412698  28.802850877193 16  Z M 22.6848684210526 16  C 22.6848684210526 19.6698412698413  19.7021929824561 22.647619047619  16.0263157894737 22.647619047619  C 15.4857456140351 22.647619047619  14.9642543859649 22.584126984127  14.4618421052632 22.4634920634921  C 13.9594298245614 22.584126984127  13.4379385964912 22.647619047619  12.8973684210526 22.647619047619  C 9.22149122807017 22.647619047619  6.23881578947369 19.6698412698413  6.23881578947369 16  C 6.23881578947369 12.3301587301587  9.22149122807017 9.35238095238095  12.8973684210526 9.35238095238095  C 13.4379385964912 9.35238095238095  13.9594298245614 9.41587301587302  14.4618421052632 9.53650793650794  C 14.9642543859649 9.41587301587302  15.4857456140351 9.35238095238095  16.0263157894737 9.35238095238095  C 19.7021929824561 9.35238095238095  22.6848684210526 12.3301587301587  22.6848684210526 16  Z " fill-rule="nonzero" fill="#a4cff2" stroke="none" transform="matrix(1 0 0 1 110 466 )" />
  </g>
</svg>