<?xml version="1.0" encoding="utf-8"?>
<svg version="1.1" xmlns:xlink="http://www.w3.org/1999/xlink" width="25px" height="25px" xmlns="http://www.w3.org/2000/svg">
  <g transform="matrix(1 0 0 1 -114 -470 )">
    <path d="M 24.99375 12.5  C 24.99375 5.6  19.4 0.00625000000000009  12.5 0.00625000000000009  C 5.6 0.00625000000000009  0.00625000000000009 5.6  0.00625000000000009 12.5  C 0.00625000000000009 19.4  5.6 24.99375  12.5 24.99375  C 19.4 24.99375  24.99375 19.4  24.99375 12.5  Z M 19.04375 12.5  C 19.04375 16.1125  16.1125 19.04375  12.5 19.04375  C 8.8875 19.04375  5.95625 16.1125  5.95625 12.5  C 5.95625 8.8875  8.8875 5.95625  12.5 5.95625  C 16.1125 5.95625  19.04375 8.8875  19.04375 12.5  Z " fill-rule="nonzero" fill="#d3e6f8" stroke="none" transform="matrix(1 0 0 1 114 470 )" />
  </g>
</svg>