<?xml version="1.0" encoding="utf-8"?>
<svg version="1.1" xmlns:xlink="http://www.w3.org/1999/xlink" width="32px" height="32px" xmlns="http://www.w3.org/2000/svg">
  <g transform="matrix(1 0 0 1 -110 -466 )">
    <path d="M 27.3125 27.3125  C 24.29375 30.3375  20.275 32  16 32  C 11.725 32  7.70625 30.3375  4.6875 27.3125  C 1.6625 24.29375  0 20.275  0 16  C 0 11.725  1.6625 7.70625  4.6875 4.6875  C 7.70625 1.6625  11.725 0  16 0  C 20.275 0  24.29375 1.6625  27.3125 4.6875  C 30.3375 7.7125  32 11.725  32 16  C 32 20.275  30.3375 24.29375  27.3125 27.3125  Z M 26.7875 5.20625  C 23.9125 2.31875  20.075 0.731250000000001  16 0.731249999999999  C 11.925 0.731249999999999  8.0875 2.31875  5.20625 5.2  C 2.31875 8.0875  0.73125 11.925  0.73125 16  C 0.73125 20.075  2.31875 23.9125  5.2 26.79375  C 8.08125 29.675  11.91875 31.2625  15.99375 31.2625  C 20.06875 31.2625  23.90625 29.675  26.7875 26.79375  C 29.66875 23.9125  31.25625 20.075  31.25625 16  C 31.25625 11.925  29.66875 8.0875  26.7875 5.20625  Z " fill-rule="nonzero" fill="#4c4372" stroke="none" transform="matrix(1 0 0 1 110 466 )" />
  </g>
</svg>