<?xml version="1.0" encoding="utf-8"?>
<svg version="1.1" xmlns:xlink="http://www.w3.org/1999/xlink" width="26px" height="26px" xmlns="http://www.w3.org/2000/svg">
  <g transform="matrix(1 0 0 1 -113 -469 )">
    <path d="M 25.85625 13  C 25.85625 20.0875  20.0875 25.85625  13 25.85625  C 5.9125 25.85625  0.143750000000001 20.0875  0.143750000000001 13  C 0.143750000000001 5.9125  5.9125 0.14375  13 0.14375  C 20.0875 0.14375  25.85625 5.9125  25.85625 13  Z M 25.125 13  C 25.125 6.3125  19.6875 0.875  13 0.875  C 6.3125 0.875  0.875 6.3125  0.875 13  C 0.875 19.6875  6.3125 25.125  13 25.125  C 19.6875 25.125  25.125 19.6875  25.125 13  Z " fill-rule="nonzero" fill="#4c4372" stroke="none" transform="matrix(1 0 0 1 113 469 )" />
  </g>
</svg>