<?xml version="1.0" encoding="utf-8"?>
<svg version="1.1" xmlns:xlink="http://www.w3.org/1999/xlink" width="14px" height="14px" xmlns="http://www.w3.org/2000/svg">
  <g transform="matrix(1 0 0 1 -119 -475 )">
    <path d="M 13.90625 7  C 13.90625 10.80625  10.80625 13.90625  7 13.90625  C 3.19375 13.90625  0.09375 10.80625  0.09375 7  C 0.09375 3.19375  3.19375 0.09375  7 0.09375  C 10.80625 0.09375  13.90625 3.19375  13.90625 7  Z M 13.175 7  C 13.175 3.59375  10.40625 0.824999999999999  7 0.824999999999999  C 3.59375 0.824999999999999  0.824999999999999 3.59375  0.824999999999999 7  C 0.824999999999999 10.40625  3.59375 13.175  7 13.175  C 10.40625 13.175  13.175 10.40625  13.175 7  Z " fill-rule="nonzero" fill="#4c4372" stroke="none" transform="matrix(1 0 0 1 119 475 )" />
  </g>
</svg>