<?xml version="1.0" encoding="utf-8"?>
<svg version="1.1" xmlns:xlink="http://www.w3.org/1999/xlink" width="23px" height="23px" xmlns="http://www.w3.org/2000/svg">
  <g transform="matrix(1 0 0 1 -115 -471 )">
    <path d="M 14.0236111111111 2.66416666666667  C 14.0236111111111 4.05694444444444  12.8927777777778 5.18777777777778  11.5 5.18777777777778  C 10.1072222222222 5.18777777777778  8.97638888888889 4.05694444444444  8.97638888888889 2.66416666666667  C 8.97638888888889 1.27138888888889  10.1072222222222 0.140555555555555  11.5 0.140555555555555  C 12.8927777777778 0.140555555555555  14.0236111111111 1.27138888888889  14.0236111111111 2.66416666666667  Z M 13.2697222222222 2.66416666666666  C 13.2697222222222 1.68666666666666  12.4775 0.894444444444444  11.5 0.894444444444443  C 10.5225 0.894444444444443  9.73027777777778 1.68666666666667  9.73027777777778 2.66416666666667  C 9.73027777777778 3.64166666666667  10.5225 4.43388888888889  11.5 4.43388888888889  C 12.4775 4.43388888888889  13.2697222222222 3.64166666666666  13.2697222222222 2.66416666666666  Z M 14.0236111111111 20.3294444444444  C 14.0236111111111 21.7222222222222  12.8927777777778 22.8530555555556  11.5 22.8530555555556  C 10.1072222222222 22.8530555555556  8.97638888888889 21.7222222222222  8.97638888888889 20.3294444444444  C 8.97638888888889 18.9366666666667  10.1072222222222 17.8058333333333  11.5 17.8058333333333  C 12.8927777777778 17.8058333333333  14.0236111111111 18.9366666666667  14.0236111111111 20.3294444444444  Z M 13.2697222222222 20.3294444444444  C 13.2697222222222 19.3583333333333  12.4775 18.5597222222222  11.5 18.5597222222222  C 10.5225 18.5597222222222  9.73027777777778 19.3519444444444  9.73027777777778 20.3294444444444  C 9.73027777777778 21.3069444444444  10.5225 22.0991666666667  11.5 22.0991666666667  C 12.4775 22.0991666666667  13.2697222222222 21.3069444444444  13.2697222222222 20.3294444444444  Z M 22.8594444444444 11.5  C 22.8594444444444 12.8927777777778  21.7222222222222 14.0236111111111  20.3358333333333 14.0236111111111  C 18.9430555555556 14.0236111111111  17.8122222222222 12.8927777777778  17.8122222222222 11.5  C 17.8122222222222 10.1072222222222  18.9430555555556 8.97638888888889  20.3358333333333 8.97638888888889  C 21.7286111111111 8.97638888888889  22.8594444444444 10.1072222222222  22.8594444444444 11.5  Z M 22.1055555555556 11.5  C 22.1055555555556 10.5225  21.3069444444444 9.73027777777778  20.3358333333333 9.73027777777778  C 19.3583333333333 9.73027777777778  18.5661111111111 10.5225  18.5661111111111 11.5  C 18.5661111111111 12.4775  19.3583333333333 13.2697222222222  20.3358333333333 13.2697222222222  C 21.3133333333333 13.2697222222222  22.1055555555556 12.4775  22.1055555555556 11.5  Z M 5.18777777777778 11.5  C 5.18777777777778 12.8927777777778  4.05694444444444 14.0236111111111  2.66416666666667 14.0236111111111  C 1.27138888888889 14.0236111111111  0.140555555555556 12.8927777777778  0.140555555555556 11.5  C 0.140555555555556 10.1072222222222  1.27138888888889 8.97638888888889  2.66416666666667 8.97638888888889  C 4.05694444444444 8.97638888888889  5.18777777777778 10.1072222222222  5.18777777777778 11.5  Z M 4.43388888888889 11.5  C 4.43388888888889 10.5225  3.64166666666667 9.73027777777778  2.66416666666667 9.73027777777778  C 1.68666666666667 9.73027777777778  0.894444444444444 10.5225  0.894444444444444 11.5  C 0.894444444444444 12.4775  1.68666666666667 13.2697222222222  2.66416666666667 13.2697222222222  C 3.64166666666667 13.2697222222222  4.43388888888889 12.4775  4.43388888888889 11.5  Z M 7.03416666666666 7.04055555555555  C 6.54861111111111 7.52611111111111  5.89694444444444 7.77527777777778  5.25166666666667 7.77527777777778  C 4.60638888888889 7.77527777777778  3.96111111111111 7.5325  3.46916666666667 7.04055555555555  C 2.99 6.56138888888889  2.72805555555555 5.92888888888889  2.72805555555555 5.25805555555556  C 2.72805555555555 4.58722222222222  2.99 3.94833333333333  3.46916666666667 3.47555555555555  C 4.45305555555555 2.49166666666666  6.05027777777778 2.49166666666666  7.03416666666666 3.47555555555555  C 8.01805555555555 4.45944444444444  8.01805555555555 6.05666666666667  7.03416666666666 7.04055555555555  Z M 6.50388888888889 3.99944444444444  C 6.15888888888889 3.65444444444444  5.70527777777778 3.48194444444444  5.25166666666667 3.48194444444444  C 4.79805555555556 3.48194444444444  4.34444444444444 3.65444444444444  3.99944444444444 3.99944444444444  C 3.66722222222222 4.33166666666667  3.48194444444444 4.77888888888889  3.48194444444444 5.25166666666667  C 3.48194444444444 5.72444444444444  3.66722222222222 6.17166666666667  3.99944444444444 6.50388888888889  C 4.33166666666667 6.83611111111111  4.77888888888889 7.02138888888889  5.25166666666667 7.02138888888889  C 5.72444444444444 7.02138888888889  6.17166666666667 6.83611111111111  6.50388888888889 6.50388888888889  C 6.83611111111111 6.17166666666667  7.02138888888889 5.72444444444444  7.02138888888889 5.25166666666667  C 7.02138888888889 4.77888888888889  6.83611111111111 4.33166666666667  6.50388888888889 3.99944444444444  Z M 19.5308333333333 19.5308333333333  C 19.0388888888889 20.0227777777778  18.3936111111111 20.2655555555556  17.7483333333333 20.2655555555556  C 17.1030555555556 20.2655555555556  16.4577777777778 20.0227777777778  15.9658333333333 19.5308333333333  C 14.9819444444444 18.5469444444444  14.9819444444444 16.9497222222222  15.9658333333333 15.9658333333333  C 16.9497222222222 14.9819444444444  18.5469444444444 14.9819444444444  19.5308333333333 15.9658333333333  C 20.01 16.445  20.2719444444445 17.0775  20.2719444444445 17.7483333333333  C 20.2719444444445 18.4191666666667  20.01 19.0580555555556  19.5308333333333 19.5308333333333  Z M 19.0005555555556 16.4897222222222  C 18.6619444444444 16.1575  18.2211111111111 15.9722222222222  17.7483333333333 15.9722222222222  C 17.2755555555556 15.9722222222222  16.8283333333333 16.1575  16.4961111111111 16.4897222222222  C 16.1638888888889 16.8219444444444  15.9786111111111 17.2691666666667  15.9786111111111 17.7419444444444  C 15.9786111111111 18.2147222222222  16.1638888888889 18.6619444444444  16.4961111111111 18.9941666666667  C 17.1861111111111 19.6841666666667  18.3105555555556 19.6841666666667  19.0005555555556 18.9941666666667  C 19.3327777777778 18.6619444444445  19.5180555555556 18.2147222222222  19.5180555555556 17.7419444444444  C 19.5180555555556 17.2691666666667  19.3327777777778 16.8219444444444  19.0005555555556 16.4897222222222  Z M 19.5308333333333 7.04055555555555  C 19.0388888888889 7.52611111111111  18.3936111111111 7.77527777777778  17.7483333333333 7.77527777777778  C 17.1030555555556 7.77527777777778  16.4577777777778 7.5325  15.9658333333333 7.04055555555555  C 14.9819444444444 6.05666666666667  14.9819444444444 4.45944444444444  15.9658333333333 3.47555555555555  C 16.9497222222222 2.49166666666666  18.5469444444444 2.49166666666666  19.5308333333333 3.47555555555555  C 20.01 3.95472222222222  20.2719444444445 4.58722222222222  20.2719444444445 5.25805555555556  C 20.2719444444445 5.92888888888889  20.01 6.56138888888889  19.5308333333333 7.04055555555555  Z M 19.0005555555556 3.99944444444444  C 18.6555555555556 3.65444444444444  18.2019444444444 3.48194444444444  17.7483333333333 3.48194444444444  C 17.2947222222222 3.48194444444444  16.8411111111111 3.65444444444444  16.4961111111111 3.99944444444444  C 16.1638888888889 4.33166666666667  15.9786111111111 4.77888888888889  15.9786111111111 5.25166666666667  C 15.9786111111111 5.72444444444444  16.1638888888889 6.17166666666667  16.4961111111111 6.50388888888889  C 16.8283333333333 6.83611111111111  17.2755555555556 7.02138888888889  17.7483333333333 7.02138888888889  C 18.2211111111111 7.02138888888889  18.6683333333333 6.83611111111111  19.0005555555556 6.50388888888889  C 19.3327777777778 6.17166666666667  19.5180555555556 5.72444444444444  19.5180555555556 5.25166666666667  C 19.5180555555556 4.77888888888889  19.3327777777778 4.33166666666667  19.0005555555556 3.99944444444444  Z M 7.03416666666666 19.5308333333333  C 6.54861111111111 20.0227777777778  5.89694444444444 20.2655555555556  5.25166666666667 20.2655555555556  C 4.60638888888889 20.2655555555556  3.96111111111111 20.0227777777778  3.46916666666667 19.5308333333333  C 2.99 19.0516666666667  2.72805555555555 18.4191666666667  2.72805555555555 17.7483333333333  C 2.72805555555555 17.0775  2.99 16.445  3.46916666666667 15.9658333333333  C 4.45305555555555 14.9819444444444  6.05027777777778 14.9819444444444  7.03416666666666 15.9658333333333  C 8.01805555555555 16.9497222222222  8.01805555555555 18.5469444444444  7.03416666666666 19.5308333333333  Z M 6.50388888888889 16.4897222222222  C 6.17166666666667 16.1575  5.72444444444445 15.9722222222222  5.25166666666667 15.9722222222222  C 4.77888888888889 15.9722222222222  4.33166666666667 16.1575  3.99944444444444 16.4897222222222  C 3.66722222222222 16.8219444444444  3.48194444444444 17.2691666666667  3.48194444444444 17.7419444444444  C 3.48194444444444 18.2147222222222  3.66722222222222 18.6619444444444  3.99944444444444 18.9941666666667  C 4.68944444444444 19.6841666666667  5.81388888888889 19.6841666666667  6.50388888888889 18.9941666666667  C 6.83611111111111 18.6619444444445  7.02138888888889 18.2147222222222  7.02138888888889 17.7419444444444  C 7.02138888888889 17.2691666666667  6.83611111111111 16.8219444444444  6.50388888888889 16.4897222222222  Z " fill-rule="nonzero" fill="#4c4372" stroke="none" transform="matrix(1 0 0 1 115 471 )" />
  </g>
</svg>