<?xml version="1.0" encoding="utf-8"?>
<svg version="1.1" xmlns:xlink="http://www.w3.org/1999/xlink" width="23px" height="23px" xmlns="http://www.w3.org/2000/svg">
  <g transform="matrix(1 0 0 1 -115 -471 )">
    <path d="M 20.5875 2.93125  C 20.51875 3  20.425 3.03125  20.33125 3.03125  C 20.2375 3.03125  20.14375 2.99375  20.075 2.925  C 19.93125 2.78125  19.93125 2.55  20.075 2.40625  L 22.29375 0.1875  C 22.4375 0.0437500000000002  22.66875 0.0437500000000002  22.8125 0.1875  C 22.95625 0.33125  22.95625 0.5625  22.8125 0.70625  L 20.5875 2.93125  Z M 0.70625 22.8125  C 0.63125 22.8875  0.5375 22.91875  0.44375 22.91875  C 0.35 22.91875  0.25625 22.88125  0.1875 22.8125  C 0.0437500000000002 22.66875  0.0437500000000002 22.4375  0.1875 22.29375  L 2.4125 20.06875  C 2.55625 19.925  2.7875 19.925  2.93125 20.06875  C 3.075 20.2125  3.075 20.44375  2.93125 20.5875  L 0.70625 22.8125  Z " fill-rule="nonzero" fill="#4c4372" stroke="none" transform="matrix(1 0 0 1 115 471 )" />
  </g>
</svg>