<?xml version="1.0" encoding="utf-8"?>
<svg version="1.1" xmlns:xlink="http://www.w3.org/1999/xlink" width="23px" height="23px" xmlns="http://www.w3.org/2000/svg">
  <g transform="matrix(1 0 0 1 -115 -471 )">
    <path d="M 22.81875 22.8125  C 22.74375 22.8875  22.65 22.91875  22.55625 22.91875  C 22.4625 22.91875  22.36875 22.88125  22.3 22.8125  L 20.075 20.5875  C 19.93125 20.44375  19.93125 20.2125  20.075 20.06875  C 20.21875 19.925  20.45 19.925  20.59375 20.06875  L 22.81875 22.29375  C 22.9625 22.4375  22.9625 22.66875  22.81875 22.8125  Z M 2.93125 2.93125  C 2.85625 3  2.7625 3.03125  2.66875 3.03125  C 2.575 3.03125  2.48125 2.99375  2.4125 2.925  L 0.1875 0.70625  C 0.0437500000000002 0.5625  0.0437500000000002 0.33125  0.1875 0.1875  C 0.33125 0.0437500000000002  0.5625 0.0437500000000002  0.70625 0.1875  L 2.93125 2.4125  C 3.075 2.55625  3.075 2.7875  2.93125 2.93125  Z " fill-rule="nonzero" fill="#4c4372" stroke="none" transform="matrix(1 0 0 1 115 471 )" />
  </g>
</svg>