<?xml version="1.0" encoding="utf-8"?>
<svg version="1.1" xmlns:xlink="http://www.w3.org/1999/xlink" width="32px" height="32px" xmlns="http://www.w3.org/2000/svg">
  <g transform="matrix(1 0 0 1 -272 -466 )">
    <path d="M 31.8966112972973 2.44162816216216  C 32.0479378378378 1.27494918918919  31.0277039459459 0.401160324324325  29.861024972973 1  L 2.12433054054054 1  C 0.957651567567568 0.401160324324325  0.0838627027027038 1.27494918918919  0 2.44650967567568  L 0 29.5632533513513  C 0.0838627027027038 30.7299323243243  0.957651567567569 31.6037211891892  2.12433054054054 31  L 29.8561434594595 31  C 31.0228224324324 31.6037211891892  31.8966112972973 30.7299323243243  31.8966112972973 29.5632533513513  L 31.8966112972973 2.44162816216216  Z M 28.2647738378378 2.26589405405405  C 29.2752447567568 2.26101254054054  30.1636781081081 3.03228989189189  30 4.0574052972973  L 30 28.801739027027  C 30.0416405405405 29.3240597297297  29.6267128648649 29.7389874054054  29.1141551891892 29.7389874054054  L 2.87608183783784 29.7389874054054  C 2.36352410810811 29.7389874054054  1.94859643243243 29.3191782162162  2 28.801739027027  L 2 3.20314248648649  C 1.94859643243243 2.68082178378378  2.36352410810811 2.26589410810811  2.87608183783784 2.26589405405405  L 28.2647738378378 2.26589405405405  Z " fill-rule="nonzero" fill="#3f97ee" stroke="none" transform="matrix(1 0 0 1 272 466 )" />
  </g>
</svg>