<?xml version="1.0" encoding="utf-8"?>
<svg version="1.1" xmlns:xlink="http://www.w3.org/1999/xlink" width="10px" height="13px" xmlns="http://www.w3.org/2000/svg">
  <g transform="matrix(1 0 0 1 -286 -474 )">
    <path d="M 3.86293482954546 12.5098959112903  C 3.61150971590909 12.5667023991936  3.35495352272727 12.5998395564516  3.09326619318182 12.5998395564516  C 1.76943613636363 12.5998395564516  0.553359659090905 11.7856129153226  0.199312102272725 10.550071266129  C -0.00593284090909146 9.83998987903226  0.101820738636362 9.09677133467742  0.50204846590909 8.45296420967742  C 0.902276136363637 7.8138909717742  1.54879784090909 7.3547049717742  2.31333528409091 7.16534995967742  C 2.59041602272727 7.09434181048387  2.88289005681818 7.06593854032259  3.17536420454545 7.07067242741936  L 7.10067426136364 0.807754580645164  C 7.47011522727273 0.220753943548389  8.28596397727272 0.0219311572580683  8.92222335227272 0.362770241935488  C 9.55848278409091 0.703609326612907  9.77399 1.45629559274194  9.40454903409091 2.04329617741936  L 5.53055022727273 8.23047204032259  C 5.74092630681818 8.50503686290323  5.88972892045454 8.80327101612903  5.98208914772727 9.12517460483871  C 6.40797244318182 10.5926761451613  5.45871448863636 12.1169842258065  3.86293482954546 12.5098959112903  Z M 3.30877340909091 7.53932614919355  C 3.23693767045454 7.53459226209678  3.16510193181818 7.53459226209678  3.09326619318182 7.53459226209678  C 2.87262784090909 7.53459226209678  2.657120625 7.56299553225807  2.45187568181818 7.61506818548387  C 1.81048517045454 7.77128609274194  1.27171710227273 8.15473005645162  0.938193977272726 8.68965804032259  C 0.604670909090908 9.22458602419355  0.512310681818181 9.84472376612904  0.681637784090906 10.4364582379032  C 1.03568534090909 11.6625321129032  2.41082664772727 12.3915489959677  3.73978784090909 12.0601776854839  C 4.38117835227272 11.9039597782258  4.91994642045454 11.5205158145161  5.25346954545454 10.9855878306452  C 5.58699261363636 10.4506598467742  5.67935284090909 9.83052210483871  5.51002573863636 9.23878763306452  C 5.42279664772727 8.93108570564516  5.26886289772727 8.64705316129033  5.04822454545454 8.38668994758065  L 4.94047096590909 8.26360919758065  L 8.983796875 1.80660239919355  C 9.21469744318182 1.4373600967742  9.07615710227273 0.968706375000003  8.68106051136363 0.755681927419358  C 8.28596392045454 0.542657479838713  7.77285153409091 0.670472169354842  7.54708210227272 1.03498063709678  L 3.46783829545454 7.5487939233871  L 3.30877340909091 7.53932614919355  Z " fill-rule="nonzero" fill="#ffffff" stroke="none" transform="matrix(1 0 0 1 286 474 )" />
  </g>
</svg>