<?xml version="1.0" encoding="utf-8"?>
<svg version="1.1" xmlns:xlink="http://www.w3.org/1999/xlink" width="21px" height="7px" xmlns="http://www.w3.org/2000/svg">
  <g transform="matrix(1 0 0 1 -278 -486 )">
    <path d="M 14.023767515625 3.42869743382353  C 14.018828796875 1.56012309558824  12.433503796875 0.114534463235293  10.502469359375 0.114534411764705  C 8.5714348671875 0.114534411764705  6.981171203125 1.606605  6.981171203125 3.42869743382353  C 6.981171203125 5.2461416617647  8.566496203125 6.74286040441176  10.502469359375 6.74286040441176  C 12.438442515625 6.74286040441176  14.023767515625 5.25078981617647  14.023767515625 3.42869743382353  Z M 3.1141635 4.48383764705882  C 3.1141635 3.72153368382353  2.467192875 3.12656472058824  1.672061015625 3.12656472058824  C 0.881867875 3.12656472058824  0.229958531250002 3.73547825  0.229958531250002 4.48383764705882  C 0.229958531250002 5.23219704411764  0.876929156250004 5.84111057352941  1.672061015625 5.84111057352941  C 2.467192875 5.84111057352941  3.1141635 5.23219704411764  3.1141635 4.48383764705882  Z M 20.7354704921875 4.48383764705882  C 20.7354704921875 3.72153368382353  20.0835611484375 3.12656472058824  19.2933680078125 3.12656472058824  C 18.5031748671875 3.12656472058824  17.8512655234375 3.73547825  17.8512655234375 4.48383764705882  C 17.8512655234375 5.23219704411764  18.4982361484375 5.84111057352941  19.2933680078125 5.84111057352941  C 20.0884998671875 5.84111057352941  20.7354704921875 5.23219704411764  20.7354704921875 4.48383764705882  Z " fill-rule="nonzero" fill="#3f97ee" stroke="none" transform="matrix(1 0 0 1 278 486 )" />
  </g>
</svg>