<?xml version="1.0" encoding="utf-8"?>
<svg version="1.1" xmlns:xlink="http://www.w3.org/1999/xlink" width="31px" height="31px" xmlns="http://www.w3.org/2000/svg">
  <g transform="matrix(1 0 0 1 -354 -467 )">
    <path d="M 2.33388020833333 0.213770833333333  L 11.4557916666667 0.213770833333333  C 12.9760833333333 0.213770833333333  13.7362291666667 0.973927430555556  13.7362291666667 2.494240625  L 13.7362291666667 11.6160875  C 13.7362291666667 13.1363791666667  12.9760833333333 13.896525  11.4557916666667 13.896525  L 2.3339125 13.896525  C 0.813620833333333 13.896525  0.0534749999999997 13.1363791666667  0.0534749999999997 11.6160875  L 0.0534749999999997 2.494240625  C 0.0534749999999997 0.973948958333334  0.813620833333333 0.213803125  2.3339125 0.213803125  Z M 2.33388020833333 17.3115625  L 11.4557916666667 17.3115625  C 12.9760833333333 17.3115625  13.7362291666667 18.0717083333333  13.7362291666667 19.592  L 13.7362291666667 28.713846875  C 13.7362291666667 30.2341385416667  12.9760833333333 30.994284375  11.4557916666667 30.994284375  L 2.3339125 30.994284375  C 0.813620833333333 30.994284375  0.0534749999999997 30.2341385416667  0.0534749999999997 28.713846875  L 0.0534749999999997 19.592  C 0.0534749999999997 18.0717083333333  0.813620833333333 17.3115625  2.3339125 17.3115625  Z M 19.4373552083333 17.3115625  L 28.5592020833333 17.3115625  C 30.07949375 17.3115625  30.8396395833333 18.0717083333333  30.8396395833333 19.592  L 30.8396395833333 28.713846875  C 30.8396395833333 30.2341385416667  30.07949375 30.994284375  28.5592020833333 30.994284375  L 19.4373229166667 30.994284375  C 17.91703125 30.994284375  17.1568854166667 30.2341385416667  17.1568854166667 28.713846875  L 17.1568854166667 19.592  C 17.1568854166667 18.0717083333333  17.91703125 17.3115625  19.4373229166667 17.3115625  Z " fill-rule="nonzero" fill="#4a90e2" stroke="none" transform="matrix(1 0 0 1 354 467 )" />
  </g>
</svg>