<?xml version="1.0" encoding="utf-8"?>
<svg version="1.1" xmlns:xlink="http://www.w3.org/1999/xlink" width="73px" height="64px" xmlns="http://www.w3.org/2000/svg">
  <g transform="matrix(1 0 0 1 -70 -994 )">
    <path d="M 72 7.00353306122449  C 72.7914285714286 3.23688489795918  69.7433657142857 0.182857142857144  65.9836571428571 1  L 7.01592571428571 1  C 3.25663428571429 0.182857142857142  0.208571428571429 3.23646693877551  1 7.00353306122449  L 1 56.9956310204082  C 0.208571428571429 60.7631151020408  3.25621714285714 63.8167248979592  7.01592571428571 63  L 65.98324 63  C 69.7433657142857 63.8167248979592  72.7910114285714 60.7626971428571  72 56.9956310204082  L 72 7.00353306122449  Z M 5 7.00186122448979  C 4.74508643852666 5.7461884528577  5.76103660333203 4.7286242317532  7.01425714285714 5  L 65.9857428571429 5  C 67.2386931829229 4.72839401658177  68.2543525565533 5.74604098194135  68 7.00144326530612  L 68 33.7688032653061  C 64.59916 30.7640946938776  58.2623428571429 26.7123983673469  50.6599142857143 26.7123983673469  C 43.6506628571429 26.7123983673469  36.7402742857143 32.1546448979592  30.0576457142857 37.4171689795918  C 24.9376342857143 41.4488032653061  19.6424228571429 45.6196179591837  15.9277657142857 45.6196179591837  C 10.7168171428571 45.6196179591837  6.25589142857142 41.7806628571429  5 40.3165518367347  L 5 7.00186122448979  Z M 68 56.9985567346939  C 68.2547265313547 58.2539310738928  67.2390825419823 59.2713755602649  65.98616 59  L 7.01425714285715 59  C 5.76114391575925 59.2718367559073  4.74523035169616 58.2541222169523  5 56.9985567346939  L 5 46.2097763265306  C 7.46518857142857 48.1403297959184  11.3980114285714 50.167013877551  15.9286 50.167013877551  C 21.2133828571429 50.167013877551  26.8723428571429 45.7111510204082  32.8629314285714 40.9923918367347  C 38.9390342857143 36.2080130612245  45.2216228571429 31.2597942857143  50.6607485714286 31.2597942857143  C 60.4102114285714 31.2597942857143  68.1427885714286 39.8584685714286  68.2191257142857 39.9458220408163  L 68 39.9136391836735  L 68 56.9985567346939  Z " fill-rule="nonzero" fill="#aaaaaa" stroke="none" transform="matrix(1 0 0 1 70 994 )" />
  </g>
</svg>