<?xml version="1.0" encoding="utf-8"?>
<svg version="1.1" xmlns:xlink="http://www.w3.org/1999/xlink" width="19px" height="20px" xmlns="http://www.w3.org/2000/svg">
  <g transform="matrix(1 0 0 1 -80 -1006 )">
    <path d="M 0.118455172413789 10.00192  C 0.118455172413789 15.1607466666667  4.22853517241379 19.3429333333333  9.29841655172414 19.3429333333333  C 14.3678786206897 19.3429333333333  18.4783779310345 15.1607466666667  18.4783779310345 10.00192  C 18.4783779310345 4.84309333333334  14.3678786206897 0.660906666666667  9.29841655172413 0.660906666666667  C 4.22853517241379 0.660906666666667  0.118455172413789 4.84309333333333  0.118455172413789 10.00192  Z M 4.76231724137931 9.97589333333334  C 4.76231724137931 7.40736  6.80855172413793 5.32522666666667  9.33238068965517 5.32522666666667  C 11.8570482758621 5.32522666666667  13.9028634482759 7.40736  13.9028634482759 9.97589333333334  C 13.9028634482759 12.5444266666667  11.8562096551724 14.62656  9.33238068965517 14.62656  C 6.80855172413793 14.62656  4.76231724137931 12.5444266666667  4.76231724137931 9.97589333333334  Z " fill-rule="nonzero" fill="#aaaaaa" stroke="none" transform="matrix(1 0 0 1 80 1006 )" />
  </g>
</svg>