<?xml version="1.0" encoding="utf-8"?>
<svg version="1.1" xmlns:xlink="http://www.w3.org/1999/xlink" width="23px" height="20px" xmlns="http://www.w3.org/2000/svg">
  <g transform="matrix(1 0 0 1 -41 -10 )">
    <path d="M 22.7864476589011 9.8043966984127  C 22.7910487912088 9.30649735449736  22.5885993471062 8.83082567684168  22.1929027504762 8.43961904761905  L 13.2529201465201 0.940010301994302  C 12.7744033301099 0.473229675213675  12.1348471794872 0.219834477818478  11.4584820512821 0.219834477818478  C 10.7775157907692 0.219834477818478  10.1379596671062 0.473229675213675  9.6916506959707 0.913337123321123  L 0.756269197362638 8.41739140740741  C 0.355971468424908 8.78192485795686  0.139718681318682 9.27537866341066  0.139718681318682 9.79995115995116  C 0.139718681318682 10.8535417175417  1.02773549128205 11.7159744859585  2.12280282373626 11.7159744859585  L 2.40347135531136 11.7159744859585  L 2.40347135531136 17.1084021164021  C 2.40347135531136 18.6154367114367  3.67338139194139 19.8424029304029  5.2331621978022 19.8424029304029  L 17.6930041424176 19.8424029304029  C 19.2527849482784 19.8424029304029  20.5226949849084 18.6154367114367  20.5226949849084 17.1084021164021  L 20.5226949849084 11.72042002442  L 20.8033635164835 11.72042002442  C 21.8938297435897 11.72042002442  22.7864476589011 10.8624327684168  22.7864476589011 9.8043966984127  Z M 21.6591724542125 9.79995115995116  C 21.6545713219048 10.2578407358567  21.2726780952381 10.6268196988197  20.8079646487912 10.6268196988197  L 19.3908186479121 10.6268196988197  L 19.3908186479121 17.1128476548637  C 19.3908186479121 18.0197357297517  18.6316332999267 18.7532481432641  17.6930041424176 18.7532481432641  L 5.23776333010989 18.7532481432641  C 4.29913417260073 18.7532481432641  3.53994882461538 18.0197357297517  3.53994882461538 17.1128476548637  L 3.53994882461538 10.6268196988197  L 2.12280282373626 10.6268196988197  C 1.65348824498168 10.6268196988197  1.27159501831502 10.2578407358567  1.27159501831502 9.8043966984127  C 1.27159501831502 9.58212021815222  1.36821860805861 9.36873478876679  1.52005567765568 9.22647781847782  L 10.4600382816117 1.70908697110297  C 10.7269034432234 1.45124623524623  11.0811899299634 1.30898929100529  11.4584820512821 1.30898929100529  C 11.8357741726007 1.30898929100529  12.1900606593407 1.45124623524623  12.4845325608791 1.73576014977615  L 21.4153129271795 9.23092335693936  C 21.5717511290842 9.38651689051689  21.6591724542125 9.58656573056573  21.6591724542125 9.79995115995116  Z " fill-rule="nonzero" fill="#333333" stroke="none" transform="matrix(1 0 0 1 41 10 )" />
  </g>
</svg>