<?xml version="1.0" encoding="utf-8"?>
<svg version="1.1" xmlns:xlink="http://www.w3.org/1999/xlink" width="6px" height="3px" xmlns="http://www.w3.org/2000/svg">
  <g transform="matrix(1 0 0 1 -49 -22 )">
    <path d="M 5.82316827520306 0.363729670329668  L 5.81899333473483 0.345725274725275  C 5.74801949354993 0.255703296703299  5.65617097448639 0.207691586813191  5.55597259894888 0.207691586813191  C 5.44742436693741 0.207691586813191  5.35140090740564 0.267706250549452  5.27625215021501 0.37573258901099  C 4.70011149087434 1.22193918241759  3.92357408045867 1.68405199120879  3.08858760133779 1.68405202637363  C 2.26195100315337 1.68405202637363  1.48958853320593 1.22193921758242  0.913447873865266 0.387735542857143  C 0.838299092212138 0.279709169230769  0.742275657142857 0.219694505494502  0.633727400668898 0.219694505494502  C 0.529354084663165 0.219694505494502  0.433330649593885 0.273707692307692  0.358181867940757 0.381734065934062  C 0.207884304634498 0.591785336263735  0.207884304634498 0.933868852747247  0.349832011466798 1.14392015824175  L 0.395756258767322 1.20993626373626  C 1.11384462494028 2.21818241758242  2.06990410855232 2.7703172043956  3.08441268533206 2.7703172043956  C 4.10309617811754 2.7703172043956  5.05498074572385 2.21818241758242  5.77306908743431 1.20993626373626  L 5.83151813167702 1.12591576263736  C 5.97764075451505 0.915864492307691  5.97346583850932 0.573780975824178  5.82316827520306 0.363729670329668  Z " fill-rule="nonzero" fill="#e63a39" stroke="none" transform="matrix(1 0 0 1 49 22 )" />
  </g>
</svg>