<?xml version="1.0" encoding="utf-8"?>
<svg version="1.1" xmlns:xlink="http://www.w3.org/1999/xlink" width="25px" height="16px" xmlns="http://www.w3.org/2000/svg">
  <g transform="matrix(1 0 0 1 -248 -12 )">
    <path d="M 11.6582677165354 15.9253333333333  C 11.2803149606299 16.0472380952381  10.8771653543307 15.84  10.7511811023622 15.4620952380952  C 10.6377952755906 15.096380952381  10.8393700787402 14.6940952380952  11.2299212598425 14.584380952381  L 23.9417322834646 10.7565714285714  C 24.3196850393701 10.6468571428571  24.7354330708661 10.8419047619048  24.8488188976378 11.2198095238095  C 24.9622047244095 11.5855238095238  24.7606299212598 11.9878095238095  24.3700787401575 12.0975238095238  L 11.6582677165354 15.9253333333333  Z M 5.39685039370079 2.62552380952381  C 5.32125984251968 2.44266666666667  5.19527559055118 2.29638095238095  5.01889763779528 2.21104761904762  C 4.99370078740157 2.18666666666667  1.13858267716535 0.224  1.13858267716535 0.224  C 0.785826771653543 0.0411428571428573  0.344881889763779 0.175238095238096  0.155905511811023 0.516571428571429  C -0.0330708661417325 0.857904761904763  0.105511811023622 1.28457142857143  0.458267716535433 1.46742857142857  L 4.08661417322835 3.30819047619048  L 7.41259842519685 13.6335238095238  C 7.5259842519685 13.9992380952381  7.94173228346457 14.2064761904762  8.31968503937008 14.0967619047619  C 8.69763779527559 13.9870476190476  8.91181102362205 13.5847619047619  8.79842519685039 13.2190476190476  L 5.39685039370079 2.62552380952381  Z " fill-rule="nonzero" fill="#555555" stroke="none" transform="matrix(1 0 0 1 248 12 )" />
  </g>
</svg>