<?xml version="1.0" encoding="utf-8"?>
<svg version="1.1" xmlns:xlink="http://www.w3.org/1999/xlink" width="15px" height="20px" xmlns="http://www.w3.org/2000/svg">
  <g transform="matrix(1 0 0 1 -254 -10 )">
    <path d="M 4.89417721518987 16.6698039215686  C 5.29518987341771 17.9874509803922  4.56607594936708 19.4054901960784  3.2901265822785 19.8196078431373  C 2.00202531645567 20.2337254901961  0.641012658227851 19.4933333333333  0.240000000000009 18.163137254902  C -0.161012658227861 16.8329411764706  0.555949367088601 15.4274509803922  1.8440506329114 15.0133333333333  C 3.13215189873415 14.5992156862745  4.49316455696203 15.3396078431373  4.89417721518987 16.6698039215686  Z M 3.83696202531644 17.0086274509804  C 3.61822784810124 16.2807843137255  2.86481012658226 15.8792156862745  2.17215189873417 16.1050980392157  C 1.46734177215191 16.3309803921569  1.07848101265822 17.0964705882353  1.29721518987341 17.8243137254902  C 1.51594936708861 18.5521568627451  2.25721518987342 18.9537254901961  2.96202531645571 18.7278431372549  C 3.666835443038 18.5019607843137  4.05569620253164 17.7364705882353  3.83696202531644 17.0086274509804  Z M 14.7858227848101 8.85176470588235  C 15.1260759493671 10.0188235294118  14.4941772151899 11.2611764705882  13.3640506329114 11.6376470588235  L 6.43746835443039 13.8588235294118  C 5.30734177215191 14.2227450980392  4.09215189873419 13.5701960784314  3.73974683544304 12.3905882352941  L 1.58886075949366 5.23764705882353  C 1.23645569620254 4.07058823529412  1.86835443037975 2.81568627450981  3.01063291139241 2.45176470588235  L 9.93721518987343 0.230588235294119  C 11.0673417721519 -0.133333333333331  12.2825316455696 0.519215686274512  12.6349367088608 1.69882352941177  L 14.7858227848101 8.85176470588235  Z M 10.3382278481013 1.61098039215686  L 3.41164556962025 3.8321568627451  C 3.01063291139241 3.95764705882353  2.79189873417721 4.39686274509804  2.91341772151901 4.81098039215686  L 5.06430379746837 11.9639215686274  C 5.1410559972727 12.225481026  5.33900119546507 12.411948351038  5.57546938478902 12.4822186793249  C 5.71339274356961 12.5232048251894  5.86442149986073 12.5246611269994  6.0121518987342 12.478431372549  L 12.9387341772152 10.2572549019608  C 13.3397468354431 10.1317647058823  13.5584810126582 9.69254901960784  13.4369620253165 9.27843137254902  L 11.2860759493671 2.12549019607843  C 11.1645569620253 1.71137254901961  10.7392405063291 1.48549019607843  10.3382278481013 1.61098039215686  Z " fill-rule="nonzero" fill="#e63a39" stroke="none" transform="matrix(1 0 0 1 254 10 )" />
  </g>
</svg>