<?xml version="1.0" encoding="utf-8"?>
<svg version="1.1" xmlns:xlink="http://www.w3.org/1999/xlink" width="20px" height="20px" xmlns="http://www.w3.org/2000/svg">
  <g transform="matrix(1 0 0 1 -146 -10 )">
    <path d="M 4.36092556910569 0.704  C 3.35709819105691 0.78907076  2.38529081300813 1.2270277  1.72407754065041 2.01156924  C 1.2789993699187 2.66535386  1.01163225609756 3.36009848  0.902764227642276 4.04539076  C 0.779487174796748 4.82048  0.861138211382114 5.58296614  1.13010632113821 6.25565538  C 1.39747343495935 6.9188923  1.84735459349594 7.49548308  2.46373983739837 7.91138462  C 2.91682300813008 8.21858462  3.4579612195122 8.43441232  4.0839524796748 8.53366154  C 4.17520951219512 8.5383877  4.27927455284553 8.54311384  4.39774859756098 8.54784  C 5.57768605691057 8.61085538  7.87352095528455 8.72428308  8.66441526422764 8.5383877  C 8.79089430894309 7.96179694  8.76047530487805 6.46360616  8.74126329268293 5.4852923  C 8.73165729674797 5.17336614  8.72685428861788 4.90397538  8.72685428861788 4.79527384  C 8.72685428861788 4.12731076  8.61318325203252 3.50503384  8.36342713414634 2.9457723  C 8.13128205284553 2.43219692  7.78226390243902 1.9627323  7.28755471544715 1.56100924  C 6.47904941056911 0.90249846  5.40317699186992 0.6126277  4.36092556910569 0.704  Z M 0.500913069105691 6.50299076  C 0.185515955284552 5.71844922  0.0894559146341459 4.83465846  0.230343963414634 3.94141538  C 0.356823008130081 3.15687384  0.661013130081301 2.36760614  1.16532833333333 1.62717538  L 1.17013134146341 1.61772308  L 1.18454034552846 1.60039384  C 1.97383365853659 0.65358768  3.12175109756098 0.13056  4.30649156504065 0.0265846200000001  C 5.51364603658537 -0.0726646199999999  6.77043152439024 0.26131692  7.71982489837398 1.03640616  C 8.29618512195122 1.51059692  8.70924329268293 2.06040616  8.98621638211382 2.67323076  C 9.2759975 3.32228922  9.40888054878049 4.03908922  9.40888054878049 4.79369846  C 9.40888054878049 5.0142523  9.41368355691057 5.22692922  9.41848654471545 5.47426462  C 9.44090054878049 6.59751386  9.48252656504065 8.37927386  9.25038148373984 8.93380924  L 9.19594745934959 9.06456616  L 9.06946841463415 9.11340308  C 8.32020012195122 9.42060308  5.68015008130081 9.28512  4.36252658536585 9.22210462  C 4.24405254065041 9.21737846  4.13518449186992 9.20792616  4.03592245934959 9.20477538  L 4.02151345528455 9.20477538  L 4.00390243902439 9.20004924  C 3.26424014227642 9.08662154  2.6190368902439 8.82983386  2.08430268292683 8.46907076  C 1.35424640243902 7.97755076  0.817911178861788 7.29225846  0.500913069105691 6.50299076  Z M 0.814709186991869 15.21801846  C 0.816310182926829 16.00256  1.05646028455285 16.83751384  1.58318949186992 17.64883692  C 2.6270418902439 18.68228922  3.70291432926829 19.16435692  4.68272670731707 19.21004308  C 5.16782989837398 19.23209846  5.63532207317073 19.15175384  6.06759223577236 18.97531076  C 6.49826140243902 18.79886768  6.89851156504065 18.52947692  7.24752971544715 18.18131692  C 8.09125705284553 17.34163692  8.6500062601626 16.05769846  8.72685428861789 14.50121846  C 8.72685428861789 14.40669538  8.72685428861789 14.04120616  8.73165727642276 13.6977723  C 8.73646028455284 12.88172306  8.74126327235772 12.24054154  8.67242026422764 11.3031877  C 8.6500062601626 11.28900924  8.63079424796748 11.28113232  8.60838024390244 11.2811323  L 5.15822388211382 11.2811323  C 4.15919949186992 11.2811323  3.28345215447154 11.5473723  2.58541589430894 12.00265846  C 2.03146967479675 12.36342154  1.59119451219512 12.8376123  1.2870043699187 13.38742154  C 0.982814247967479 13.93723078  0.814709186991869 14.5595077  0.814709186991869 15.21801846  Z M 6.32215134146341 19.59916308  C 5.79862414634146 19.81026462  5.23987491869919 19.90793846  4.65070668699187 19.88115692  C 3.4979862398374 19.82759384  2.25881174796748 19.27620922  1.07407130081301 18.10412308  L 1.05165727642276 18.0820677  L 1.0340462804878 18.05056  C 0.416060040650406 17.11163076  0.13588493902439 16.13804308  0.135884918699186 15.21801846  C 0.135884918699186 14.44608  0.331206991869918 13.71195076  0.689831138211382 13.06131692  C 1.04845528455284 12.41698462  1.57038148373984 11.85772308  2.2139837398374 11.43709538  C 3.02248906504065 10.91406768  4.02471544715447 10.60214154  5.15982489837398 10.60214154  L 8.60838024390244 10.60214154  C 8.89015636178862 10.60214154  8.99422140243902 10.6872123  9.14791743902439 10.81796924  C 9.17513445121951 10.84002462  9.20715447154472 10.8636554  9.2119574796748 10.86680616  L 9.33043152439024 10.96132924  L 9.3400375203252 11.10626462  C 9.42168855691057 12.12553846  9.41688554878049 12.81083078  9.40888054878049 13.6993477  L 9.40888054878049 14.51224616  C 9.32242652439024 16.25304616  8.68682926829268 17.70555078  7.72943089430894 18.65708308  C 7.31637272357724 19.06825846  6.83927455284553 19.38806154  6.32215134146341 19.59916308  Z M 11.602251402439 11.2811323  C 11.5173983739837 11.2811323  11.4805753455285 11.28900922  11.4437523373984 11.30791384  C 11.3749093089431 11.80888614  11.4021263211382 13.42838154  11.4165353252033 14.39251692  C 11.4213383333333 14.71232  11.4261413211382 14.97383384  11.4261413414634 15.01952  C 11.5173983739837 16.45784616  12.1481926219512 17.58109538  13.0239399593496 18.29789538  C 13.4193871138211 18.62242462  13.8628642886179 18.86660922  14.3303564634146 19.01942154  C 14.7978486382114 19.17223384  15.2829518292683 19.23997538  15.7648530284553 19.21319384  C 16.7046403861789 19.15963076  17.6204127439024 18.73900308  18.3104440243902 17.91035076  C 18.9508442682927 17.1384123  19.267842398374 16.33654152  19.3046654065041 15.51576616  C 19.3462914227642 14.64930462  19.0821263211382 13.7607877  18.5505941260163 12.88172308  C 17.2073545934959 11.18660924  14.9563477235772 11.23072  12.8590368902439 11.26695384  C 12.4331707317073 11.27640614  12.0153095528455 11.28428308  11.602251402439 11.27640616  L 11.602251402439 11.2811323  Z M 10.7473170731707 15.02109538  C 10.7457160772358 14.8036923  10.7409130691057 14.62252308  10.7361100609756 14.39724308  C 10.7217010569106 13.28817232  10.6912820528455 11.33469538  10.832170101626 10.95660308  L 10.8818011178862 10.81639384  L 11.0178861788618 10.76283076  C 11.059512195122 10.74550152  11.0947342073171 10.72659692  11.1219512195122 10.71399384  C 11.2676422764228 10.64152614  11.344490304878 10.6052923  11.602251402439 10.6052923  L 11.6070544105691 10.6052923  C 12.0057035569106 10.61001846  12.4235647357724 10.6052923  12.8510318902439 10.59584  C 15.1148467682927 10.55015384  17.5483677235772 10.50604308  19.0997373373984 12.48157538  L 19.1141463414634 12.49890462  L 19.1237523373984 12.51623384  C 19.7273295731707 13.51817846  20.031519695122 14.54217846  19.9866916869919 15.54727384  C 19.9418636788618 16.5129846  19.5736335162602 17.45033846  18.8339712398374 18.33885538  C 18.0126579268293 19.32662154  16.9239775 19.82286768  15.8064790447154 19.88588308  C 15.2397248170732 19.92211692  14.668167601626 19.84019692  14.1190243902439 19.66060308  C 13.5746841869919 19.47943384  13.0575609756098 19.19586462  12.5948717886179 18.8177723  C 11.5782363821138 17.98281846  10.8433771138211 16.69415384  10.7473170731707 15.03842462  L 10.7473170731707 15.02109538  Z " fill-rule="nonzero" fill="#555555" stroke="none" transform="matrix(1 0 0 1 146 10 )" />
  </g>
</svg>