<?xml version="1.0" encoding="utf-8"?>
<svg version="1.1" xmlns:xlink="http://www.w3.org/1999/xlink" width="9px" height="9px" xmlns="http://www.w3.org/2000/svg">
  <g transform="matrix(1 0 0 1 -156 -10 )">
    <path d="M 1.57788859267241 2.24608084322034  C 1.13939522844828 2.90844329872881  0.844519887931036 3.76005216737288  0.723819627155172 4.74082920762712  L 0.723819627155172 8.30196610169492  C 1.60233422198276 8.36204432415254  2.20889123922414 8.35753847033898  2.98503979525862 8.35303259745763  C 3.31352786637931 8.34852672457627  3.66493370043104 8.34852672457627  3.75660477155172 8.34852672457627  C 4.83068434267241 8.34852672457627  5.94296020474138 8.09019034322034  6.78786206896552 7.51794525  C 7.48150663577586 7.04482920762712  7.99639258189655 6.35693352330508  8.15681698060345 5.41070143855932  C 8.28210080172414 4.68375488771186  8.23473740948276 3.94479270762712  7.99639258189655 3.27792437923729  C 7.77943767025862 2.6591186440678  7.40664192025862 2.10039113135593  6.8611989375 1.65280833686441  C 6.06060477155172 1.13313167161017  5.30584615086207 0.85226596398305  4.62136870474138 0.771160366525423  C 3.97661539655172 0.693058671610169  3.38686473491379 0.796693614406779  2.87656232974138 1.05052412288136  C 2.36625994396552 1.30435463135593  1.92776657974138 1.71739243220339  1.57788859267241 2.24608084322034  Z M 0.199766579741377 8.70449022457627  C 0.11726260991379 8.58883963347458  0.0744827586206881 8.52876141101695  0.0744827586206881 8.30196610169492  L 0.0744827586206881 4.70628423305085  L 0.0790663189655158 4.68525683898305  C 0.208933700431033 3.59784093432203  0.537421752155171 2.64710299576271  1.03244562931034 1.8946232161017  C 1.44343767025862 1.27131160805085  1.97207427801724 0.784677966101695  2.59085410991379 0.475275088983051  C 3.20963394181034 0.165872211864407  3.92008488362069 0.0367040402542376  4.69928913362069 0.131327256355933  C 5.48307692456896 0.225950472457627  6.33256234913793 0.539859203389831  7.2248275862069 1.1196140720339  L 7.2339946875 1.12411994491525  L 7.2508010625 1.1406414661017  C 7.90472149137931 1.66482400423729  8.35085410991379 2.33169231355932  8.6060053125 3.06314471822034  C 8.87949071767241 3.84115776483051  8.93907692456897 4.68826076059322  8.79698672844827 5.51433638135593  C 8.60142173275862 6.65432073305085  7.98264190086207 7.48340027542373  7.15149071767241 8.04663364194915  C 6.19505571336207 8.69998435169492  4.9468010625 8.99286570762712  3.75660477155172 8.99286570762712  L 2.9896233362069 8.99286570762712  C 2.13708221767241 9.00187743432204  1.47857824784483 9.00638330720339  0.499225461206896 8.92828161228814  L 0.329633961206897 8.91476401271187  L 0.24254641163793 8.76907431991526  C 0.233379310344826 8.75255279872881  0.216572935344827 8.72551759957627  0.199766579741377 8.70449022457627  Z " fill-rule="nonzero" fill="#555555" stroke="none" transform="matrix(1 0 0 1 156 10 )" />
  </g>
</svg>