<?xml version="1.0" encoding="utf-8"?>
<svg version="1.1" xmlns:xlink="http://www.w3.org/1999/xlink" width="19px" height="20px" xmlns="http://www.w3.org/2000/svg">
  <g transform="matrix(1 0 0 1 -354 -10 )">
    <path d="M 18.9964485154762 19.9701243141593  C 18.9034470214286 16.1743148672566  16.4669841928571 12.9463950884956  13.0480572857143 11.6172290044248  C 14.6994237607143 10.4762425884956  15.7779214845238 8.59478548672566  15.7779214845238 6.46685192477876  C 15.7779214845238 2.98638831858407  12.8934637404762 0.165096902654866  9.33526606428571 0.165096902654866  C 5.77709152738095 0.165096902654866  2.89265694523809 2.98641095132743  2.89265694523809 6.46685192477876  C 2.89265694523809 8.66890725663717  4.04772233928571 10.6068273230088  5.79729818571429 11.733550840708  C 2.52893736666667 13.1279640044248  0.224755161904762 16.2807885176991  0.134415477380952 19.9701469690265  L 1.0550329047619 19.9701469690265  C 1.15224699285714 16.388869579646  3.56114267619048 13.3711803539823  6.87554130952381 12.2924299778761  C 7.6335103 12.5989690486726  8.46411210595238 12.7684711061947  9.33528922619048 12.7684711061947  C 10.2813906297619 12.7684711061947  11.1798339714286 12.5689716814159  11.9891181166667 12.2106786725664  C 15.4399868059524 13.2113000663717  17.9759320511905 16.2936930530973  18.0757385083333 19.9701243141593  L 18.9964485154762 19.9701243141593  Z M 14.8576049583333 6.46685192477876  C 14.8576049583333 9.4498121460177  12.3851034952381 11.868029579646  9.33526606428571 11.868029579646  C 6.28547493452381 11.868029579646  3.81301975 9.44978949115044  3.81301975 6.46685192477876  C 3.81301975 3.48368796460177  6.28547493452381 1.06553842920354  9.33526606428571 1.06553842920354  C 12.3851034952381 1.06553842920354  14.8576049583333 3.48368794247788  14.8576049583333 6.46685192477876  Z " fill-rule="nonzero" fill="#555555" stroke="none" transform="matrix(1 0 0 1 354 10 )" />
  </g>
</svg>