<?xml version="1.0" encoding="utf-8"?>
<svg version="1.1" xmlns:xlink="http://www.w3.org/1999/xlink" width="5px" height="2px" xmlns="http://www.w3.org/2000/svg">
  <g transform="matrix(1 0 0 1 -361 -18 )">
    <path d="M 4.85264022933589 0.242486446886446  L 4.84916111227902 0.230483516483517  C 4.79001624462494 0.170468864468866  4.71347581207199 0.13846105787546  4.62997716579073 0.13846105787546  C 4.53952030578118 0.13846105787546  4.45950075617137 0.178470833699635  4.39687679184584 0.250488392673994  C 3.91675957572862 0.814626121611724  3.2696450670489 1.12270132747253  2.57382300111483 1.12270135091575  C 1.88495916929447 1.12270135091575  1.24132377767161 0.814626145054945  0.761206561554388 0.258490361904762  C 0.698582576843448 0.186472779487179  0.618563047619048 0.146463003663001  0.528106167224082 0.146463003663001  C 0.441128403885971 0.146463003663001  0.361108874661571 0.182471794871795  0.298484889950631 0.254489377289374  C 0.173236920528748 0.394523557509157  0.173236920528748 0.622579235164832  0.291526676222331 0.762613438827835  L 0.329796882306102 0.806624175824176  C 0.928203854116899 1.47878827838828  1.72492009046027 1.84687813626373  2.57034390444339 1.84687813626373  C 3.41924681509795 1.84687813626373  4.21248395476987 1.47878827838828  4.81089090619526 0.806624175824176  L 4.85959844306419 0.750610508424906  C 4.98136729542921 0.610576328205127  4.97788819875777 0.382520650549452  4.85264022933589 0.242486446886446  Z " fill-rule="nonzero" fill="#e63a39" stroke="none" transform="matrix(1 0 0 1 361 18 )" />
  </g>
</svg>