<?xml version="1.0" encoding="utf-8"?>
<svg version="1.1" xmlns:xlink="http://www.w3.org/1999/xlink" width="16px" height="16px" xmlns="http://www.w3.org/2000/svg">
  <g transform="matrix(1 0 0 1 -20 -20 )">
    <path d="M 15.8461538461538 15.8769230769231  C 16 15.7538461538462  16 15.5692307692308  15.8769230769231 15.4461538461538  L 12.8307692307692 12.4  C 14.0307692307692 11.0769230769231  14.7692307692308 9.32307692307693  14.7692307692308 7.41538461538462  C 14.7692307692308 3.29230769230769  11.4769230769231 0  7.38461538461539 0  C 3.29230769230769 0  0 3.29230769230769  0 7.38461538461539  C 0 11.4769230769231  3.29230769230769 14.7692307692308  7.38461538461539 14.7692307692308  C 9.32307692307692 14.7692307692308  11.0461538461538 14.0307692307692  12.3692307692308 12.8307692307692  L 15.4153846153846 15.8769230769231  C 15.5384615384615 16  15.7230769230769 16  15.8461538461538 15.8769230769231  Z M 12.3692307692308 11.9384615384615  C 12.2461538461538 12.0923076923077  12.0923076923077 12.2461538461538  11.9384615384615 12.3692307692308  C 10.7384615384615 13.4769230769231  9.13846153846154 14.1538461538462  7.38461538461539 14.1538461538462  C 3.63076923076923 14.1538461538462  0.615384615384615 11.1384615384615  0.615384615384615 7.38461538461539  C 0.615384615384615 3.63076923076923  3.63076923076923 0.615384615384617  7.38461538461539 0.615384615384617  C 11.1384615384615 0.615384615384617  14.1538461538462 3.63076923076923  14.1538461538462 7.38461538461539  C 14.1538461538462 9.13846153846154  13.4769230769231 10.7384615384615  12.3692307692308 11.9384615384615  Z " fill-rule="nonzero" fill="#555555" stroke="none" transform="matrix(1 0 0 1 20 20 )" />
  </g>
</svg>