<?xml version="1.0" encoding="utf-8"?>
<svg version="1.1" xmlns:xlink="http://www.w3.org/1999/xlink" width="24px" height="22px" xmlns="http://www.w3.org/2000/svg">
  <g transform="matrix(1 0 0 1 -374 -18 )">
    <path d="M 18.6540521739131 7.73609375  C 18.8944173913044 7.49337980769231  19.2237652173913 7.34329326923077  19.5849913043478 7.34329326923077  L 20.856547826087 7.34329326923077  C 20.205052173913 5.68290144230769  19.1139130434783 4.28098317307692  17.7462782608696 3.25946394230769  C 16.1920695652174 2.09848798076923  14.2791913043478 1.42849278846154  12.2476434782609 1.42849278846154  C 10.2160695652174 1.42849278846154  8.30324347826087 2.09848798076923  6.74900869565218 3.25946394230769  C 5.38132173913044 4.28100961538461  4.29026086956522 5.68290144230769  3.63876521739131 7.34329326923077  L 4.59482608695653 7.34329326923077  C 4.95545217391305 7.34329326923077  5.28542608695653 7.49375  5.52568695652174 7.73609375  L 5.52696521739131 7.73760096153846  L 5.5284 7.73884375  C 5.76785217391305 7.98235096153846  5.91597391304348 8.3166875  5.91597391304348 8.68238461538462  L 5.91597391304348 15.6088149038462  C 5.91597391304348 15.9747235576923  5.76753913043479 16.3087956730769  5.5284 16.5523822115385  L 5.52696521739131 16.5535456730769  L 5.52568695652174 16.5550793269231  C 5.28542608695653 16.7977932692308  4.95558260869566 16.9478533653846  4.59482608695653 16.9478533653846  L 3.05493913043479 16.9478533653846  C 2.26938260869566 16.9478533653846  1.55480869565218 16.6217668269231  1.03661739130435 16.0967283653846  L 1.03395652173913 16.09403125  C 0.516078260869569 15.56878125  0.194269565217395 14.8445  0.194269565217395 14.048375  L 0.194269565217395 10.2430889423077  C 0.194269565217395 9.44490144230769  0.515947826086961 8.71982692307692  1.03411304347827 8.19457692307692  L 1.03549565217392 8.19597836538462  C 1.35005217391305 7.87729567307692  1.73634782608696 7.63188461538462  2.16652173913044 7.48782692307692  C 2.86912173913044 5.30332211538462  4.21813043478261 3.46552884615385  5.95802608695653 2.16578365384615  C 7.73770434782609 0.836449519230769  9.92564347826087 0.0693846153846149  12.2476173913044 0.0693846153846149  C 14.5694608695652 0.0693846153846149  16.7575565217391 0.836423076923076  18.5372347826087 2.16578365384615  C 20.3170173913044 3.49527644230769  21.6880173913043 5.38780528846154  22.3762434782609 7.63828365384615  C 22.6606600950915 7.78027588048664  22.9201253521406 7.96867513317016  23.1442695652174 8.19595192307692  L 23.145652173913 8.19455048076923  C 23.6638434782609 8.71980048076923  23.985547826087 9.444875  23.985547826087 10.2430625  L 23.985547826087 14.0483485576923  C 23.985547826087 14.8444735576923  23.6637391304348 15.5687548076923  23.1458608695652 16.0940048076923  L 23.1432 16.0967019230769  C 22.6250086956522 16.6217139423077  21.9103565217391 16.9478269230769  21.1248260869565 16.9478269230769  L 20.6974956521739 16.9478269230769  L 20.8714434782609 17.073375  C 19.8752347826087 18.4846009615385  18.5744608695652 19.6084519230769  17.0960086956522 20.3786634615385  C 15.6146086956522 21.1504879807692  13.9559217391304 21.5695456730769  12.2475913043478 21.5695456730769  L 12.1944260869565 21.5694399038462  C 11.9751913043478 21.8012860576923  11.6663217391304 21.9456875  11.3243217391304 21.9456875  C 10.6584521739131 21.9456875  10.1188173913044 21.3985961538462  10.1188173913044 20.7237091346154  C 10.1188173913044 20.0488221153846  10.6584521739131 19.5018365384615  11.3243217391304 19.5018365384615  C 11.8085739130435 19.5018365384615  12.226147826087 19.7913533653846  12.4178347826087 20.2089038461538  C 13.8540521739131 20.1823293269231  15.2422695652174 19.8199639423077  16.4833565217391 19.1733701923077  C 17.5577212644456 18.6138959363997  18.5137760636327 17.8468562923191  19.2976956521739 16.9154350961539  C 19.0508086956522 16.8589543269231  18.8288608695652 16.7314495192308  18.6540521739131 16.5550264423077  L 18.6527739130435 16.5534927884615  L 18.6513913043478 16.5523293269231  C 18.4119391304348 16.3087427884615  18.2637652173913 15.9748822115385  18.2637652173913 15.6087620192308  L 18.2637652173913 8.68238461538462  C 18.2637652173913 8.3166875  18.4119652173913 7.98237740384615  18.6513913043478 7.73884375  L 18.6527739130435 7.73760096153846  L 18.6540521739131 7.73609375  Z M 4.57513043478261 15.5887980769231  L 4.57513043478261 8.702375  L 3.05493913043478 8.702375  C 2.63600869565217 8.702375  2.25618260869565 8.87499038461539  1.98211304347826 9.15279326923077  L 1.98211304347826 9.15549038461538  C 1.70634782608696 9.43498557692308  1.53508695652174 9.82014423076923  1.53508695652174 10.2430889423077  L 1.53508695652174 14.048375  C 1.53508695652174 14.4722451923077  1.70593043478261 14.8577475961538  1.98073043478261 15.1370576923077  C 2.25628695652174 15.4155745192308  2.6366347826087 15.5887980769231  3.05493913043478 15.5887980769231  L 4.57513043478261 15.5887980769231  Z M 22.1977304347826 9.15279326923077  C 21.9236869565217 8.87501682692308  21.5438086956522 8.702375  21.1248782608696 8.702375  L 19.6047130434783 8.702375  L 19.6047130434783 15.5887980769231  L 21.1248782608696 15.5887980769231  C 21.5431565217391 15.5887980769231  21.9235826086957 15.4155745192308  22.1991391304348 15.1370576923077  C 22.4739130434783 14.8577475961538  22.6447043478261 14.4722451923077  22.6447043478261 14.048375  L 22.6447043478261 10.2430889423077  C 22.6447043478261 9.82014423076923  22.4734173913043 9.43498557692308  22.1977304347826 9.15549038461539  L 22.1977304347826 9.15279326923077  Z " fill-rule="nonzero" fill="#999999" stroke="none" transform="matrix(1 0 0 1 374 18 )" />
  </g>
</svg>