<?xml version="1.0" encoding="utf-8"?>
<svg version="1.1" xmlns:xlink="http://www.w3.org/1999/xlink" width="64px" height="69px" xmlns="http://www.w3.org/2000/svg">
  <g transform="matrix(1 0 0 1 -20 -266 )">
    <path d="M 55.9363494741743 56.8190862007189  C 60.5491717933126 54.1309293245849  63.3909998867119 49.1888562441947  63 43.8538987463913  L 63 24.7266286209848  C 63.3909998030732 19.3709929959491  60.5491717933126 14.4289199155588  55.9363494741743 11.7614410826724  L 39.4413910108735 2.20814512557767  C 34.8266235602793 -0.459354728576262  29.1468577200311 -0.459354728576261  24.5320902694369 2.20814512557768  L 8.03713180613611 11.7614410826724  C 3.42430948699781 14.4289198315741  0.582481393598457 19.3709929119644  1 24.7266286209848  L 1 43.8538987463913  C 0.582481477237235 49.2095343714269  3.42430948699782 54.1516074518172  8.03713180613611 56.8190862007189  L 24.5320902694369 66.3723822417984  C 29.1449125885752 69.0398609907001  34.8285686917352 69.0398609907001  39.4413910108735 66.3723822417984  L 55.9363494741743 56.8190862007189  Z " fill-rule="nonzero" fill="#d7d7d7" stroke="none" transform="matrix(1 0 0 1 20 266 )" />
  </g>
</svg>