<?xml version="1.0" encoding="utf-8"?>
<svg version="1.1" xmlns:xlink="http://www.w3.org/1999/xlink" width="64px" height="68px" xmlns="http://www.w3.org/2000/svg">
  <g transform="matrix(1 0 0 1 -330 -266 )">
    <path d="M 55.9363494741743 55.9956211833172  C 60.5491717933126 53.3464231024895  63.3909998867119 48.4759742696411  63 43.2183349964436  L 63 24.3682716844488  C 63.3909998030732 19.0902539670223  60.5491717933126 14.2198051341739  55.9363494741743 11.5909854148076  L 39.4413910108735 2.17614302230843  C 34.8266235602793 -0.45269741366936  29.1468577200311 -0.452697413669359  24.5320902694369 2.17614302230844  L 8.03713180613611 11.5909854148076  C 3.42430948699781 14.2198050514064  0.582481393598457 19.0902538842548  1 24.3682716844488  L 1 43.2183349964436  C 0.582481477237235 48.49635271387  3.42430948699782 53.3668015467184  8.03713180613611 55.9956211833172  L 24.5320902694369 65.4104636585839  C 29.1449125885752 68.0392832951827  34.8285686917352 68.0392832951827  39.4413910108735 65.4104636585839  L 55.9363494741743 55.9956211833172  Z " fill-rule="nonzero" fill="#d7d7d7" stroke="none" transform="matrix(1 0 0 1 330 266 )" />
  </g>
</svg>