<?xml version="1.0" encoding="utf-8"?>
<svg version="1.1" xmlns:xlink="http://www.w3.org/1999/xlink" width="36px" height="31px" xmlns="http://www.w3.org/2000/svg">
  <g transform="matrix(1 0 0 1 -34 -285 )">
    <path d="M 6.65714285714286 27  L 6.65714285714286 26.9527777777778  C 6.31428571428571 26.9527777777778  6.02857142857143 26.7231481481482  5.94285714285714 26.3787037037037  L 2.28571428571429 10.562962962963  L 1.85714285714286 10.562962962963  C 0.914285714285714 10.5342592592593  0.171428571428571 9.75925925925926  0.171428571428571 8.81203703703703  C 0.171428571428571 7.86481481481481  0.942857142857143 7.08981481481481  1.91428571428571 7.08981481481481  C 2.85714285714286 7.08981481481481  3.65714285714286 7.86481481481481  3.65714285714286 8.84074074074074  C 3.65714285714286 9.07037037037037  3.6 9.3287037037037  3.51428571428571 9.55833333333333  L 3.25714285714286 10.0462962962963  L 11.0285714285714 13.5481481481481  L 17.4285714285714 3.58796296296296  L 17 3.27222222222222  C 16.5428571428571 2.95648148148148  16.2571428571429 2.41111111111111  16.2571428571429 1.83703703703704  C 16.2571428571429 0.889814814814814  17.0285714285714 0.0861111111111108  18 0.0861111111111108  C 18.9714285714286 0.0861111111111108  19.7428571428571 0.861111111111111  19.7428571428571 1.83703703703704  C 19.7428571428571 2.41111111111111  19.4571428571429 2.95648148148148  19 3.27222222222222  L 18.5714285714286 3.55925925925926  L 24.2857142857143 13.5481481481481  L 32.7428571428571 10.0175925925926  L 32.5142857142857 9.50092592592592  C 32.4285714285714 9.2712962962963  32.3714285714286 9.04166666666666  32.3714285714286 8.81203703703703  C 32.3714285714286 7.86481481481481  33.1428571428571 7.06111111111111  34.1142857142857 7.06111111111111  C 35.0571428571429 7.06111111111111  35.8571428571429 7.83611111111111  35.8571428571429 8.81203703703703  C 35.8571428571429 9.75925925925926  35.0857142857143 10.562962962963  34.1142857142857 10.562962962963  L 33.6285714285714 10.562962962963  L 29.9714285714286 26.4074074074074  C 29.8857142857143 26.7518518518519  29.6 26.9814814814815  29.2571428571429 27  L 6.65714285714286 27  Z M 4.11428571428571 12.0268518518519  L 7.22857142857143 25  L 28.7142857142857 25  L 31.8571428571429 11.9694444444444  L 24.2857142857143 15.1268518518519  C 24.2 15.1555555555556  24.1142857142857 15.1842592592593  24 15.1842592592593  C 23.7428571428571 15.1842592592593  23.5142857142857 15.0407407407407  23.3714285714286 14.8398148148148  L 17.9428571428571 5.4537037037037  L 11.8857142857143 14.8398148148148  C 11.7428571428571 15.0407407407407  11.5142857142857 15.1842592592593  11.2857142857143 15.1842592592593  C 11.1714285714286 15.1842592592593  11.0857142857143 15.1555555555556  11 15.1268518518519  L 4.11428571428571 12.0268518518519  Z M 30.4571428571429 31  L 5.48571428571428 31  C 5 31  4.62857142857143 30.6268518518519  4.62857142857143 30.1388888888889  C 4.62857142857143 29.6509259259259  5 29.2777777777778  5.48571428571428 29  L 30.4571428571429 29  C 30.9428571428571 29.2777777777778  31.3142857142857 29.6509259259259  31.3142857142857 30.1388888888889  C 31.3142857142857 30.6268518518519  30.9428571428571 31  30.4571428571429 31  Z " fill-rule="nonzero" fill="#1e90ff" stroke="none" transform="matrix(1 0 0 1 34 285 )" />
  </g>
</svg>