<?xml version="1.0" encoding="utf-8"?>
<svg version="1.1" xmlns:xlink="http://www.w3.org/1999/xlink" width="36px" height="30px" xmlns="http://www.w3.org/2000/svg">
  <g transform="matrix(1 0 0 1 -137 -286 )">
    <path d="M 25.288888875 1.09890111263736  C 23.8666666666667 -0.131868131868133  22.6222222083333 0.0439560576923075  21.0222222083333 1.45054945054945  L 17.8222222083333 4.61538461538462  L 12.311111125 10.0659340796703  C 11.9555555833333 10.4175824175824  11.9555555833333 11.1208791346154  12.311111125 11.4725274725275  L 13.0222222083333 12.1758241895604  C 14.97777775 13.9340659615385  18 13.9340659615385  19.7777777916667 12.1758241895604  L 21.2 10.7692307554945  L 28.8444444583333 18.1538461401099  L 30.088888875 19.3846153846154  L 34.711111125 14.8131868269231  C 36.1333333333333 13.4065934340659  36.1333333333333 11.6483516620879  34.5333333333333 10.241758228022  L 25.288888875 1.09890111263736  Z M 33.6444444583333 11.296703282967  C 34.5333333333333 12  34.5333333333333 13.4065933928571  33.6444444583333 14.1098901098901  L 30.088888875 17.6263736126374  L 21.7333333333333 9.36263736263736  C 21.3777777916667 9.01098902472528  20.8444444583333 9.18681317307693  20.488888875 9.5384615521978  L 18.711111125 11.296703282967  C 17.111111125 12.8791208653846  14.9777777916667 11.8241758104396  13.7333333333333 10.7692307554945  L 19.0666666666667 5.49450548076923  L 22.088888875 2.50549450549451  C 22.97777775 1.80219778846154  23.688888875 1.45054945054945  24.7555555416667 2.50549450549451  L 33.6444444583333 11.296703282967  Z M 30.9777777916667 18.5054945192308  L 22.8 10.4175824175824  L 21.911111125 11.296703282967  L 29.2 18.5054945192308  L 19.6 28.0000000137363  C 19.0666666666667 28.5274725412088  18.3555555416667 28.5274725412088  17.8222222083333 28.0000000137363  L 2.17777779166667 12.5274725274725  C 1.64444445833333 12  1.64444445833333 11.296703282967  2.17777779166667 10.7692307554945  L 10.888888875 2.32967031593407  C 11.4222222083333 1.80219778846154  12.1333333333333 1.80219778846154  12.6666666666667 2.32967031593407  L 17.4666666666667 7.07692306318681  L 18.3555555416667 6.1978021978022  L 13.2 0.923076923076924  C 12.488888875 0.219780206043958  11.0666666666667 0.219780206043958  10.3555555416667 0.923076923076924  L 0.755555541666666 10.4175824175824  C 0.0444444166666666 11.1208791346154  0.0444444166666666 12.5274725274725  0.755555541666666 13.2307692445055  L 17.111111125 29.4065934065934  C 17.82222225 30.1098901236264  19.2444444583333 30.1098901236264  19.9555555416667 29.4065934065934  L 30.9777777916667 18.5054945192308  Z M 25.4666666666667 23.0769230769231  C 25.4666666666667 23.2527472664835  25.4666666666667 23.2527472664835  25.4666666666667 23.0769230769231  L 22.088888875 19.7362637225275  L 22.9777777916667 18.8571428571429  L 26.3555555416667 22.1978022115385  L 25.4666666666667 23.0769230769231  Z M 22.9777777916667 25.7142857142857  L 22.088888875 26.5934065796703  L 18.711111125 23.2527472664835  L 19.6 22.3736263598901  L 22.9777777916667 25.7142857142857  Z " fill-rule="nonzero" fill="#1e90ff" stroke="none" transform="matrix(1 0 0 1 137 286 )" />
  </g>
</svg>