<?xml version="1.0" encoding="utf-8"?>
<svg version="1.1" xmlns:xlink="http://www.w3.org/1999/xlink" width="36px" height="35px" xmlns="http://www.w3.org/2000/svg">
  <g transform="matrix(1 0 0 1 -241 -283 )">
    <path d="M 34.100837628866 12.0089295145344  L 36 9.49332299940849  L 29.2297036082474 2.59975890442792  L 25.8083118556701 5.22710648343755  C 25.1614426685415 4.91092156643929  24.4929196419722 4.63997658356762  23.8076675257732 4.4162674814095  L 23.4104381443299 0.0411750570390414  L 14.5554123711341 0.0182538131654571  L 14.1349871134021 4.39621139302011  C 13.4490829282704 4.61931606576585  12.7804490425229 4.89126354016494  12.1343427835052 5.20991555053237  L 8.72454896907217 2.39060255408146  L 2.44716494845359 8.55068684510732  L 5.2857603092783 11.9344354719452  C 4.9590540012192 12.5738003326825  4.67902316879918 13.2354276895769  4.44780927835051 13.9142579115261  L 0.0202963917525729 14.3010539018928  L 0.00289948453608656 23.039778128697  L 4.42751288659793 23.4494953629373  C 4.65552132289391 24.1287406614372  4.93165542270019 24.79127542901  5.25386597938145 25.4321829580024  L 2.4007731958763 28.7987406519351  L 8.62596649484536 34.9817461868345  L 12.9403994845361 29.0967168222917  C 9.5634729845489 26.9154211185069  7.52811004593613 23.1978467082421  7.52811004593613 19.2112127010469  C 7.52811004593613 12.6886354168426  12.8790573238927 7.4010417951824  19.4797853036681 7.4010417951824  C 22.6509087230043 7.4010417951824  25.6920378778661 8.64637500230016  27.9336340206186 10.8628673208552  L 27.104381443299 11.988873426145  L 28.9513530927835 11.988873426145  L 31.2912371134021 12.0089295145344  L 32.8511597938145 12.0089295145344  L 34.100837628866 12.0089295145344  Z " fill-rule="nonzero" fill="#1e90ff" stroke="none" transform="matrix(1 0 0 1 241 283 )" />
  </g>
</svg>