<?xml version="1.0" encoding="utf-8"?>
<svg version="1.1" xmlns:xlink="http://www.w3.org/1999/xlink" width="36px" height="33px" xmlns="http://www.w3.org/2000/svg">
  <g transform="matrix(1 0 0 1 -344 -284 )">
    <path d="M 27.9810782608696 11.604140625  C 28.3416260869565 11.2400697115385  28.835647826087 11.0149399038462  29.3774869565217 11.0149399038462  L 31.2848217391304 11.0149399038462  C 30.3075782608696 8.52435216346154  28.6708695652174 6.42147475961538  26.6194173913044 4.88919591346154  C 24.2881043478261 3.14773197115384  21.4187869565217 2.14273918269231  18.3714652173913 2.14273918269231  C 15.3241043478261 2.14273918269231  12.4548652173913 3.14773197115384  10.1235130434783 4.88919591346154  C 8.07198260869566 6.42151442307692  6.43539130434783 8.52435216346154  5.45814782608696 11.0149399038462  L 6.89223913043479 11.0149399038462  C 7.43317826086957 11.0149399038462  7.92813913043479 11.240625  8.28853043478262 11.604140625  L 8.29044782608696 11.6064014423077  L 8.29260000000001 11.608265625  C 8.65177826086957 11.9735264423077  8.87396086956522 12.47503125  9 13.0235769230769  L 9 23.4132223557692  C 8.87396086956522 23.9620853365385  8.65130869565218 24.4631935096154  8.29260000000001 24.8285733173077  L 8.29044782608696 24.8303185096154  L 8.28853043478262 24.8326189903846  C 7.92813913043479 25.1966899038461  7.43337391304348 25.4217800480769  6.89223913043479 25.4217800480769  L 4.58240869565218 25.4217800480769  C 3.40407391304348 25.4217800480769  2.33221304347827 24.9326502403846  1.55492608695653 24.1450925480769  L 1.5509347826087 24.141046875  C 0.774117391304354 23.353171875  0.291404347826093 22.26675  0.291404347826093 21.0725625  L 0.291404347826093 15.3646334134615  C 0.291404347826093 14.1673521634615  0.773921739130441 13.0797403846154  1.5511695652174 12.2918653846154  L 1.55324347826088 12.2939675480769  C 2.02507826086957 11.8159435096154  2.60452173913044 11.4478269230769  3.24978260869566 11.2317403846154  C 4.30368260869566 7.95498317307692  6.32719565217392 5.19829326923077  8.93703913043479 3.24867548076923  C 11.6065565217391 1.25467427884615  14.8884652173913 0.104076923076922  18.3714260869565 0.104076923076922  C 21.8541913043478 0.104076923076922  25.1363347826087 1.25463461538461  27.805852173913 3.24867548076923  C 30.4755260869565 5.24291466346154  32.5320260869565 8.08170793269231  33.5643652173913 11.4574254807692  C 33.9909901426373 11.67041382073  34.3801880282108 11.9530126997552  34.7164043478261 12.2939278846154  L 34.7184782608696 12.2918257211538  C 35.4957652173913 13.0797007211538  35.9783217391304 14.1673125  35.9783217391304 15.36459375  L 35.9783217391304 21.0725228365385  C 35.9783217391304 22.2667103365385  35.4956086956522 23.3531322115385  34.7187913043478 24.1410072115385  L 34.7148 24.1450528846154  C 33.9375130434783 24.9325709134615  32.8655347826087 25.4217403846154  31.6872391304348 25.4217403846154  L 31.0462434782609 25.4217403846154  L 31.3071652173913 25.6100625  C 29.8128521739131 27.7269014423077  27.8616913043478 29.4126778846154  25.6440130434783 30.5679951923077  C 23.4219130434783 31.7257319711538  20.9338826086957 32.3543185096154  18.3713869565218 32.3543185096154  L 18.2916391304348 32.3541598557692  C 17.9627869565218 32.7019290865385  17.4994826086957 32.91853125  16.9864826086957 32.91853125  C 15.9876782608696 32.91853125  15.1782260869565 32.0978942307692  15.1782260869565 31.0855637019231  C 15.1782260869565 30.0732331730769  15.9876782608696 29.2527548076923  16.9864826086957 29.2527548076923  C 17.7128608695652 29.2527548076923  18.3392217391304 29.6870300480769  18.6267521739131 30.3133557692308  C 20.7810782608696 30.2734939903846  22.8634043478261 29.7299459134615  24.7250347826087 28.7600552884615  C 26.3365818966685 27.9208439045995  27.7706640954491 26.7702844384786  28.9465434782609 25.3731526442308  C 28.5762130434783 25.2884314903846  28.2432913043478 25.0971742788462  27.9810782608696 24.8325396634615  L 27.9791608695652 24.8302391826923  L 27.9770869565218 24.8284939903846  C 27.6179086956522 24.4631141826923  27.395647826087 23.9623233173077  27 23.4131430288462  L 27 13.0235769230769  C 27.395647826087 12.47503125  27.617947826087 11.9735661057692  27.9770869565218 11.608265625  L 27.9791608695652 11.6064014423077  L 27.9810782608696 11.604140625  Z M 7 23.3831971153846  L 7 13.0535625  L 4.58240869565217 13.0535625  C 3.95401304347826 13.0535625  3.38427391304348 13.3124855769231  2.97316956521739 13.7291899038462  L 2.97316956521739 13.7332355769231  C 2.55952173913043 14.1524783653846  2.30263043478261 14.7302163461538  2.30263043478261 15.3646334134615  L 2.30263043478261 21.0725625  C 2.30263043478261 21.7083677884615  2.55889565217391 22.2866213942308  2.97109565217391 22.7055865384615  C 3.38443043478261 23.1233617788462  3.95495217391304 23.3831971153846  4.58240869565217 23.3831971153846  L 7 23.3831971153846  Z M 33.2965956521739 13.7291899038462  C 32.8855304347826 13.3125252403846  32.3157130434783 13.0535625  31.6873173913043 13.0535625  L 29 13.0535625  L 29 23.3831971153846  L 31.6873173913043 23.3831971153846  C 32.3147347826087 23.3831971153846  32.8853739130435 23.1233617788461  33.2987086956522 22.7055865384615  C 33.7108695652174 22.2866213942308  33.9670565217391 21.7083677884615  33.9670565217391 21.0725625  L 33.9670565217391 15.3646334134615  C 33.9670565217391 14.7302163461538  33.7101260869565 14.1524783653846  33.2965956521739 13.7332355769231  L 33.2965956521739 13.7291899038462  Z " fill-rule="nonzero" fill="#1e90ff" stroke="none" transform="matrix(1 0 0 1 344 284 )" />
  </g>
</svg>