<?xml version="1.0" encoding="utf-8"?>
<svg version="1.1" xmlns:xlink="http://www.w3.org/1999/xlink" width="16px" height="20px" xmlns="http://www.w3.org/2000/svg">
  <g transform="matrix(1 0 0 1 -33 -401 )">
    <path d="M 13.3294117647059 6.25617283950617  C 13.2470588235294 5.60185185185185  13.6617647058824 5.00617283950617  14.2764705882353 4.90123456790123  L 14.9823529411765 4.78395061728395  C 15.1941176470588 4.75308641975309  15.3764705882353 4.6358024691358  15.4970588235294 4.45679012345679  L 15.6676470588235 4.22222222222222  C 15.9294117647059 3.85185185185185  15.85 3.33024691358025  15.4970588235294 3.0679012345679  L 14.5970588235294 2.36728395061728  L 12.7411764705882 0.925925925925926  L 11.8411764705882 0.225308641975309  C 11.4882352941176 -0.0493827160493817  10.9911764705882 0.0339506172839513  10.7411764705882 0.404320987654322  L 10.5705882352941 0.63888888888889  C 10.45 0.817901234567903  10.4 1.04320987654321  10.4294117647059 1.25308641975309  L 10.5411764705882 1.99382716049383  C 10.6323529411765 2.64197530864198  10.2088235294118 3.23456790123457  9.60294117647059 3.33950617283951  L 8.83529411764706 3.46604938271605  C 8.54117647058823 3.50925925925926  8.28823529411764 3.67901234567901  8.11764705882353 3.92283950617284  L 0.476470588235294 14.7839506172839  C 0.13235294117647 15.2623456790123  0.00294117647058807 15.8765432098765  0.0911764705882351 16.4598765432099  L 0.18235294117647 17.0339506172839  C 0.455882352941176 18.7716049382716  2 19.9722222222222  3.66764705882353 19.7283950617284  L 4.21470588235294 19.6450617283951  C 4.77941176470588 19.5617283950617  5.28529411764706 19.2407407407407  5.62941176470588 18.7654320987654  L 13.2470588235294 7.91975308641975  C 13.4176470588235 7.67592592592592  13.4882352941177 7.36728395061728  13.45 7.06172839506173  L 13.3294117647059 6.25617283950617  Z " fill-rule="nonzero" fill="#e55044" stroke="none" transform="matrix(1 0 0 1 33 401 )" />
  </g>
</svg>