<?xml version="1.0" encoding="utf-8"?>
<svg version="1.1" xmlns:xlink="http://www.w3.org/1999/xlink" width="16px" height="18px" xmlns="http://www.w3.org/2000/svg">
  <g transform="matrix(1 0 0 1 -34 -403 )">
    <path d="M 15.6430769230769 2.25616438356165  C 15.9323076923077 1.88321917808219  15.8584615384615 1.36541095890411  15.4892307692308 1.09109589041096  L 14.5476923076923 0.391438356164383  L 14.2615384615385 0.212671232876712  C 14.6307692307692 0.486986301369862  14.7046153846154 1.00787671232877  14.44 1.36541095890411  L 14.2615384615385 1.59965753424657  C 14.1353846153846 1.77842465753425  13.9353846153846 1.89554794520548  13.7230769230769 1.9263698630137  L 12.9846153846154 2.04349315068493  C 12.3384615384615 2.13904109589041  11.9076923076923 2.74315068493151  12.0030769230769 3.38732876712329  L 12.1292307692308 4.19178082191781  C 12.1723076923077 4.5  12.0984615384615 4.80513698630137  11.9169230769231 5.0486301369863  L 3.92307692307692 15.8917808219178  C 3.56307692307692 16.3695205479452  3.03384615384615 16.6962328767123  2.44307692307692 16.7702054794521  L 1.87076923076923 16.8534246575342  C 1.28923076923077 16.9366438356164  0.72 16.8534246575342  0.212307692307692 16.6407534246575  C 0.910769230769231 17.4452054794521  1.97846153846154 17.879794520548  3.09846153846154 17.7318493150685  L 3.67076923076923 17.6486301369863  C 4.26153846153846 17.5654109589041  4.79076923076923 17.2448630136986  5.15076923076923 16.7702054794521  L 13.12 5.93938356164384  C 13.2984615384615 5.69589041095891  13.3723076923077 5.38767123287671  13.3323076923077 5.08253424657535  L 13.2061538461538 4.27808219178082  C 13.1107692307692 3.63082191780822  13.5538461538462 3.03904109589041  14.1876923076923 2.93424657534247  L 14.9261538461538 2.81712328767124  C 15.1476923076923 2.78630136986302  15.3384615384615 2.66917808219179  15.4646153846154 2.49041095890411  L 15.6430769230769 2.25616438356165  Z " fill-rule="nonzero" fill="#cf493d" stroke="none" transform="matrix(1 0 0 1 34 403 )" />
  </g>
</svg>