<?xml version="1.0" encoding="utf-8"?>
<svg version="1.1" xmlns:xlink="http://www.w3.org/1999/xlink" width="11px" height="14px" xmlns="http://www.w3.org/2000/svg">
  <g transform="matrix(1 0 0 1 -47 -390 )">
    <path d="M 10.8411111111111 1.3125  C 10.9327777777778 1.06944444444444  10.8594444444444 0.800462962962963  10.6608333333333 0.644907407407407  L 9.94583333333333 0.0875  C 10.0925 0.243055555555556  10.1352777777778 0.489351851851852  10.0497222222222 0.690277777777778  L 8.68388888888889 4.1287037037037  C 8.58916666666666 4.375  8.41194444444444 4.58564814814815  8.20111111111111 4.73148148148148  L 6.21805555555556 6.05694444444444  L 1.20388888888889 13.2708333333333  L 0.0488888888888896 12.3699074074074  L 0.0488888888888896 12.3796296296296  L 1.99222222222222 13.8930555555556  L 7.00944444444445 6.67916666666667  L 8.9925 5.3537037037037  C 9.2125 5.20787037037037  9.38055555555556 4.99722222222222  9.47527777777778 4.75092592592593  L 10.8411111111111 1.3125  Z " fill-rule="nonzero" fill="#aaaaa9" stroke="none" transform="matrix(1 0 0 1 47 390 )" />
  </g>
</svg>