<?xml version="1.0" encoding="utf-8"?>
<svg version="1.1" xmlns:xlink="http://www.w3.org/1999/xlink" width="9px" height="10px" xmlns="http://www.w3.org/2000/svg">
  <g transform="matrix(1 0 0 1 -36 -406 )">
    <path d="M 1.253125 8.15853658536586  C 1.028125 8.44207317073171  0.61875 8.50609756097561  0.31875 8.29573170731707  C 0.0187499999999998 8.08536585365854  -0.046875 7.67682926829269  0.178125 7.38414634146342  L 5.546875 0.274390243902439  C 5.7625 -0.01829268292683  6.18125 -0.0823170731707331  6.48125 0.13719512195122  C 6.78125 0.347560975609755  6.846875 0.756097560975608  6.621875 1.04878048780488  L 1.253125 8.15853658536586  Z M 3.271875 9.59451219512195  C 3.046875 9.87804878048781  2.628125 9.9390243902439  2.3375 9.73170731707317  C 2.0375 9.52134146341464  1.971875 9.11280487804878  2.196875 8.82012195121951  L 7.565625 1.70731707317073  C 7.78125 1.41463414634146  8.2 1.35060975609756  8.5 1.57012195121951  C 8.8 1.78048780487805  8.865625 2.1890243902439  8.640625 2.48170731707317  L 3.271875 9.59451219512195  Z " fill-rule="nonzero" fill="#a2372f" stroke="none" transform="matrix(1 0 0 1 36 406 )" />
  </g>
</svg>