<?xml version="1.0" encoding="utf-8"?>
<svg version="1.1" xmlns:xlink="http://www.w3.org/1999/xlink" width="15px" height="14px" xmlns="http://www.w3.org/2000/svg">
  <g transform="matrix(1 0 0 1 -196 -406 )">
    <path d="M 3.487441875 1.04631578947369  L 3.81488372093023 0.543298230263157  L 4.32093021802325 0.228912296052629  C 5.09488369186046 1.14063157894736  5.83906975290697 2.11522808552631  6.70232559593023 2.96407019078948  C 7.34767059712838 3.51495119532881  8.03461380435646 4.00913809854233  8.75627908430232 4.44168421052631  C 9.32186049418604 4.85038598026316  9.88744186046511 5.29052631578947  10.4827906831395 5.60491229605263  C 11.1140804024573 5.95391640982917  11.7711151967008 6.24830710907168  12.4474418459302 6.48519296710526  C 13.2511627761628 6.76814033552631  14.0846511627907 6.98821052631579  14.9181395494186 7.20828071710526  C 14.6719994863232 9.18716438814581  14.1188563474201 11.109702883868  13.2809302325581 12.8986666513158  C 12.9512271560456 13.5725349750134  12.2061250759645 13.8926430613085  11.5246511773256 13.6531929671053  L 12.566511627907 10.5093333486842  C 12.2093023255814 11.2952982763158  11.7925581540698 12.1127017697368  11.4651162645349 12.8986666513158  C 11.137674375 13.6846315328947  10.7804651162791 13.9047017236842  9.97674418604651 13.4016842105263  L 10.9293023110465 11.1066666513158  C 10.5720930087209 11.7354385657895  10.18511625 12.3642105263158  9.85767440406977 12.9929824407895  C 9.53023255813953 13.6217543552632  9.50046510174418 13.4331227763158  9.17302325581395 13.2759298092105  L 5.83906975290698 11.8926315789474  C 5.4818604505814 11.7354386118421  5.51162790697674 11.5153684210526  5.69023255813953 11.169543875  C 6.19627905523256 10.2263859802632  6.64279068313953 9.25178947368421  7.08930231104651 8.30863157894737  C 6.95895080863088 8.38591669864085  6.83884129234792 8.48105607864393  6.73209300872093 8.59157894736842  C 6.22604651162791 9.31466665131579  5.71999997093023 10.0377544013158  5.27348838662791 10.8237192828947  C 4.82697680232558 11.6096841644737  4.76744188953488 11.2009824407895  4.41023254360465 10.8237192828947  C 4.05302319767442 10.446456125  3.72558139534884 10.3835789473684  4.08279069767442 9.8805613881579  C 4.28326183244728 9.61753971986006  4.47199450976325 9.34477483214479  4.64837210755814 9.06315789473685  L 4.64837210755814 8.84308770394737  L 4.64837210755814 9.06315789473685  C 4.38046513081395 9.377543875  4.08279069767442 9.66049124342106  3.84465117732558 9.97487717763158  C 3.60651165697674 10.2892631118421  3.487441875 10.3207017236842  3.18976744186046 9.97487717763158  C 2.89209300872093 9.62905263157895  2.95162792151162 9.53473684210527  3.18976744186046 9.28322808552632  C 3.4279069622093 9.03171932894736  4.05302324127907 7.83705263157895  4.49953486918604 7.11396492763158  L 4.49953486918604 6.8938947368421  L 4.49953486918605 7.11396492763158  C 4.37213489642441 7.19594185622026  4.25251213618343 7.29069567420061  4.14232556686046 7.39691229605263  L 2.53488370639535 9.44042105263158  C 1.90976742732558 8.6858947368421  1.34418601744186 7.96280703289473  0.808372107558137 7.23971928289474  C 0.728700368927019 7.071503000605  0.728700368927018 6.87347944018448  0.808372107558137 6.70526315789474  C 1.07627908430232 6.29656138815789  1.40372093023256 5.91929823026316  1.67162790697674 5.51059650657895  L 2.53488370639535 4.28449124342105  L 2.32651164244186 4.44168421052631  L 0.808372107558137 6.13936842105263  C 0.808372107558137 6.29656138815789  0.540465130813951 6.54807019078948  0.302325566860463 6.13936842105263  C 0.00524051877125355 5.58323801947735  0.00524051877125355 4.90349882262791  0.302325566860463 4.34736842105263  L 2.26697672965116 2.02091229605263  C 2.38854701875103 1.85160105600219  2.4979975891184 1.6729539902857  2.59441861918604 1.486456125  L 3.13023257267442 1.04631578947369  L 3.3386046366279 1.04631578947369  L 3.27906976744186 1.04631578947369  L 3.487441875 1.04631578947369  Z " fill-rule="nonzero" fill="#f8b231" stroke="none" transform="matrix(1 0 0 1 196 406 )" />
  </g>
</svg>