<?xml version="1.0" encoding="utf-8"?>
<svg version="1.1" xmlns:xlink="http://www.w3.org/1999/xlink" width="14px" height="18px" xmlns="http://www.w3.org/2000/svg">
  <g transform="matrix(1 0 0 1 -206 -389 )">
    <path d="M 4.46468377564103 17.2592941323529  C 2.81244620484784 16.5433451106089  1.32295230868117 15.509005954413  0.0842393012820522 14.21741175  C 0.696888858974359 14.21741175  1.30953846153846 13.9463529264706  1.95282051282052 13.8861176470588  C 2.32940635142073 13.9197090248359  2.69037419311817 13.7304284029089  2.87179487179487 13.4042352794118  L 10.499282051282 1.17647060294118  C 10.7350387351375 0.518245827131371  11.3525987034127 0.0658365851618704  12.0615384615385 0.0319999852941167  C 12.0924095717622 0.0301591786146159  12.1233303095405 0.0292381418191012  12.154258142545 0.0292381418191012  C 13.0001506741961 0.0292381418191012  13.6858820592117 0.703444629607505  13.6858820592117 1.53512048005439  C 13.6858820592117 1.67877762762694  13.6649744424187 1.82169567041352  13.6237948717949 1.9595294117647  C 13.5348488856518 2.21561270381566  13.4112061638975 2.45874208945017  13.2562051282051 2.68235294117647  L 5.35302564102564 15.0305882205882  C 5.19319731881075 15.289724488252  5.19319731881075 15.6147460852774  5.35302564102564 15.8738823529412  C 5.59808545512821 16.5063529411765  5.75124787820513 17.1689411911765  5.93504275 17.8315293970588  C 5.44492307692308 17.6508235147059  4.95480344871795 17.4701176323529  4.46468377564103 17.2592941323529  Z " fill-rule="nonzero" fill="#3c3b3d" stroke="none" transform="matrix(1 0 0 1 206 389 )" />
  </g>
</svg>