<?xml version="1.0" encoding="utf-8"?>
<svg version="1.1" xmlns:xlink="http://www.w3.org/1999/xlink" width="17px" height="14px" xmlns="http://www.w3.org/2000/svg">
  <g transform="matrix(1 0 0 1 -195 -407 )">
    <path d="M 8.61427776302083 7.14933334868419  L 8.61427776302083 6.80350875657895  C 8.13072219270833 7.77810526315789  7.677388859375 8.72126315789474  7.19383333333333 9.66442105263158  C 7.0125 9.97880703289474  6.98227776302083 10.1988771776316  7.3449444296875 10.3875087565789  L 10.5485 11.928  C 10.8809444296875 12.0851929671053  11.0622777630208 11.928  11.2436110963542 11.6450526315789  C 11.4249444296875 11.3621052631579  11.9689444296875 10.3875087565789  12.3316110963542 9.75873684210526  L 11.3645 12.0537544013158  C 12.2107222369792 12.5567719605263  12.5129444296875 12.4310175592105  12.8756110963542 11.5507368421053  C 13.2382777630208 10.670456125  13.6311666666667 9.94736842105262  13.9938333333333 9.16140349342104  L 12.9360555703125 12.3052631578947  C 13.6279408757362 12.5447132520979  14.3844264598185 12.2246051658028  14.7191666666667 11.5507368421053  C 15.7276057586466 9.79152550340184  16.442870351113 7.86761876879951  16.8347222369792 5.8603508618421  C 16.6384327810115 8.37063867299332  15.9710363873471 10.8165613904064  14.8702777630208 13.0597894736842  C 14.5540309206369 13.6057515191616  13.9704432333534 13.9214308993568  13.3591666666667 13.8771929671053  C 12.0496707840398 13.9525693337522  10.7423318021216 13.6935300308334  9.55116666666667 13.1226666513158  C 8.5840555703125 12.6825263157895  7.64716666666667 12.1795087565789  6.71027776302083 11.7079298092105  C 5.00052985787958 10.8518154283204  3.45429996248961 9.68008809865989  2.14672223697917 8.2496842105263  C 1.1850417224325 7.36690803310934  0.518227498922831 6.18880076227439  0.242722236979165 4.88575440131578  C 0.141402431954831 4.58020206345795  0.141402431954833 4.24814884443675  0.242722236979164 3.94259650657893  C 1.27114796920456 2.44105895976734  2.53855554776859 1.13327356030143  3.99027776302083 0.0756491381578824  C 3.89238364620748 0.26214698615728  3.7812609292081 0.440794036380944  3.65783333333333 0.610105263157881  L 1.72361109635416 2.93656138815788  C 1.42198724891915 3.49269178973316  1.42198724891915 4.1724309865826  1.72361109635417 4.72856138815788  C 1.93516666666667 5.04294736842104  2.08627776302083 4.72856138815788  2.23738890364583 4.72856138815788  L 3.77872223697916 3.03087717763157  L 3.99027776302083 2.8736842105263  L 3.11383333333333 4.0997894736842  C 2.81161109635417 4.50849124342104  2.47916666666666 4.85431578947367  2.23738890364583 5.29445612499999  C 2.15649994313341 5.46267241986992  2.15649994313341 5.66069600118269  2.23738890364583 5.82891229605262  C 2.78138890364583 6.55199999999999  3.38583333333333 7.24364913815788  3.99027776302083 8.02961401973683  L 5.62227776302083 5.98610526315788  C 5.73414773826402 5.87988864130586  5.85559806845311 5.78513482332552  5.9849444296875 5.70315789473683  C 5.56183333333333 6.4262455986842  5.1085 7.14933334868419  4.65516666666666 7.87242105263157  C 4.20183333333333 8.59550875657894  4.41338890364583 8.34399999999999  4.65516666666666 8.56407019078946  C 4.8969444296875 8.78414038157894  5.1085 8.56407019078946  5.3200555703125 8.56407019078946  C 5.531611140625 8.56407019078946  5.8640555703125 7.93529827631578  6.1360555703125 7.6523508618421  C 5.96415056741311 8.01961894999332  5.77243772705312 8.37649160168654  5.56183333333333 8.72126315789473  C 5.19916666666666 9.22428071710525  5.56183333333333 9.44435086184209  5.89427776302083 9.66442105263157  C 6.22672219270833 9.88449124342104  6.49872219270833 9.94736842105262  6.77072223697916 9.66442105263157  C 7.04272228125 9.38147368421052  7.7680555703125 8.15536842105262  8.25161109635416 7.43228071710525  C 8.35999025653657 7.32175784838076  8.48193477931829 7.22661846837768  8.61427776302083 7.14933334868419  Z " fill-rule="nonzero" fill="#ee8a23" stroke="none" transform="matrix(1 0 0 1 195 407 )" />
  </g>
</svg>