<?xml version="1.0" encoding="utf-8"?>
<svg version="1.1" xmlns:xlink="http://www.w3.org/1999/xlink" width="11px" height="8px" xmlns="http://www.w3.org/2000/svg">
  <g transform="matrix(1 0 0 1 -201 -405 )">
    <path d="M 10.9858064516129 5.62272465217391  L 10.8344086169355 7.9675362173913  C 9.98658064516129 7.73008695652174  9.13875271774194 7.552  8.32120428629032 7.2848695652174  C 7.63324190839811 7.06122575974401  6.96490328970255 6.78329166888561  6.3227526733871 6.45379708695652  C 5.71716129032258 6.12730434782609  5.14184944758064 5.71176808695652  4.56653764919355 5.3555942173913  C 3.83245662092453 4.94722768782995  3.13369503589148 4.48066612488234  2.4772473266129 3.96057969565218  C 1.59913981451613 3.15918839130435  0.872430137096774 2.23907243478261  0.0548817056451603 1.37831882608696  L 0.0548817056451603 1.14086956521739  L 0.266838709677418 1.14086956521739  L 1.75053764919355 0.161391304347828  C 1.89176450221114 0.258058802528704  2.0235403399098 0.367357828460374  2.14417202822581 0.487884043478264  C 4.30952310220161 2.99023633241845  7.20497556929601 4.78225752523002  10.4407741935484 5.62272465217391  L 10.9858064516129 5.62272465217391  Z " fill-rule="nonzero" fill="#3c3c3c" stroke="none" transform="matrix(1 0 0 1 201 405 )" />
  </g>
</svg>