<?xml version="1.0" encoding="utf-8"?>
<svg version="1.1" xmlns:xlink="http://www.w3.org/1999/xlink" width="23px" height="20px" xmlns="http://www.w3.org/2000/svg">
  <g transform="matrix(1 0 0 1 -256 -531 )">
    <path d="M 21.6492355556055 5.23281454545454  L 16.8096011109863 5.23281454545454  L 19.2627811109863 1.36850747477273  L 21.6492355556055 5.23281454545454  Z M 16.3631455556055 6.07960565659091  L 21.5507955556055 6.07960565659091  L 12.61228 17.1843167677273  L 16.36312 6.07960565659091  Z M 1.44442555560547 6.07960565659091  L 6.71513111098633 6.07960565659091  L 10.3769866665918 17.2016678788636  L 1.44442555560547 6.07960565659091  Z M 3.8914466665918 1.34099393931818  L 6.26905888901367 5.23281454545454  L 1.37959111098633 5.23281454545454  L 3.8914466665918 1.34099393931818  Z M 7.07078777780273 4.95253333340909  L 4.61758222219727 0.937341414090909  L 10.2894588890137 0.955338989772727  L 7.07078777780273 4.95255919204546  Z M 7.58483777780273 6.07960565659091  L 15.49096 6.07960565659091  L 11.4876311109863 17.9336985859091  L 7.58483777780273 6.07960565659091  Z M 16.0179411109863 4.93032080795455  L 12.6444288890137 0.962915555681818  L 18.5246855556055 0.981766464772728  L 16.0179411109863 4.93032080795455  Z M 11.54715 0.959321212045455  L 15.1810222221973 5.23281454545454  L 7.9143 5.23281454545454  L 11.3562244443945 0.958907474772727  L 11.5471244443945 0.959321212045454  Z M 22.9186566665918 5.70850909090909  L 19.4783933334082 0  L 3.71163777780273 0  L 0.0813433334082031 5.71274989886364  L 11.4860211109863 19.9124492929545  L 22.9186566665918 5.70850909090909  Z " fill-rule="nonzero" fill="#1e90ff" stroke="none" transform="matrix(1 0 0 1 256 531 )" />
  </g>
</svg>