<?xml version="1.0" encoding="utf-8"?>
<svg version="1.1" xmlns:xlink="http://www.w3.org/1999/xlink" width="22px" height="18px" xmlns="http://www.w3.org/2000/svg">
  <g transform="matrix(1 0 0 1 -277 -371 )">
    <path d="M 11.593287037037 1.10198863636364  L 11.593287037037 4.50255681818182  L 10.5060185185185 4.50255681818182  L 10.5060185185185 1.10198863636364  L 11.593287037037 1.10198863636364  Z M 0.18587962962963 10.8051136363636  L 3.51134259259259 10.8051136363636  L 3.51134259259259 11.896875  L 0.18587962962963 11.896875  L 0.18587962962963 10.8051136363636  Z M 18.3053240740741 10.8051136363636  L 21.7453703703704 10.8051136363636  L 21.7453703703704 11.896875  L 18.3053240740741 11.896875  L 18.3053240740741 10.8051136363636  Z M 21.8650462962963 11.4085227272727  C 21.8650462962963 13.5178977272727  21.3023148148148 15.5428977272727  20.2532407407407 17.2994318181818  L 19.9731481481481 17.7673295454545  L 19.04375 17.2073863636364  L 19.3238425925926 16.7394886363636  C 20.2685185185185 15.1517045454545  20.7777777777778 13.3210227272727  20.7777777777778 11.4085227272727  C 20.7777777777778 5.80142045454545  16.3956018518519 1.26051136363637  11 1.26051136363637  C 5.60439814814815 1.26051136363637  1.22222222222222 5.80142045454545  1.22222222222222 11.4085227272727  C 1.22222222222222 13.3414772727273  1.74421296296296 15.1951704545455  2.71180555555556 16.7957386363636  L 2.99444444444444 17.2610795454546  L 2.0650462962963 17.8261363636364  L 1.78240740740741 17.3607954545455  C 0.712962962962963 15.5914772727273  0.134953703703704 13.5434659090909  0.134953703703704 11.4085227272727  C 0.134953703703704 5.20568181818182  4.99583333333333 0.168750000000001  11 0.168750000000001  C 17.0041666666667 0.168750000000001  21.8650462962963 5.203125  21.8650462962963 11.4085227272727  Z M 11.0025462962963 10.0201704545455  L 10.1393518518519 13.5894886363636  C 10.0680555555556 13.8809659090909  10.2462962962963 14.1775568181818  10.5391203703704 14.2491477272727  C 10.5824074074074 14.259375  10.6231481481481 14.2644886363636  10.6664351851852 14.2644886363636  L 11.3412037037037 14.2644886363636  C 11.6416666666667 14.2644886363636  11.8835648148148 14.0190340909091  11.8835648148148 13.7198863636364  C 11.8835648148148 13.6764204545455  11.8784722222222 13.6329545454545  11.868287037037 13.5920454545455  L 11.0025462962963 10.0201704545455  Z M 12.925 13.33125  C 12.9555555555556 13.4565340909091  12.9708333333333 13.5869318181818  12.9708333333333 13.7173295454545  C 12.9708333333333 14.6198863636364  12.2400462962963 15.3536931818182  11.3412037037037 15.3536931818182  L 10.6664351851852 15.3536931818182  C 10.5365740740741 15.3536931818182  10.406712962963 15.3383522727273  10.2819444444444 15.3076704545455  C 9.40856481481481 15.0928977272727  8.8712962962963 14.2082386363636  9.08263888888889 13.33125  L 10.3710648148148 8.015625  C 10.4296296296296 7.77784090909091  10.612962962963 7.59119318181818  10.8497685185185 7.53494318181818  C 11.1986111111111 7.45056818181818  11.5525462962963 7.66534090909091  11.6365740740741 8.015625  L 12.925 13.33125  Z " fill-rule="nonzero" fill="#555555" stroke="none" transform="matrix(1 0 0 1 277 371 )" />
  </g>
</svg>