<?xml version="1.0" encoding="utf-8"?>
<svg version="1.1" xmlns:xlink="http://www.w3.org/1999/xlink" width="16px" height="16px" xmlns="http://www.w3.org/2000/svg">
  <g transform="matrix(1 0 0 1 -181 -497 )">
    <path d="M 7.09782857142857 8.92715044247788  C 6.06250895070869 7.90160284279509  4.38457676357702 7.90160284279509  3.34925714285714 8.92715044247788  C 2.85167685504302 9.420034243388  2.57211428571429 10.0887040895397  2.57211428571429 10.7859543444857  C 2.57211428571429 12.2373391171384  3.75919929187721 13.4139189462556  5.22354285714286 13.4139189462556  C 6.6878864224085 13.4139189462556  7.87497142857143 12.2373391171384  7.87497142857143 10.7859543444857  C 7.87497142857143 10.0887040895397  7.5954088592427 9.420034243388  7.09782857142857 8.92715044247788  Z M 6.10217142857143 11.6557026548673  C 5.86900827718595 11.8866415413301  5.55286858275358 12.0163681415929  5.22324084274916 12.0163681415929  C 4.53651420524527 12.0163681415929  3.97981227132059 11.4645927734552  3.97981227132059 10.7839433628319  C 3.97981227132059 10.1032939522085  4.53651420524527 9.5515185840708  5.22324084274916 9.5515185840708  C 5.55286858275358 9.5515185840708  5.86900827718595 9.68124518433364  6.10217142857143 9.91218407079646  C 6.58791645296743 10.3935023482934  6.58832567828973 11.1738841735237  6.10308571428571 11.6557026548673  Z M 15.3501714285714 0.751461946902654  L 15.3501714285714 0.748743362831858  C 14.5027763697126 -0.0909219679046527  13.1351140575304 -0.109799383601347  12.2644571428571 0.706152212389381  L 2.76777142857143 6.21853451327434  C 1.06708197500142 7.11746447044069  0.00474259201391598 8.87229013519261  0.00474259201391598 10.7826446201645  C 0.00474259201391598 13.6393702347512  2.34125335586839 15.9552039121999  5.22348544915677 15.9552039121999  C 7.24686031137186 15.9552039121999  9.08788830401464 14.7959733911776  9.94765714285714 12.9805592920354  L 15.3364571428571 3.8642407079646  L 15.3501714285714 3.85064778761062  C 15.7648868505439 3.43970616854532  15.9978803505584 2.88228744872373  15.9978803505584 2.30105486725664  C 15.9978803505584 1.71982228578954  15.7648868505439 1.16240356596796  15.3501714285714 0.751461946902654  Z M 13.1302857142857 1.65493805309735  C 13.4916018408401 1.29691154218021  14.0773124448742 1.29691154218022  14.4386285714286 1.65493805309735  C 14.7993478728532 2.01326337467542  14.7993478728532 2.59337733328919  14.4386285714286 2.95170265486726  C 14.0771039166221 3.30922975008457  13.4918103690922 3.30922975008457  13.1302857142857 2.95170265486726  C 12.768957822519 2.59327313930579  12.768957822519 2.01246137396855  13.1302857142857 1.65403185840708  Z M 8.2736 13.8070088495575  L 8.27268571428572 13.8061026548673  C 6.64617142857143 15.4200353982301  3.80274285714286 15.4227539823009  2.17348571428572 13.8061026548673  C 1.36599002046505 13.0036156419979  0.912524500059734 11.916491688046  0.912524500059734 10.7831139615616  C 0.912524500059734 9.20500303504009  1.78851550903256 7.7548768580268  3.192 7.00964247787611  L 3.20571428571429 7.00148672566372  C 3.82750864176239 6.6753362372679  4.52033606691085 6.50483356471733  5.22383473827355 6.50483356471733  C 7.60667518120065 6.50483356471733  9.53834902398784 8.41941294871878  9.53834902398784 10.7811663080802  C 9.53834902398784 11.394077091281  9.40542054361923 11.9998265701162  9.14857142857143 12.5573663716814  L 9.01508571428572 12.7830088495575  L 9.03154285714286 12.7920707964602  C 8.83117792249561 13.1658307253497  8.57572351366815 13.5079018958966  8.2736 13.8070088495575  Z M 13.9174857142857 4.48951504424779  L 10.4285714285714 10.3979044247788  C 10.2378072375802 7.83277811357873  8.17199417035258 5.7976090324744  5.58285714285714 5.62407079646018  L 11.5769142857143 2.14428318584071  C 11.5732571428571 2.19563421828909  11.5714285714286 2.24698525073746  11.5714285714286 2.29833628318584  C 11.5709616349185 2.87976206131309  11.8042387045341 3.43741180322528  12.2196571428571 3.84792920353982  C 12.6345519432964 4.25961467386529  13.1978353621819 4.49049984663814  13.7849142857143 4.48951504424779  L 13.9174857142857 4.48951504424779  Z " fill-rule="nonzero" fill="#555555" stroke="none" transform="matrix(1 0 0 1 181 497 )" />
  </g>
</svg>