<?xml version="1.0" encoding="utf-8"?>
<svg version="1.1" xmlns:xlink="http://www.w3.org/1999/xlink" width="22px" height="21px" xmlns="http://www.w3.org/2000/svg">
  <g transform="matrix(1 0 0 1 -330 -499 )">
    <path d="M 14.4658461538462 19.39362964  C 14.2091168041731 20.32281482  13.69565812725 20.8537777934062  12.9254700780192 20.85377777  L 9.07452992198077 20.85377777  C 8.30434189538461 20.85377777  7.79088319582692 20.1900740765937  7.79088319582692 19.52637036  L 7.79088319582692 17.1370370265937  C 5.73704844307692 16.0751111034063  4.58176639186538 13.8185185134063  4.58176639186538 11.42918518  C 4.58176639186538 9.43807407659375  5.48031909340385 7.57970369340625  7.02069514659615 6.25229630659375  C 8.56107119978846 4.92488891978125  10.4865413004423 4.52666666659375  12.5403760758269 4.92488889659375  C 14.9793048531923 5.45585187  17.0331396061538 7.57970371659375  17.5465982830769 10.10177777  C 18.0600569826346 13.0220740765937  16.9047749312115 15.6768888734063  14.4658461538462 17.1370370265937  L 14.4658461538462 19.39362964  Z M 12.1552820512115 5.98681482  C 11.7701880265962 5.98681482  11.3850940246154 5.85407407659375  11 5.85407407659375  C 9.71635327384615 5.85407407659375  8.56107122263461 6.25229630659375  7.66251852109615 7.04874074340625  C 6.37887179494231 8.1106666668125  5.73704844307692 9.70355556340625  5.73704844307692 11.2964444365937  C 5.73704844307692 13.28755554  6.76396581955769 15.1459259231875  8.43270654769231 16.0751111034063  C 8.68943589736539 16.2078518468125  8.94616524725 16.6060740768125  8.94616524725 17.0042963065938  L 8.94616524725 19.39362964  C 8.94616524725 19.5263703834062  9.07452992219231 19.6591111265938  9.20289459692308 19.6591111034063  L 13.05383475275 19.6591111034063  C 13.1821994276923 19.6591111034063  13.3105641024231 19.52637036  13.3105641026346 19.39362964  L 13.3105641026346 17.1370370265937  C 13.3105641026346 16.7388147965938  13.4389287775769 16.4733333331875  13.8240228019808 16.2078518465938  C 15.8778575547308 15.01318518  16.9047749312115 12.75659259  16.3913162318654 10.3672592565937  C 15.8778575323077 8.24340741  14.2091168041731 6.51777777  12.1552820512115 5.98681482  Z M 21.9109971610962 11.5619259234063  C 21.9109971610962 11.8274073868125  21.7826324861539 12.0928888968125  21.3975384615385 12.0928888965938  L 19.3437037087885 12.0928888965938  C 19.0869743591154 12.0928888965938  18.8302450092308 11.82740741  18.8302450092308 11.5619259234063  C 18.8302450092308 11.2964444368125  19.0869743589038 11.03096295  19.3437037087885 11.0309629734063  L 21.3975384615385 11.0309629734063  C 21.6542678112115 11.0309629734063  21.9109971610962 11.29644446  21.9109971610962 11.5619259234063  Z M 3.16975499076923 11.2964444365937  C 3.16975499076923 11.5619259  2.91302564109615 11.82740741  2.65629629121154 11.82740741  L 0.602461538461538 11.82740741  C 0.345732188788462 11.82740741  0.0890028389038462 11.5619259234062  0.0890028389038462 11.2964444365937  C 0.0890028389038462 11.0309629497813  0.345732188576923 10.7654814631875  0.602461538461538 10.7654814865937  L 2.65629629121154 10.7654814865937  C 2.91302564088462 10.7654814865937  3.16975499076923 11.0309629731875  3.16975499076923 11.2964444365937  Z M 17.4182336081346 5.85407407659375  C 17.2898689331923 5.98681482  17.1615042584615 5.98681482  17.0331396061538 5.98681482  C 16.9047749312115 5.98681482  16.7764102564808 5.98681482  16.6480455815385 5.85407407659375  C 16.3913162318654 5.58859259  16.3913162318654 5.3231111031875  16.6480455815385 5.05762964  L 18.1884216573654 3.46474074340625  C 18.4451510070385 3.1992592568125  18.7018803569231 3.1992592568125  18.9586096841731 3.46474074340625  C 19.2153390114231 3.73022223  19.2153390338462 3.9957037168125  18.9586096841731 4.26118518  L 17.4182336081346 5.85407407659375  Z M 5.60868376813462 5.72133333340625  C 5.48031909319231 5.72133333340625  5.35195441846154 5.8540740768125  5.22358974351923 5.85407407659375  C 5.09522506857692 5.85407407659375  4.96686039384615 5.85407407659375  4.83849571890385 5.72133333340625  L 3.29811966571154 4.12844443659375  C 3.16975499076923 3.86296295  3.16975499076923 3.5974814631875  3.29811966571154 3.332  C 3.55484901538462 3.06651851340625  3.81157836526923 3.06651851340625  4.06830769230769 3.332  L 5.60868376813462 4.92488889659375  C 5.86541311780769 5.1903703831875  5.86541311780769 5.45585187  5.60868376813462 5.72133333340625  Z M 11.6418233518654 2.80103702659375  C 11.6418233518654 3.0665185131875  11.3850940021923 3.332  11.1283646749423 3.332  C 10.8716353252692 3.332  10.6149059753846 3.06651851340625  10.6149059753846 2.80103702659375  L 10.6149059753846 0.67718518  C 10.6149059753846 0.41170369340625  10.8716353250577 0.14622220659375  11.1283646749423 0.14622223  C 11.3850940248269 0.14622225340625  11.6418233745 0.41170371659375  11.6418233518654 0.67718518  L 11.6418233518654 2.80103702659375  Z " fill-rule="nonzero" fill="#1e90ff" stroke="none" transform="matrix(1 0 0 1 330 499 )" />
  </g>
</svg>