<?xml version="1.0" encoding="utf-8"?>
<svg version="1.1" xmlns:xlink="http://www.w3.org/1999/xlink" width="16px" height="16px" xmlns="http://www.w3.org/2000/svg">
  <g transform="matrix(1 0 0 1 -215 -376 )">
    <path d="M 2.71111627906977 6.681828125  L 2.71178294573643 6.6825  L 4.72015503875969 6.6825  C 4.98987596899225 6.6825  5.18291472868217 6.885703125  5.18291472868217 7.17084375  L 5.18291472868217 8.716546875  C 5.18291472868217 12.25634375  7.92376744186046 15.145859375  11.2827596899225 15.145859375  L 13.1734573643411 15.145859375  L 13.1734573643411 16  L 15.8766356589147 16  L 15.8766356589147 8.594625  L 13.1741085271318 8.594625  L 13.1741085271318 9.3275  L 11.1657364341085 9.3275  C 10.896015503876 9.3275  10.702976744186 9.123625  10.702976744186 8.83846875  L 10.702976744186 7.29278125  C 10.702976744186 3.752984375  7.96210852713178 0.864125  4.60313178294574 0.864125  L 2.71243410852713 0.864125  L 2.71243410852713 0.01  L 0.00925581395348837 0.01  L 0.00925581395348837 7.4146875  L 2.71111627906977 7.4146875  L 2.71111627906977 6.681828125  Z M 9.96914728682171 8.838453125  C 9.96914728682171 9.571328125  10.5099224806202 10.140984375  11.2047286821705 10.140984375  L 13.5978604651163 10.140984375  L 13.5978604651163 14.371671875  L 11.3204341085271 14.371671875  C 8.38652713178295 14.371671875  5.99339534883721 11.84990625  5.99339534883721 8.757171875  L 5.99339534883721 7.211484375  C 5.99339534883721 6.478609375  5.45262015503876 5.908953125  4.75782945736434 5.908953125  L 2.3646976744186 5.908953125  L 2.3646976744186 1.636984375  L 4.64213953488372 1.636984375  C 7.57604651162791 1.636984375  9.96916279069767 4.1600625  9.96916279069767 7.252140625  L 9.96916279069767 8.83846875  Z M 15.1421705426357 9.367484375  L 15.1421705426357 15.18584375  L 13.9839379844961 15.18584375  L 13.9839379844961 9.367484375  L 15.1421705426357 9.367484375  Z M 0.781395348837209 6.601203125  L 0.781395348837209 0.78284375  L 1.93962790697674 0.78284375  L 1.93962790697674 6.601203125  L 0.781395348837209 6.601203125  Z " fill-rule="nonzero" fill="#1e90ff" stroke="none" transform="matrix(1 0 0 1 215 376 )" />
  </g>
</svg>