<?xml version="1.0" encoding="utf-8"?>
<svg version="1.1" xmlns:xlink="http://www.w3.org/1999/xlink" width="17px" height="17px" xmlns="http://www.w3.org/2000/svg">
  <g transform="matrix(1 0 0 1 -313 -393 )">
    <path d="M 16.9488542570755 11.1360425330189  C 16.9488542570755 8.92485668278302  16.1594898691038 8.1041108360849  15.6887679882075 7.61166331603774  C 15.6429027700472 7.56579809787736  15.5632421533019 7.48613748113207  15.5318606945755 7.44027228301887  C 15.5004792358491 4.72939703301887  13.7334617275943 2.36130388915094  11.0081027382075 1.39813450825472  L 11.0008608584906 1.39813450825472  C 10.8222279457547 1.33537159080189  10.6242833537736 1.35709720990566  10.4528923207547 1.46089742570755  C 10.334608365566 1.53090222287736  10.2259802299528 1.63228847877358  10.1173520943396 1.83747493042453  L 10.1173520943396 1.38365074882076  C 10.1173520943396 0.632909699292453  9.56938355660377 0.0873551014150944  8.82105646698113 0.0873551214622641  L 7.96168728183962 0.0873551214622641  C 7.21094623231132 0.0873551214622641  6.66539163443396 0.635323659198113  6.66539165448113 1.38365074882076  L 6.66539165448113 1.65884201768868  C 6.57848915801887 1.53331618278302  6.50124248113208 1.48020910495283  6.40709810495283 1.43192992688679  C 6.25019081132075 1.35468325  6.07155789858491 1.34502743042453  5.91465060495283 1.40054846816038  C 3.07824954009434 2.34682014976415  1.24846909433962 4.73663891273585  1.24122721462264 7.49579332075472  C 1.21708763561321 7.52717477948113  1.13018513915094 7.61166331603774  1.09397576061321 7.65270061438679  C 0.700500556603773 8.04134791863208  0.0535597028301881 8.69553063207547  0.0535597028301881 10.7280835695755  C 0.0535597028301881 10.9308560813679  0.164601778301886 11.1191448337264  0.333578871462263 11.2277729492925  C 0.389099909198112 11.2591544080189  0.86706366981132 11.5488294162736  1.84230285023585 11.8626440035377  C 2.86582118867924 14.8873338207547  5.53324518042453 16.9102309386792  8.49275812028302 16.9102309186321  C 9.92182146226415 16.9102309186321  11.3050196061321 16.4419229976415  12.4951010778302 15.5680700731132  C 13.6296615117925 14.7231846474057  14.5131702759434 13.550000875  15.0369992346698 12.1837004504717  C 16.1763875884434 11.9254069009434  16.622969870283 11.6671133714623  16.6688350884434 11.6357319127358  C 16.8402261415094 11.5246898372642  16.9488542570755 11.3388150247642  16.9488542570755 11.1360425330189  Z M 13.5620706745283 12.4323381603774  C 12.5023429575472 14.4045421403302  10.5784181356132 15.6139352712264  8.48551624056604 15.6139352912736  C 6.34433516745283 15.6139352912736  4.33592182900943 14.3007419445755  3.30998953066038 12.2537052476415  C 4.81871350943396 12.5820035943396  6.52296810023585 12.7461527476415  8.38171604481132 12.7461527476415  C 10.3659898242925 12.7461527476415  12.1088677535377 12.6447664917453  13.5620706745283 12.4323381603774  Z M 15.768428625 10.7642929481132  C 15.0273434150943 11.0274144174528  12.9537531792453 11.5826248349057  8.38413000471698 11.5826248148585  C 4.25626121226415 11.5826248148585  1.94368910613208 10.6991160507075  1.231571375 10.3708177240566  C 1.28709241273585 9.11073145518868  1.65401409787736 8.74380979009434  1.92679138679245 8.48068834080189  C 2.12956389858491 8.27791582900943  2.40958306721698 7.98824084080189  2.40958306721698 7.51027708018868  C 2.40958306721698 5.40771934551887  3.70587871462264 3.57069704009434  5.81567830896226 2.68718827594339  C 6.04983227948113 3.49103640330189  6.41675394457547 5.23391435259434  6.66780561438679 6.61711247641509  C 6.72332665212264 6.9212712240566  6.99610396108491 7.12645769575472  7.30267664858491 7.0950762370283  C 7.60683539622641 7.06369477830189  7.83616144693396 6.81505706839623  7.83616144693396 6.50848436084905  L 7.83616144693396 1.37399492924528  C 7.83616144693396 1.27260867334906  7.8603010259434 1.24846909433962  7.96168728183962 1.24846909433962  L 8.82105646698113 1.24846909433962  C 8.92244272287736 1.24846909433962  8.94658230188679 1.27260867334906  8.94658230188679 1.37399492924528  L 8.94658230188679 6.50848436084906  C 8.94658230188679 6.81264310849057  9.17349439268868 7.06369477830189  9.48006710023585 7.0950762370283  C 9.78422584787736 7.12645769575472  10.0594170966981 6.91644332429245  10.114938134434 6.61711247641509  C 10.3635758443396 5.21943059316038  10.771534807783 3.41378972641509  11.0370702370283 2.66304869693396  C 13.0865208938679 3.55621328066038  14.3610909021226 5.40047748584906  14.3610909021226 7.51027708018868  C 14.3610909021226 7.9230639634434  14.6193844516509 8.19101333254717  14.8438825625 8.43240916273585  C 15.1818367287736 8.7848470884434  15.6960098679245 9.31591792688679  15.768428625 10.7642929481132  Z " fill-rule="nonzero" fill="#1e90ff" stroke="none" transform="matrix(1 0 0 1 313 393 )" />
  </g>
</svg>