<?xml version="1.0" encoding="utf-8"?>
<svg version="1.1" xmlns:xlink="http://www.w3.org/1999/xlink" width="16px" height="14px" xmlns="http://www.w3.org/2000/svg">
  <g transform="matrix(1 0 0 1 -120 -439 )">
    <path d="M 15.5373114754098 8.88246153846154  C 15.8646557377049 8.75323076923077  16.0325245901639 8.38276923076923  15.9150163934426 8.04676923076923  C 15.7975081967213 7.71076923076923  15.4281967213115 7.53846153846154  15.1092459016393 7.66769230769231  L 8.35252459016393 10.2436923076923  C 7.94124590163934 9.60615384615384  7.22780327868852 9.184  6.4304262295082 9.184  C 6.33809836065574 9.184  6.23737704918033 9.19261538461538  6.14504918032787 9.20123076923077  L 3.03108196721311 0.766769230769231  C 2.94714754098361 0.542769230769231  2.76249180327869 0.387692307692308  2.52747540983607 0.35323076923077  L 0.764852459016393 0.0947692307692309  C 0.42072131147541 0.0430769230769231  0.101770491803279 0.292923076923077  0.0514098360655736 0.646153846153846  C 0.00104918032786868 0.999384615384615  0.244459016393443 1.32676923076923  0.588590163934426 1.37846153846154  L 1.98190163934426 1.58523076923077  L 4.97836065573771 9.70092307692308  C 4.4495737704918 10.1316923076923  4.11383606557377 10.8036923076923  4.11383606557377 11.5446153846154  C 4.11383606557377 12.8541538461538  5.14622950819672 13.9138461538462  6.42203278688525 13.9138461538462  C 7.69783606557377 13.9138461538462  8.73022950819672 12.8541538461538  8.73022950819672 11.5446153846154  L 8.73022950819672 11.4756923076923  L 15.5373114754098 8.88246153846154  Z M 7.4712131147541 11.5446153846154  C 7.4712131147541 12.1390769230769  7.00118032786885 12.6215384615385  6.42203278688525 12.6215384615385  C 5.84288524590164 12.6215384615385  5.37285245901639 12.1390769230769  5.37285245901639 11.5446153846154  C 5.37285245901639 10.9501538461538  5.84288524590164 10.4676923076923  6.42203278688525 10.4676923076923  C 7.00118032786885 10.4676923076923  7.4712131147541 10.9501538461538  7.4712131147541 11.5446153846154  Z " fill-rule="nonzero" fill="#1e90ff" stroke="none" transform="matrix(1 0 0 1 120 439 )" />
  </g>
</svg>