<?xml version="1.0" encoding="utf-8"?>
<svg version="1.1" xmlns:xlink="http://www.w3.org/1999/xlink" width="10px" height="10px" xmlns="http://www.w3.org/2000/svg">
  <g transform="matrix(1 0 0 1 -125 -438 )">
    <path d="M 0.144864864864865 3.43351351351351  L 2.26378378378378 9.2627027027027  C 2.35027027027027 9.49621621621622  2.5145945945946 9.67783783783784  2.73945945945946 9.78162162162162  C 2.86054054054054 9.84216216216216  2.99891891891892 9.86810810810811  3.12864864864865 9.86810810810811  C 3.23243243243243 9.86810810810811  3.33621621621622 9.85081081081081  3.44 9.81621621621622  L 9.26918918918919 7.6972972972973  C 9.5027027027027 7.61081081081081  9.68432432432433 7.44648648648649  9.78810810810811 7.22162162162162  C 9.89189189189189 6.99675675675676  9.90054054054054 6.74594594594595  9.8227027027027 6.52108108108108  L 7.70378378378379 0.691891891891892  C 7.53081081081081 0.216216216216217  7.00324324324324 -0.0259459459459454  6.52756756756757 0.147027027027028  L 0.698378378378378 2.2572972972973  C 0.464864864864865 2.34378378378378  0.283243243243243 2.50810810810811  0.17945945945946 2.73297297297297  C 0.0756756756756769 2.95783783783784  0.0670270270270273 3.20864864864865  0.144864864864865 3.43351351351351  Z M 4.66810810810811 2.19675675675676  L 6.61405405405405 1.48756756756757  L 8.47351351351351 6.60756756756757  L 6.51891891891892 7.31675675675676  L 4.66810810810811 2.19675675675676  Z M 1.49405405405405 3.34702702702703  L 3.44864864864865 2.63783783783784  L 5.29945945945946 7.75783783783784  L 3.35351351351351 8.46702702702703  L 1.49405405405405 3.34702702702703  Z " fill-rule="nonzero" fill="#555555" stroke="none" transform="matrix(1 0 0 1 125 438 )" />
  </g>
</svg>