<?xml version="1.0" encoding="utf-8"?>
<svg version="1.1" xmlns:xlink="http://www.w3.org/1999/xlink" width="21px" height="21px" xmlns="http://www.w3.org/2000/svg">
  <g transform="matrix(1 0 0 1 -304 -442 )">
    <path d="M 2.58708396679687 20.8727859166667  C 1.55817256054687 20.8727859166667  0.77641060546875 20.4942692083333  0.38586540234375 19.8070338333333  C 0.0173762285156248 19.1586840833333  0.0962407646484373 18.3893923333333  0.6269919140625 17.4551137708333  C 0.635721987304687 17.4404890208333  0.696140033203125 17.349137625  0.707409383789062 17.333041875  L 7.41779874609375 7.8025435625  L 7.41779872558594 0.580453458333333  C 7.41779872558594 0.161302979166667  7.53832000195312 0.127214083333333  7.68391929785156 0.127214083333333  L 13.7841053642578 0.127214083333333  C 13.8728541943359 0.127214083333333  14.1085663769531 0.127214083333333  14.1085663769531 0.580453458333333  L 14.1085663769531 8.01204416666667  L 20.4614001621094 17.3234270416667  C 20.4635617060547 17.3265182708333  20.4657442089844 17.3295029166667  20.4679477324219 17.3323596458333  C 20.9566224082031 18.1942392916667  21.0064216523437 19.096411625  20.6032639804687 19.8057120416667  C 20.2180281679687 20.4838442708333  19.4065293720703 20.8727645833333  18.3768834580078 20.8727645833333  L 2.58708396679687 20.8727646041667  Z M 8.3611301484375 7.95365175  C 8.3611301484375 7.99176989583333  8.29086978808594 8.07849510416667  8.24889823242187 8.13029997916667  C 8.22260305371094 8.1627473125  8.19540551074219 8.19632454166667  8.17204834277344 8.230242875  L 1.38885936328125 17.8625815  L 1.38447333691406 17.8704694791667  C 1.06723142285156 18.440792125  1.00097935546875 18.9718027708333  1.20273654785156 19.3274443125  C 1.41454593164063 19.7005246875  1.91910684082031 19.9144383333333  2.58708396679687 20  L 18.3768834785156 20  C 19.0436224248047 19.9144383333333  19.5479314980469 19.700077  19.7605593486328 19.3263357291667  C 19.9626942949219 18.9709713333333  19.8965261660156 18.440792125  19.5790324160156 17.8717699166667  L 19.5759055283203 17.8661417291667  L 13.1948039179688 8.2295180625  C 13.1631363896484 8.18404489583333  13.1626537177734 8.11868120833333  13.1644584873047 8.015817625  C 13.1648362412109 7.99520227083333  13.1651719951172 7.974459  13.1651719951172 7.95367308333333  L 13.165172015625 1.08551902083333  L 8.36110916894531 1.08551902083333  L 8.36110916894531 7.95365175  Z " fill-rule="nonzero" fill="#555555" stroke="none" transform="matrix(1 0 0 1 304 442 )" />
  </g>
</svg>