<?xml version="1.0" encoding="utf-8"?>
<svg version="1.1" xmlns:xlink="http://www.w3.org/1999/xlink" width="13px" height="3px" xmlns="http://www.w3.org/2000/svg">
  <g transform="matrix(1 0 0 1 -308 -454 )">
    <path d="M 10.5796665609375 2.969814075  C 9.710275209375 2.969814075  8.5984370265625 2.61321745  7.06406293125 1.48461305  C 4.46262350625 -0.427716000000001  0.595426264062499 2.198445875  0.556473470312499 2.225103  C 0.403011110937499 2.33109195  0.211157192187499 2.263502575  0.125934981249999 2.076160775  C 0.0404009734374993 1.88828175  0.0947353265624995 1.651156125  0.247054457812499 1.546292825  C 0.418392690624999 1.42766605  4.47650848125 -1.325155525  7.3884270078125 0.816419675  C 10.1025676171875 2.812455175  11.2724816140625 2.192817675  12.305582778125 1.645834925  L 12.5337704578125 1.526082525  C 12.6946533796875 1.44434595  12.8803546828125 1.53741565  12.94734764375 1.736244025  C 13.014340625 1.934688675  12.9377861234375 2.1623999  12.7765498453125 2.2452621  L 12.555408571875 2.36081895  C 12.0127924921875 2.648137775  11.4055322265625 2.969814075  10.5796665609375 2.969814075  Z " fill-rule="nonzero" fill="#1e90ff" stroke="none" transform="matrix(1 0 0 1 308 454 )" />
  </g>
</svg>