<?xml version="1.0" encoding="utf-8"?>
<svg version="1.1" xmlns:xlink="http://www.w3.org/1999/xlink" width="13px" height="3px" xmlns="http://www.w3.org/2000/svg">
  <g transform="matrix(1 0 0 1 -308 -454 )">
    <path d="M 12.6444163958333 2.27714803846154  C 12.1054964791667 2.59813171153846  11.4960963125 2.96112005769231  10.6842947083333 2.96112005769231  C 9.68301091666667 2.96112005769231  8.532004625 2.41142751923077  7.16554975 1.28066431730769  C 6.4935786875 0.724950028846152  5.68668041666667 0.443196432692305  4.76721847916667 0.443196432692305  C 2.5392676875 0.443196432692305  0.343572374999998 2.11459000961538  0.321656562499999 2.13150406730769  C 0.297310395833332 2.150395875  0.271727749999999 2.15978273076923  0.245100458333332 2.15978273076923  C 0.189415541666666 2.15978273076923  0.137823854166665 2.11774846153846  0.110471729166666 2.0501216826923  C 0.0901548333333325 1.99991079807692  0.0851662291666659 1.94196608653846  0.0963586249999994 1.88688467307692  C 0.107529708333333 1.83192132692307  0.1335174375 1.78628578846154  0.169503708333333 1.758420375  C 0.261601270833333 1.68666103846153  2.44290633333333 0.00800593269230577  4.755045375 0.00800593269230577  C 5.73411489583333 0.00800593269230577  6.59851016666667 0.312459201923076  7.32422614583333 0.912864432692306  C 8.6369148125 1.99893669230769  9.73360058333333 2.526874125  10.677003625 2.526874125  C 11.4422234791667 2.526874125  12.0154241666667 2.18546376923077  12.5211293125 1.884228  L 12.7550400625 1.74614071153846  C 12.7722443958333 1.73631106730769  12.7922201875 1.73082063461538  12.8125583958333 1.73082063461538  C 12.8757475625 1.73082063461538  12.9320720416667 1.78256648076923  12.956013125 1.86265000961538  C 12.98878025 1.97180922115384  12.9511737291667 2.09764638461538  12.8721659791667 2.14331140384615  L 12.6444163958333 2.27714803846154  Z " fill-rule="nonzero" fill="#1e90ff" stroke="none" transform="matrix(1 0 0 1 308 454 )" />
  </g>
</svg>