<?xml version="1.0" encoding="utf-8"?>
<svg version="1.1" xmlns:xlink="http://www.w3.org/1999/xlink" width="4px" height="4px" xmlns="http://www.w3.org/2000/svg">
  <g transform="matrix(1 0 0 1 -308 -458 )">
    <path d="M 2.06389413636364 3.89577065909091  C 0.996446227272727 3.89577065909091  0.127938340909092 3.02744884090909  0.127938340909092 1.95986138636364  C 0.127938340909092 0.892529772727272  0.996422954545455 0.0240451363636344  2.06389413636364 0.0240451363636344  C 3.13145831818182 0.0240451363636344  3.99994295454546 0.892529749999999  3.99994295454546 1.95986138636364  C 3.99994295454546 3.02744884090909  3.13143506818182 3.89577065909091  2.06389413636364 3.89577065909091  Z M 2.06389413636364 0.731777681818182  C 1.38662822727273 0.731777681818182  0.835694136363637 1.2825955  0.835694136363637 1.95997768181818  C 0.835694136363637 2.63724359090909  1.38662825 3.18801488636364  2.06389413636364 3.18801488636364  C 2.74139261363636 3.18801488636364  3.29218718181818 2.63724359090909  3.29218718181818 1.95997768181818  C 3.29218715909091 1.2825955  2.74139261363636 0.731777681818182  2.06389413636364 0.731777681818182  Z " fill-rule="nonzero" fill="#1e90ff" stroke="none" transform="matrix(1 0 0 1 308 458 )" />
  </g>
</svg>