<?xml version="1.0" encoding="utf-8"?>
<svg version="1.1" xmlns:xlink="http://www.w3.org/1999/xlink" width="4px" height="4px" xmlns="http://www.w3.org/2000/svg">
  <g transform="matrix(1 0 0 1 -308 -458 )">
    <path d="M 3.996427225 1.955821975  C 3.996427225 3.017809125  3.132347475 3.881837725  2.07028355 3.881837725  C 1.0082708 3.881837725  0.144267800000001 3.017809125  0.144267800000001 1.955821975  C 0.144267800000001 0.893911550000001  1.0082708 0.0299341249999998  2.07028355 0.0299341249999998  C 3.13237305 0.0299341249999998  3.996427225 0.893885975000001  3.996427225 1.955821975  Z M 3.6249415 1.956001025  C 3.6249159 1.098803  2.92750715 0.401445425  2.07028355 0.401445425  C 1.213111125 0.401445425  0.515753525000001 1.098803025  0.515753525000001 1.956001025  C 0.515753525000001 2.813071125  1.213111125 3.5103264  2.07028355 3.5103264  C 2.92750715 3.5103264  3.6249415 2.81304555  3.6249415 1.956001025  Z " fill-rule="nonzero" fill="#555555" stroke="none" transform="matrix(1 0 0 1 308 458 )" />
  </g>
</svg>