<?xml version="1.0" encoding="utf-8"?>
<svg version="1.1" xmlns:xlink="http://www.w3.org/1999/xlink" width="3px" height="3px" xmlns="http://www.w3.org/2000/svg">
  <g transform="matrix(1 0 0 1 -317 -458 )">
    <path d="M 1.46935715131579 2.90948504605263  C 0.669683743421053 2.90948504605263  0.0187600263157897 2.25856132894737  0.0187600263157897 1.45886773026316  C 0.0187600263157897 0.659073157894738  0.669683743421053 0.00816961184210641  1.46935715131579 0.00816961184210641  C 2.26917193421053 0.00816961184210641  2.92009565131579 0.65909332894737  2.92009565131579 1.45886773026316  C 2.92009565131579 2.25856132894737  2.26917191447368 2.90948504605263  1.46935715131579 2.90948504605263  Z M 1.46935715131579 0.622779434210527  C 1.00842503289474 0.622779434210527  0.633349657894738 0.997935611842106  0.633349657894738 1.45886773026316  C 0.633349657894738 1.91984025  1.00842503289474 2.29487522368421  1.46935715131579 2.29487522368421  C 1.93032967105263 2.29487522368421  2.30548582894737 1.91984023026316  2.30548582894737 1.45886773026316  C 2.30546563815789 0.997935611842104  1.93030946052631 0.622779434210527  1.46935715131579 0.622779434210527  Z " fill-rule="nonzero" fill="#1e90ff" stroke="none" transform="matrix(1 0 0 1 317 458 )" />
  </g>
</svg>