<?xml version="1.0" encoding="utf-8"?>
<svg version="1.1" xmlns:xlink="http://www.w3.org/1999/xlink" width="3px" height="3px" xmlns="http://www.w3.org/2000/svg">
  <g transform="matrix(1 0 0 1 -318 -458 )">
    <path d="M 2.90759805882353 1.45402863970588  C 2.90759805882353 2.24897953676471  2.26077072794118 2.89573916911765  1.46572952205882 2.89573916911765  C 0.670778625 2.89573916911765  0.0240415808823525 2.24897955882353  0.0240415808823525 1.45402863970588  C 0.0240415808823525 0.659010022058824  0.670778625 0.0121826911764704  1.46572952205882 0.0121826911764704  C 2.26077072794118 0.0121826911764704  2.90759805882353 0.659010022058824  2.90759805882353 1.45402863970588  Z M 2.57979394852941 1.45402863970588  C 2.57979394852941 0.839774051470588  2.08005185294118 0.340031933823528  1.46572952205882 0.340031933823528  C 0.8514975 0.340031933823528  0.351823102941178 0.839774051470588  0.351823102941178 1.45402863970588  C 0.351823102941178 2.0682606617647  0.851520066176472 2.56793505882353  1.46572952205882 2.56793505882353  C 2.08005183088235 2.56793505882353  2.57979394852941 2.06823809558823  2.57979394852941 1.45402863970588  Z " fill-rule="nonzero" fill="#1e90ff" stroke="none" transform="matrix(1 0 0 1 318 458 )" />
  </g>
</svg>