<?xml version="1.0" encoding="utf-8"?>
<svg version="1.1" xmlns:xlink="http://www.w3.org/1999/xlink" width="3px" height="3px" xmlns="http://www.w3.org/2000/svg">
  <g transform="matrix(1 0 0 1 -313 -455 )">
    <path d="M 1.54450235294118 2.83763536764706  C 0.782733661764706 2.83763536764706  0.163264720588236 2.21814386029412  0.163264720588236 1.45675890441176  C 0.163264720588236 0.694854772058821  0.782733661764706 0.0754083970588226  1.54450235294118 0.0754083970588226  C 2.30588730882353 0.0754083970588226  2.92537881617647 0.694877338235293  2.92537881617647 1.45675890441176  C 2.92537883823529 2.21814386029412  2.30588730882353 2.83763536764706  1.54450235294118 2.83763536764706  Z M 1.54450235294118 0.762280125  C 1.16182345588235 0.762280125  0.850158992647059 1.07380914705882  0.850158992647059 1.45673633823529  C 0.850158992647059 1.83941523529412  1.16182345588235 2.15069594117647  1.54450235294118 2.15069594117647  C 1.92718125 2.15069594117647  2.23846195588235 1.83941523529412  2.23846195588235 1.45673633823529  C 2.23843938970588 1.0738317132353  1.92715868382353 0.762280125  1.54450235294118 0.762280125  Z " fill-rule="nonzero" fill="#555555" stroke="none" transform="matrix(1 0 0 1 313 455 )" />
  </g>
</svg>