<?xml version="1.0" encoding="utf-8"?>
<svg version="1.1" xmlns:xlink="http://www.w3.org/1999/xlink" width="3px" height="3px" xmlns="http://www.w3.org/2000/svg">
  <g transform="matrix(1 0 0 1 -313 -455 )">
    <path d="M 2.9119449 1.45096785  C 2.911919325 2.201716425  2.301159025 2.81247675  1.550436 2.81247675  C 0.79948275 2.81247675  0.188543375 2.20171645  0.188543375 1.45096785  C 0.188543375 0.699912274999997  0.79948275 0.0888961249999966  1.550436 0.0888961249999966  C 2.3011846 0.0888961249999966  2.9119449 0.699912249999997  2.9119449 1.45096785  Z M 2.540433575 1.45096785  C 2.540408 0.904803749999999  2.0963187 0.460433025  1.550436 0.460433025  C 1.004323075 0.460433025  0.560003525000001 0.904778150000001  0.560003525000001 1.45096785  C 0.560003525000001 1.99685055  1.004323075 2.440965425  1.550436 2.440965425  C 2.0963187 2.440965425  2.540433575 1.996850525  2.540433575 1.45096785  Z " fill-rule="nonzero" fill="#1e90ff" stroke="none" transform="matrix(1 0 0 1 313 455 )" />
  </g>
</svg>