<?xml version="1.0" encoding="utf-8"?>
<svg version="1.1" xmlns:xlink="http://www.w3.org/1999/xlink" width="22px" height="26px" xmlns="http://www.w3.org/2000/svg">
  <g transform="matrix(1 0 0 1 -70 -398 )">
    <path d="M 21.7335555446429 13.2486308185484  L 21.7335555446429 13.2516129032258  C 21.7195872879464 13.2367025060484  21.7084126875 13.2247741935484  21.6958412589286 13.2247741935484  C 21.6832698303571 13.209863796371  21.6832698303571 13.197935483871  21.6720952299107 13.1845161290323  L 9.91920634375 0.436129032258064  C 9.63050377190772 0.130026433067983  9.16448034416371 0.130026433067983  8.87577777232143 0.436129032258065  C 8.59357358470779 0.753223692528028  8.59357358470779 1.25073330545584  8.87577777232143 1.56782796572581  L 10.1776190558036 2.97984228225806  L 0.255968256696429 13.7436559052419  C 0.11199121668918 13.8926712997268  0.0355668356092756 14.1009699605863  0.0464444553571429 14.3147240201613  C 0.0357938490785111 14.5224923580266  0.106646287286598 14.7256165420087  0.242 14.8753548387097  L 10.2390793705357 25.7316129032258  C 10.3383463788469 25.8467222930446  10.4743831138103 25.9179986293179  10.6204126875 25.9314121834677  C 10.8646647959162 25.9882400782257  11.1191792285029 25.9078044775224  11.2950793705357 25.7181935483871  L 21.7447301696429 14.3818207943548  C 22.03055380699 14.0637994155053  22.0255873050259 13.5601592270806  21.7335555446429 13.2486308185484  Z M 20.1760952299107 13.8241720342742  L 20.1733015982143 13.8241720342742  L 19.3868888861607 14.6755555584677  C 19.3505714285714 14.6755555584677  19.3254285714286 14.6904659556452  19.2891111138393 14.6904659556452  L 15.8626984017857 13.0369032258065  C 15.5325272584402 12.8757846212563  15.1646014761614 12.8243541355614  14.8066984017857 12.8892903225806  L 8.421809515625 14.1149247399194  C 8.17596825669643 14.1686021592742  7.91895237276786 14.1417634495968  7.68428571428571 14.0746666754032  L 3.31222222767857 12.6894910423387  L 11.2224444553571 4.11154121572581  L 20.1760952299107 13.8241720342742  Z M 18.282 15.8758422822581  L 10.7545079419643 24.0288458810484  L 1.80225397098214 14.3162150625  L 1.98663491517857 14.1164157822581  L 7.15628571428571 15.741648733871  C 7.37838094419643 15.8087455080645  7.59907937053571 15.8221648629032  7.83234920089286 15.7819067983871  L 14.586 14.6487168487903  C 14.8792626741925 14.5991056377836  15.1795646145586 14.6314695562729  15.4576190558036 14.7426523326613  L 18.282 15.8758422822581  Z " fill-rule="nonzero" fill="#006ada" stroke="none" transform="matrix(1 0 0 1 70 398 )" />
  </g>
</svg>