<?xml version="1.0" encoding="utf-8"?>
<svg version="1.1" xmlns:xlink="http://www.w3.org/1999/xlink" width="32px" height="32px" xmlns="http://www.w3.org/2000/svg">
  <g transform="matrix(1 0 0 1 -135 -343 )">
    <path d="M 31.95837978125 25.9666267715757  L 31.28682053125 23.4722640142633  C 31.2570412815584 23.269173672322  31.1110721510766 23.102351805962  30.9137320625 23.045877185289  L 26.93767503125 21.9799101909782  C 26.7546219225204 21.9272649094753  26.5574775125446 21.9806581858285  26.42601084375 22.1184859049261  L 19.3693090625 15.0617843682134  L 28.2061758125 6.20359861267785  L 29.2081848125 5.93710684066264  C 29.3949397113347 5.89270824589848  29.5422923015997 5.74944878277211  29.5919329375 5.56401838484135  L 30.05029878125 3.85847119394401  C 30.0939395287435 3.67545122983212  30.0417602321806 3.4827892202401  29.9117230625 3.34680702417482  L 28.65388196875 2.15292400304668  C 28.5224152999554 2.0150962839491  28.3252708899796 1.96170300759589  28.14221778125 2.01434828909877  L 26.43667053125 2.46205442983432  C 26.2535932152291 2.51565351042265  26.1120038061078 2.66128832076486  26.0635820625 2.84580254153622  L 25.79709028125 3.8478115380634  L 16.90692521875 12.7273166366101  L 9.85022340625 5.627976413875  C 9.98805113012375 5.4965097496361  10.0414444083272 5.29936534649203  9.988799125 5.1163122441058  L 8.96547078125 1.08695700873585  C 8.9066648286876 0.907071460360593  8.76319303118338 0.767584990205842  8.58172265625 0.713868552914555  L 6.05538078125 0.0209900144250132  C 5.86904928084464 -0.0334708151355006  5.66788525405571 0.0198992176751492  5.53305690625 0.159565697122922  L 4.467089875 1.22553272268375  C 4.26945212177754 1.43499753899043  4.26945212177754 1.76224478676966  4.467089875 1.97170960307634  L 6.59902396875 4.103643622948  L 5.53305690625 5.16961061725884  L 3.40112284375 3.069655627529  C 3.1902599854903 2.86522096973574  2.85514910825971 2.86522096973574  2.64428625 3.069655627529  L 1.57831921875 4.13562262183983  C 1.44828204906945 4.27160481790511  1.39610275250648 4.46426682749713  1.4397435 4.64728679160903  L 2.1326220625 7.19494792207442  C 2.18238731678055 7.37646169317934  2.3241967496867 7.51827110929333  2.50571053125 7.56803634664571  L 6.48176759375 8.63400337220654  C 6.648960432142 8.69234304812684  6.83443273389005 8.6600869905996  6.97211240625 8.54872600016168  L 14.02881421875 15.6054275368744  L 11.395875625 18.1424290114592  L 8.81623540625 18.1424290114592  C 8.66894990280795 18.1422787569995  8.52742850551117 18.1996522844551  8.42182759375 18.3023240371683  L 1.06665503125 25.604198002885  C 0.386465114350287 26.2601927622224  0.00176374744301412 27.1642409459458  0.000688000000000022 28.109220447328  C 0.00374314008164547 29.0569081977664  0.387903579420858 29.9635268121994  1.06665503125 30.6249025789015  L 1.37578546875 30.9340330056892  C 2.03716125837094 31.6127844339974  2.94377990422115 31.9969448600242  3.8914676875 32  C 4.83644722162873 31.9989242525943  5.7404954366803 31.6142228990181  6.39649021875 30.9340330056892  L 13.75166278125 23.5788606980694  C 13.8563445598332 23.4745831608257  13.9140721981306 23.332188327635  13.91155784375 23.1844528992369  L 13.85825946875 20.6048127698797  L 16.53383675 17.929235612597  L 23.59053853125 24.9859371493097  C 23.4567924844015 25.1197994316158  23.4040502933676 25.3145398088075  23.4519628125 25.4976012878289  L 24.51792984375 29.4736582125458  C 24.567695088497 29.6551719956709  24.7095045230849 29.7969814253447  24.8910183125 29.8467466683671  L 27.428019875 30.5289655509761  L 27.5665955625 30.5289655509761  C 27.7069378824083 30.5258348065004  27.8406291355219 30.4685385555517  27.93968403125 30.3690704940169  L 29.0056510625 29.3031034997061  C 29.1051191274817 29.2040486074106  29.1624153804158 29.0703573589298  29.165546125 28.9300150438848  C 29.1629590635199 28.7864258368223  29.105786245537 28.6492110873573  29.0056510625 28.5462669321829  L 26.86305734375 26.5315892832479  L 27.929024375 25.4656222889371  L 30.00766009375 27.5442579356557  C 30.2149072801564 27.7474008005968  30.5465898448436 27.7474008005968  30.75383703125 27.5442579356557  L 31.8198040625 26.4782909413449  C 31.9576317863738 26.346824277106  32.0110250645772 26.1496798739619  31.95837978125 25.9666267715757  Z M 14.82828946875 14.7952926274482  L 7.3878395625 7.32286394889172  C 7.23541733733164 7.17455275790023  7.01050971054605 7.12873824156374  6.812217375 7.20560757795503  C 6.74907815333154 7.23465116402541  6.69138978641554 7.27431190962079  6.641662625 7.32286394889172  L 6.39649021875 7.48275900585084  L 3.06001340625 6.61932572327157  L 2.5376895625 4.67926579050085  L 3.01737471875 4.19958065087348  L 5.14930878125 6.33151463949515  C 5.36017163950971 6.5359492972884  5.6952825167403 6.5359492972884  5.906145375 6.33151463949515  L 7.71828934375 4.50871107766112  C 7.92272400862757 4.29784822670849  7.92272400862757 3.96273736109056  7.71828934375 3.75187451013793  L 5.58635528125 1.63060017739687  L 6.076700125 1.1509150065195  L 8.0061004375 1.6732388634193  L 8.9121724375 5.05235424632215  L 8.720298375 5.2442283021731  C 8.60433156571819 5.33876043419771  8.53446992339925 5.47848369123739  8.52842428125 5.627976413875  C 8.52670109405833 5.76932775641358  8.58477306456267 5.90482901244494  8.68831934375 6.00106486969629  L 16.150088625 13.4628338611221  L 14.82828946875 14.7952926274482  Z M 16.1074499375 16.7993105892525  L 12.89888915625 20.0078712593156  C 12.793543011137 20.1109836003965  12.7389530413833 20.2552570583111  12.74965375 20.4022790268981  L 12.7922924375 22.992578843386  L 5.61833428125 30.2091754370578  C 4.63392350699233 31.148582333659  3.08505383675767 31.148582333659  2.1006430625 30.2091754370578  L 1.791512625 29.8680660113783  C 0.823965360730447 28.8950965102854  0.823965360730447 27.3233444156205  1.791512625 26.3503749145276  L 9.018769125 19.20839600577  L 11.598409375 19.2936733465649  C 11.7460898819366 19.3091665872612  11.8923837773352 19.2538121428984  11.99281715625 19.1444379767364  L 26.6498639375 4.44475304862747  C 26.7143017551284 4.3747777096505  26.7617238201537 4.29087712363538  26.788439625 4.19958065087348  L 27.01229271875 3.36812636718603  L 28.07825975 3.069655627529  L 28.8883946875 3.87979053695523  L 28.60058359375 4.94575753126606  L 27.75846965625 5.16961061725884  C 27.6663581845754 5.19436626897637  27.5820135682946 5.24203930897206  27.51329721875 5.30818633120674  L 16.1074499375 16.7993105892525  Z M 30.90307240625 25.9772864587063  L 30.370088875 26.4036732564306  L 28.30211284375 24.271739236559  C 28.0912499854903 24.0673045787657  27.7561391082597 24.0673045787657  27.54527625 24.271739236559  L 25.72247259375 26.094542829643  C 25.5193297421901 26.301790005053  25.5193297421901 26.6334725346256  25.72247259375 26.8407197100356  L 27.8011083125 28.9726537299072  L 27.32142315625 29.4523388695346  L 25.38136315625 28.9300150438848  L 24.51792984375 25.604198002885  L 24.72046359375 25.4016642599034  C 24.9236064453099 25.1944170844935  24.9236064453099 24.8627345549209  24.72046359375 24.6554873795109  L 17.25869434375 17.193718356835  L 18.591153125 15.861259621759  L 26.052922375 23.3230286131848  C 26.2637852332597 23.5274632709781  26.5988961104903 23.5274632709781  26.80975896875 23.3230286131848  L 27.00163303125 23.1311545573339  L 30.39140821875 24.0372264946856  L 30.90307240625 25.9772864587063  Z " fill-rule="nonzero" fill="#1e90ff" stroke="none" transform="matrix(1 0 0 1 135 343 )" />
  </g>
</svg>