<?xml version="1.0" encoding="utf-8"?>
<svg version="1.1" xmlns:xlink="http://www.w3.org/1999/xlink" width="32px" height="32px" xmlns="http://www.w3.org/2000/svg">
  <g transform="matrix(1 0 0 1 -104 -515 )">
    <path d="M 4.01194053608247 9.54140193814433  C 4.0117295257732 9.54401822680413  4.01324865979381 9.54849121649485  4.01751068041237 9.55469435051547  C 4.01556956701031 9.55022136082474  4.01388164948454 9.54587492783505  4.01194053608247 9.54140193814433  Z M 28.410514185567 19.9020291958763  C 28.410514185567 19.902071257732  32.3369294845361 18.6704325773196  31.6606190515464 15.2488342268041  C 31.6606190515464 15.2488342268041  31.2148373195876 12.6597640412371  28.4473110103093 11.8919679175258  C 28.4473110103093 11.8919679175258  27.9427049896907 10.6242497731959  27.4769635463917 9.81438206185567  C 27.4769635463917 9.81438206185567  29.349466185567 6.60550482474227  26.5133677938144 4.34853443298969  C 26.5133677938144 4.34853443298969  24.6572380618557 2.64706107216495  21.8025302268041 4.18007925773196  C 21.8025302268041 4.18007925773196  20.4975932783505 3.48013781443299  19.7067569484536 3.28910659793814  C 19.7007648247423 3.27847265979381  19.0918448659794 -0.0271650721649492  15.5296421443299 0.0770644948453603  C 15.5296421443299 0.0770644948453603  12.6135359587629 0.141121360824742  11.7294837938144 3.2857307628866  C 11.7294837938144 3.2857307628866  10.7093424742268 3.54208478350515  9.7086544742268 4.10564164948453  C 9.7086544742268 4.10564164948453  6.77562680412371 2.70634952577319  4.73445797938144 4.5186353814433  C 4.73445797938144 4.5186353814433  2.51424222680412 6.06397542268041  4.01189830927835 9.54135979381443  C 4.01362845360824 9.51718024742268  4.16727204123711 9.65597010309278  3.83196519587629 10.1636565773196  C 3.83335773195876 10.1611247010309  3.48581340206185 10.9477834226804  3.14637113402062 11.9768707628866  C 3.15877740206185 11.9422260618557  0.494763216494843 12.597606185567  0.081474144329895 15.5037957938144  C 0.081474144329895 15.5037957938144  -0.510144536082476 18.3761002474227  3.16510713402062 19.8167887835052  C 3.16510713402062 19.8167887835052  3.60278680412371 21.3201838350515  4.02147727835051 21.9900801649484  C 4.02033793814433 21.9867465154639  2.26455546391752 25.349900371134  4.9785323298969 27.5004891134021  C 4.96013389690722 27.4877030515464  6.91382589690721 29.1014042061856  9.60396074226804 27.6151837938144  C 9.60396074226804 27.6368314639175  10.9618142268041 28.3354647835052  11.7912618969072 28.5281417319588  C 11.7912618969072 28.5281417319588  12.6633297731959 31.6774351340206  15.6600345154639 31.7152025154639  C 15.6315929484536 31.7152025154639  18.5651269690722 32.0421119175258  19.6512240824742 28.5280573195876  C 19.6512240824742 28.5280573195876  20.9848557938144 28.1615237938144  21.8676420206186 27.6636273402062  C 21.8572612783505 27.6652730721649  25.0122936082474 29.4306345154639  27.1994682061856 26.7856095257732  C 27.1994682061856 26.7856095257732  28.8179799175258 25.1127043298969  27.5577730721649 21.835888  L 28.410514185567 19.9020291958763  Z M 30.838598185567 15.7314549690722  C 31.0262957938144 17.939897443299  28.6386797938144 18.1838030103093  28.6386797938144 18.1838030103093  C 27.7766550927835 18.1258649072165  27.5384462680412 18.7571920824742  27.5384462680412 18.7571920824742  C 27.447382556701 19.4573444948454  26.3383718350515 21.6689940618557  26.3364307216495 21.6759989278351  C 25.818701072165 22.7035249484536  26.3721725773196 23.0795530309278  26.3652520824742 23.0707758350515  C 27.543805443299 24.6474691546392  26.711699257732 25.8198193814433  26.711699257732 25.8198193814433  C 25.7441368659794 27.9974571546392  23.5081811958763 26.720919628866  23.5288583092784 26.7327773195876  C 22.4141930309278 25.8503287010309  21.8796263092784 26.2931987216495  21.8796263092784 26.2931987216495  C 21.2034846597938 26.781938185567  19.3068868453608 27.4445764536083  19.3006837113402 27.4467285360825  C 17.923883257732 27.7610207010309  17.938905814433 28.6476469278351  17.9407625154639 28.637350556701  C 17.4160279587629 30.9056722474227  15.6402857731959 30.840307257732  15.6402857731959 30.840307257732  C 13.6461679175258 30.5154233814433  13.4049208659794 28.7979146804124  13.3993084948454 28.7782081237113  C 13.2435971546392 27.8214062680412  12.6763690309278 27.667467257732  12.6688999587629 27.6643446185567  C 11.5981207835052 27.5003624329897  9.74608424742268 26.482964  9.74608424742268 26.482964  C 8.91254334020619 25.9968830103093  8.52634544329897 26.3174204948454  8.52929934020619 26.3156481649485  C 6.7310655257732 27.5937892371134  5.75080148453609 26.9305602474227  5.7648956701031 26.936552371134  C 3.37166729896908 25.5761247835052  5.07229670103093 23.182643257732  5.07229670103093 23.182643257732  C 5.4519116701031 22.454597814433  5.15897179381444 21.9675884536083  5.15897179381444 21.9675884536083  C 4.50321187628866 20.8504334845361  3.87981793814433 18.8357651134021  3.87766585567011 18.8294353814433  C 3.77626358762887 18.2667646597938  3.07243991752578 18.1467108041237  3.03285802061856 18.1357814845361  C 0.804877773195881 17.6889870103093  0.825048536082478 16.0261671752577  0.825048536082478 16.0403879587629  C 0.919825690721654 13.8106353814433  2.87254709278351 13.5851282474227  2.85111043298969 13.5911204123711  C 3.55531389690722 13.4462118350515  3.78516746391753 13.0478608659794  3.78516746391753 13.0478608659794  C 4.15583641237114 11.5750595051546  4.9819926185567 9.97211892783505  4.98249901030928 9.97127496907217  C 5.54922074226805 9.06118651546392  5.18559892783506 8.53231657731959  5.18559892783506 8.53231657731959  C 3.86774931958763 6.81172742268041  4.72538544329897 5.66081389690722  4.7313353814433 5.64988457731959  C 6.10501319587629 3.56778350515464  8.32594630927835 5.11527567010309  8.32594630927835 5.11527567010309  C 8.90212045360825 5.58042635051546  9.48086865979382 5.32322837113402  9.47310420618557 5.32664643298969  C 10.2058336494845 4.74629468041237  12.5664006185567 4.06188218556701  12.5993151752577 4.01964177319588  C 13.2102184329897 3.81755463917526  13.279887628866 3.21331868041237  13.279887628866 3.21331868041237  C 13.7717919587629 0.356289979381444  16.2334235876289 0.897903793814433  16.2334235876289 0.897903793814433  C 17.8467449484536 1.2359535257732  17.9536329484536 2.86826404123711  17.9536329484536 2.86826404123711  C 18.1235228865979 3.99436503092784  18.6615498556701 4.01774284536083  18.6432358350515 4.01229925773196  C 19.8826811958763 4.36862082474227  21.5215324123711 5.16350816494845  21.5071428453608 5.15675645360825  C 22.3723745979381 5.76276470103093  22.9275762474227 5.23022350515464  22.9275762474227 5.23022350515464  C 24.4320684536082 4.06344346391753  25.5567347216495 4.79043393814433  25.5342852783505 4.7803907628866  C 27.9635508865979 5.98502259793814  26.5312597938144 8.2105975257732  26.5312597938144 8.2105975257732  C 25.6177110927835 9.14009715463918  26.344448371134 9.95422688659794  26.344448371134 9.95422688659794  C 26.6394981443299 10.230709443299  27.493209814433 12.6966875051546  27.494264742268 12.7001899381443  C 27.5650310927835 13.464441443299  28.3288184329897 13.4366750103093  28.3303375670103 13.4365905979381  C 30.7923068041237 13.7123557938144  30.838598185567 15.7314549690722  30.838598185567 15.7314549690722  Z M 20.2959280824742 15.866236  C 20.2959703092783 15.8445039587629  20.2959703092783 15.8245019793814  20.2959703092783 15.8027277113402  C 20.2464718350515 15.7596011546392  20.2896405773196 15.6267190515464  20.2773609072165 15.5479771958763  C 20.2278202474227 15.5386936082474  20.2648280412371 15.4428192989691  20.252590556701 15.399692742268  C 20.252590556701 15.3704071752577  20.252590556701 15.342472  20.252590556701 15.3147477938144  C 20.209464 15.2977841237113  20.2464296082474 15.1941875463918  20.2340233402062 15.1432965360825  C 20.2340233402062 15.1153613195876  20.2340233402062 15.0876371134021  20.2340233402062 15.0583937731959  C 20.1538467628866 14.5933274639175  19.9991903917526 14.2056526597938  19.8324231340206 13.8270504742268  C 19.8015340618557 13.8177668865979  19.7890433814433 13.7991574845361  19.7890433814433 13.7621496494845  C 19.7890433814433 13.698852371134  19.7334261443299 13.6910878762887  19.7211887010309 13.6354284536082  C 19.6964183505155 13.6263558350515  19.6780199587629 13.6077464329897  19.6841808659794 13.5723421443299  C 19.6841808659794 13.5505256907216  19.6655292783505 13.5459682886598  19.6594105154639 13.5288780206186  C 19.6346823917526 13.5211557525773  19.6162839587629 13.501238185567  19.6162839587629 13.465580742268  C 19.6038355051546 13.4208506391753  19.5729042061856 13.3961225154639  19.5542948041237 13.3590724948454  C 19.5233213195876 13.3404630927835  19.4863978969072 13.3281834226804  19.4925166597938 13.2741697319588  C 19.4925166597938 13.2523532783505  19.4741182268041 13.2494416082474  19.4677463092784 13.2323935257732  C 19.3751212783505 13.1397263092783  19.3010634639175 13.0330070515464  19.2145149690722 12.9342210721649  C 19.1651008659794 12.9002093195876  19.1218899381443 12.8586018969072  19.0846289484536 12.8075421030928  C 19.0167320412371 12.7194322886598  18.9427586391753 12.6422095670103  18.8498804123711 12.5727091546392  C 18.8005929072165 12.5401743505155  18.7572131958763 12.4970899793814  18.7263663092784 12.4459879587629  C 18.6275381443299 12.3594394639175  18.5223802474227 12.2822589690722  18.4297552164949 12.1911530721649  C 18.4050270927835 12.1911530721649  18.4050270927835 12.1725436701031  18.3866286597938 12.169589814433  C 18.3309692371134 12.1725436701031  18.318478556701 12.1370971958763  18.3000801649485 12.1062503092783  C 18.2567004123711 12.093759628866  18.2319722886598 12.0615202061856  18.1949222680412 12.0413072989691  C 18.1578722474227 12.0429108453608  18.139347257732 12.0258627628866  18.1331863092784 11.9995310927835  C 18.108458185567 11.9995310927835  18.1022550515464 11.9826940206185  18.089806556701 11.9779678350515  C 18.0218674639175 11.9795291546392  17.9787409072165 11.9595272164948  17.9600893195876 11.9146283298969  C 17.9540127835052 11.888507628866  17.9353611958763 11.8715017731959  17.8983111752577 11.8715017731959  C 17.8613033402062 11.8730630927835  17.8427361649485 11.8560150515464  17.8304986804124 11.8296833814433  C 17.7005704329897 11.7726736082474  17.5708953814433 11.7077305979381  17.4287296907217 11.6598356701031  C 17.3791890309278 11.6659966185567  17.3482999175258 11.6536747216495  17.3421390103093 11.6164559175258  C 17.0950685773196 11.5516816907216  16.8602778556701 11.4758515463917  16.600716742268 11.4265640412371  C 16.5698698556701 11.4265640412371  16.5450995051546 11.4265640412371  16.5142104329897 11.4265640412371  C 16.4711260618557 11.4127230515464  16.3781634639175 11.4513343917526  16.3659259793814 11.404958556701  C 16.3411978556701 11.404958556701  16.310308742268 11.404958556701  16.2794196701031 11.404958556701  C 16.2362509278351 11.3925101030928  16.1434148865979 11.431121443299  16.1311352164949 11.3831421030928  C 16.0754757938144 11.3831421030928  16.0198585979382 11.3831421030928  15.9642413608247 11.3831421030928  C 15.8715741443299 11.3831421030928  15.7788647010309 11.3831421030928  15.6862396701031 11.3831421030928  C 15.6305802474227 11.3831421030928  15.5749630515464 11.3831421030928  15.519303628866 11.3831421030928  C 15.5070661443299 11.431079257732  15.4141457319588 11.3924679175258  15.3710613608247 11.404958556701  C 15.3401722886598 11.404958556701  15.3092832164948 11.404958556701  15.2845550515464 11.404958556701  C 15.1918878350515 11.4404050309278  15.0744502268041 11.4497730309278  14.9445220206186 11.4465659793814  C 14.5182780618557 11.5439594226804  14.1104325360825 11.6643086597938  13.7768557938144 11.8512466391753  C 13.7643651134021 11.8775783092783  13.7459245360825 11.8946263917526  13.7087056907217 11.8930228453608  C 13.6347322474227 11.8821357113402  13.6594604123711 11.9686420206186  13.5852337731959 11.9563623505155  C 13.5729541030928 11.984086556701  13.5543025154639 11.9995310927835  13.5173368659794 11.9995310927835  C 13.4121367835052 12.0537979793814  13.3320445773196 12.1403464742268  13.2207679587629 12.1911952989691  C 13.1960398350515 12.2391324536082  13.1342616494845 12.2590922061856  13.097211628866 12.2963531958763  C 13.0908397113402 12.3411676701031  13.0352647010309 12.3395641649484  13.0107053195876 12.3611274226804  C 13.0043755876289 12.3611274226804  12.9982146391753 12.3611274226804  12.9859349690722 12.3611274226804  C 12.9798162474227 12.3890626391753  12.9489271340206 12.3936200412371  12.9489271340206 12.424466927835  C 12.9117083298969 12.4755267628866  12.8685395876289 12.5186955051546  12.8190411134021 12.5511881237113  C 12.7202973195876 12.6345295670103  12.6275456907217 12.7274499793814  12.5410816082474 12.8277550927835  C 12.5163534845361 12.8725273814433  12.4793034639175 12.9079738556701  12.4358815257732 12.9342633402062  C 12.3866362474227 12.9914840824742  12.3432143092783 13.0533044536082  12.287639257732 13.1041532783505  C 12.2505892371134 13.1442837525773  12.2319798350515 13.2031502268041  12.1826923298969 13.2324357938144  C 12.1331938556701 13.3437124123711  12.0466453608247 13.4209773195876  11.9910281237113 13.5290047010309  C 11.9910281237113 13.5660547216495  11.9723343092783 13.5831028041237  11.9478593814433 13.5923863917526  C 11.9601390515464 13.6680055670103  11.873590556701 13.6447965360825  11.8858702268041 13.7206689072165  C 11.8858702268041 13.757676742268  11.8675140206186 13.7748091958763  11.8427436701031 13.7838395876289  C 11.6574091958763 14.1269952989691  11.5275653608247 14.5207466391753  11.4349403298969 14.9533625154639  C 11.4410168659794 15.0830375670103  11.4287371958763 15.2020786804124  11.3979324948454 15.2933111752577  C 11.3979324948454 15.3210353814433  11.3979324948454 15.3487174020619  11.3979324948454 15.3782561237113  C 11.385441814433 15.4213826804124  11.4226606185567 15.5172147628866  11.3731621443299 15.5265405773196  C 11.3731621443299 15.5835503505155  11.3731621443299 15.6391675463917  11.3731621443299 15.6963882886598  C 11.3731621443299 15.7890555051546  11.3731621443299 15.880288  11.3731621443299 15.972955257732  C 11.3731621443299 16.0299650309278  11.3731621443299 16.0856666391753  11.3731621443299 16.1428451958763  C 11.4226606185567 16.1521287835051  11.385441814433 16.2479186804124  11.3979324948454 16.2910874639175  C 11.3979324948454 16.3204152164948  11.3979324948454 16.3483504329897  11.3979324948454 16.3760324123711  C 11.4287371958763 16.4673493195876  11.4410168659794 16.5861372371134  11.4349403298969 16.716023257732  C 11.5275231752577 17.1531965360825  11.675849814433 17.5254689896907  11.8427436701031 17.8853352164948  C 11.8675562061856 17.8930996701031  11.8858702268041 17.9132704329897  11.8858702268041 17.9487169072165  C 11.873590556701 18.0245892783505  11.9601390515464 18.0011270515464  11.9478593814433 18.0769994226804  C 11.9724187216495 18.0848061030928  11.9910281237113 18.1031201237113  11.9910281237113 18.1403811134021  C 11.9971468453608 18.2082357938144  12.0713734845361 18.214396742268  12.0774922061856 18.2885811546392  C 12.1207031752577 18.2947842886598  12.1145422268041 18.3457175257732  12.1392703505155 18.3735683298969  C 12.1702016082474 18.3797714639175  12.1640407010309 18.4199019381443  12.1826501030928 18.4369500206186  C 12.2257766597938 18.4431109690722  12.2257766597938 18.4940019793814  12.2444282474227 18.5218949690722  C 12.2566657319588 18.5234985154639  12.2689032164948 18.5263679587629  12.2689032164948 18.5435004536083  C 12.3370955051546 18.5959528247423  12.3801798350515 18.6733864742268  12.435839257732 18.7351224329897  C 12.4792190103093 18.7612009072165  12.5162690309278 18.7969005773196  12.5410393402062 18.8415884948454  C 12.633664371134 18.9497002474227  12.7324925360825 19.0486972371134  12.8375660618557 19.1381995876289  C 12.8871067216495 19.164531257732  12.9179536082474 19.1999777319588  12.9488426804124 19.2449188041237  C 12.955003628866 19.2726008247423  12.9858505154639 19.2788039587629  12.9858505154639 19.3080894845361  C 12.998130185567 19.3080894845361  13.0042911340206 19.3080894845361  13.0106208659794 19.3080894845361  C 13.0351802061856 19.3298637525773  13.0907130309278 19.3282602061856  13.0971271752577 19.3729481237113  C 13.1342193814433 19.4099559587629  13.1959975257732 19.4301688659794  13.2206835051546 19.4781060206186  C 13.3320023505155 19.5289548453608  13.4121367010309 19.6155033402062  13.5172945979381 19.6695170309278  C 13.5542180206186 19.6679978969072  13.5728696082474 19.6865651134021  13.5851492783505 19.7129389690722  C 13.6594181030928 19.7004482886598  13.6346899381443 19.7869545979381  13.7086211958763 19.7763206597938  C 13.74584 19.7746749278351  13.7642806185567 19.7916807835052  13.7767712989691 19.8178436701031  C 14.1103902268041 20.0046972783505  14.5181935670103 20.1253418969072  14.9444375257732 20.2227353402062  C 15.0743657731959 20.2195282886598  15.1918033402062 20.2288962886598  15.284470556701 20.2643005773196  C 15.3091564948454 20.2643005773196  15.3400455670103 20.2643005773196  15.3709768659794 20.2643005773196  C 15.4140612371134 20.2767490309278  15.5069816494845 20.2382221030928  15.5192191340206 20.2859060618557  C 15.574878556701 20.2859060618557  15.6304957525773 20.2859060618557  15.6861551752577 20.2859060618557  C 15.7787802061856 20.2859060618557  15.8714896494845 20.2859060618557  15.9641568659794 20.2859060618557  C 16.0197741030928 20.2859060618557  16.0753912989691 20.2859060618557  16.1310085360825 20.2859060618557  C 16.1433303917526 20.2382221030928  16.2361664329897 20.276749072165  16.2793351752577 20.2643005773196  C 16.3102242474227 20.2643005773196  16.3411133195876 20.2643005773196  16.3658414845361 20.2643005773196  C 16.3780789690722 20.2179669690722  16.4710415670103 20.2565783092784  16.5141259381443 20.2426950927835  C 16.5450150103093 20.2426950927835  16.5697853608247 20.2426950927835  16.6006322474227 20.2426950927835  C 16.8724308041237 20.205687257732  17.0950262680412 20.117535257732  17.3420545154639 20.0525922474227  C 17.3482154639175 20.0140230927835  17.3791045360825 20.0033469690722  17.4286451958763 20.0095078762887  C 17.5707687010309 19.9600515876289  17.7128922474227 19.9104687010309  17.830414185567 19.8396601649485  C 17.8426516701031 19.8132863092784  17.8612188865979 19.7962804123711  17.8982266804124 19.7979261443299  C 17.9352767010309 19.7979261443299  17.9539704742268 19.7809202886598  17.9600048247423 19.7545463917526  C 17.9786986391752 19.7097319175258  18.0217829690722 19.6898565773196  18.0897220618557 19.6912068865979  C 18.1083736494845 19.6912068865979  18.114450185567 19.674369814433  18.133144 19.6695592164948  C 18.1393049484536 19.6435229278351  18.1577877525773 19.6264326597938  18.1948377731959 19.6280362061856  C 18.2318877938144 19.607823257732  18.2566159175258 19.5753306804124  18.2999534845361 19.5630931958763  C 18.3184362886598 19.5322041237113  18.330884742268 19.4965466391753  18.3865441649484 19.4997115051546  C 18.4049847835051 19.4997115051546  18.4112301030928 19.4827056494845  18.4296707216495 19.4781482474227  C 18.5222957525773 19.3868313402062  18.6274958350515 19.3096930721649  18.726281814433 19.2231445773196  C 18.7571287010309 19.1722535670103  18.8005084536082 19.128916  18.8497537319588 19.0964233814433  C 18.9426319587629 19.026880742268  19.0166475876289 18.9496580618557  19.0845444948454 18.8615904329897  C 19.1218054845361 18.8107416082474  19.1650164536082 18.7689232164948  19.2144305154639 18.7350802474227  C 19.3009790103093 18.6360832989691  19.3750790515464 18.5295750515464  19.4676618556701 18.4369500206186  C 19.4676618556701 18.4167370721649  19.486313443299 18.4121796701031  19.4924322061856 18.395173814433  C 19.4740337731959 18.3365605360825  19.5294400412371 18.352047257732  19.5358119587629 18.3102710515464  C 19.5419729072165 18.3102710515464  19.5480072164948 18.3102710515464  19.5542525773196 18.3102710515464  C 19.5728619793814 18.2732632164948  19.6037932371134 18.2484929072165  19.6162417319588 18.2038049896907  C 19.6162417319588 18.1665017731959  19.6346823505155 18.1496647010309  19.6593682886598 18.1404232989691  C 19.6593682886598 18.1186068453608  19.6779776907216 18.114091628866  19.6841386391752 18.0970435463917  C 19.6779776907216 18.061639257732  19.6963761237113 18.042945443299  19.7211464742268 18.0337040412371  C 19.7333839587629 17.9780446185567  19.7890011546392 17.9702801649484  19.7890011546392 17.9069406597938  C 19.7890011546392 17.8699328247423  19.8014918350515 17.8515344329897  19.8323809072165 17.8421664329897  C 19.9991059793814 17.4667712989691  20.1476014020618 17.0682515463917  20.2339811134021 16.609261814433  C 20.2339811134021 16.5816219793814  20.2339811134021 16.5536445773196  20.2339811134021 16.5243590515464  C 20.2464295670103 16.4750715463917  20.2094217731959 16.3715171958763  20.2525483298969 16.3545113402062  C 20.2525483298969 16.3265761237113  20.2525483298969 16.2988519175258  20.2525483298969 16.2695241649485  C 20.264785814433 16.2261866391753  20.2277779793814 16.1305655257732  20.2773186804124 16.1212818969072  C 20.2895561649484 16.0424134845361  20.2464296082474 15.9095313402062  20.2959280824742 15.866236  Z M 19.2815678762887 15.3796485773196  C 19.2815679175258 15.3902825979381  19.2815679175258 15.3987644123711  19.2815679175258 15.4093561649485  C 19.2815679175258 15.5181009072165  19.2815679175258 15.624524742268  19.2815679175258 15.7310751752577  C 19.2815679175258 15.8011663917526  19.2815679175258 15.8694430515464  19.2815679175258 15.9377197113402  C 19.2815679175258 16.0442279587629  19.2815679175258 16.1507362061856  19.2815679175258 16.2594809484536  C 19.2815679175258 16.2700727010309  19.2815679175258 16.2784701443299  19.2815679175258 16.2891462680412  C 19.2137132371134 16.2914249896907  19.2647730309278 16.4128713814433  19.2478093608247 16.4639734020619  C 19.2136710103093 16.8388621443299  19.0602383917526 17.0925576907217  18.9578233814433 17.4013640824742  C 18.9152454020619 17.4142345154639  18.8983661443299 17.4398066391753  18.8983661443299 17.4909086597938  C 18.8388666804124 17.6378427628866  18.7448069278351 17.7465453195876  18.659566556701 17.8701860206186  C 18.5829768247423 17.874279257732  18.6170307628866 17.9851760824742  18.5487962886598 17.9873282061856  C 18.4892968247423 18.014841443299  18.4551162886598 18.053368371134  18.4297974020619 18.1043859793815  C 18.3358220206186 18.2259589690722  18.2249673814433 18.3324672164949  18.1058418556701 18.4282571134021  C 18.0544444536083 18.4539136082474  18.0118664742268 18.4921873814433  17.9865897731959 18.5453992989691  C 17.9865897731959 18.6199213195876  17.8756507216495 18.5857829690722  17.8673376907217 18.662457072165  C 17.7648382680413 18.7264295257732  17.6712426804124 18.8160585154639  17.551821814433 18.8670761237113  C 17.5008042061856 18.8670761237113  17.4751477113402 18.888344  17.4581840412371 18.9268709690722  C 17.1596740206186 19.0418188453608  16.8869470927835 19.1890061443299  16.5205401649485 19.2485477938144  C 16.4866128247423 19.2485477938144  16.4440770309279 19.2485477938144  16.4099386804124 19.2485477938144  C 16.3416197938144 19.2654270515464  16.2138858556701 19.2121729484536  16.1967112164949 19.2782975257732  C 16.1286455257732 19.2782975257732  16.0604110515464 19.2782975257732  15.9920077938144 19.2782975257732  C 15.8899303505155 19.2782975257732  15.7789491134021 19.2782975257732  15.6769138969072 19.2782975257732  C 15.6087216082474 19.2782975257732  15.5404449484536 19.2782975257732  15.4725480412371 19.2782975257732  C 15.4552889896907 19.2121729484536  15.3274284536083 19.2654270927835  15.2593205773196 19.2485477938144  C 15.225013443299 19.2485477938144  15.1824354639175 19.2485477938144  15.1486347216495 19.2485477938144  C 14.7307460206186 19.2104006185567  14.4667962886598 19.0311426804124  14.1514491958763 18.8971212371134  C 14.1345277113402 18.8608308041237  14.1087868041237 18.8372842061856  14.0578536082474 18.8372842061856  C 13.9810529072165 18.7903176082474  13.9212580618557 18.7286238762887  13.8275780618557 18.6922912164948  C 13.8107409896907 18.607135257732  13.6996753402062 18.622157814433  13.6826694845361 18.5454414845361  C 13.6572239587629 18.4921873814433  13.6146459793815 18.4539557938144  13.5632485773196 18.4282992989691  C 13.5037913402062 18.4199018556701  13.5037913402062 18.3471943505155  13.4442074639175 18.3387125360825  C 13.4186353402062 18.2876527010309  13.3844126185567 18.2493789690722  13.32466 18.2216125360825  C 13.3161359587629 18.162113072165  13.2481968659794 18.1661641237113  13.2394618556701 18.1045125360825  C 13.214058556701 18.0534527010309  13.1799202061856 18.0149257731959  13.1204207422681 17.9874125360825  C 13.0520596701031 17.9851760412371  13.0861980206186 17.8743213608247  13.0096082886598 17.8702703505155  C 12.9669881237114 17.8573576907216  12.9496024742268 17.8339799175258  12.9496024742268 17.7829200824742  C 12.9496024742268 17.7745226391753  12.9496024742268 17.7638042886598  12.9496024742268 17.7531703505155  C 12.8901874226804 17.7509338556701  12.9242835463918 17.6569584742268  12.856091257732 17.6656512989691  C 12.856091257732 17.6422734845361  12.8304347628866 17.6357327835052  12.8304347628866 17.6081351752577  C 12.8304347628866 17.5570753402062  12.8050314639175 17.5314610721649  12.7709352989691 17.5185905979381  C 12.6175026804124 17.2225702680412  12.4811602886598 16.9134684948454  12.4214498556701 16.5238103917526  C 12.4214498556701 16.4768860206186  12.4385401237114 16.410761443299  12.3872693195876 16.4064150103093  C 12.3872693195876 16.3660313402062  12.3872693195876 16.3277997938144  12.3872693195876 16.2892728247423  C 12.3872693195876 16.199981443299  12.3872693195876 16.1126311752577  12.3872693195876 16.0251965360825  C 12.3872693195876 15.8975470103093  12.3872693195876 15.7715854020618  12.3872693195876 15.6438092783505  C 12.3872693195876 15.5861243298969  12.3872693195876 15.5266670927835  12.3872693195876 15.469024371134  C 12.4554616082474 15.4561539381443  12.404486185567 15.3243267628866  12.4214498556701 15.2623376082474  C 12.4214498556701 15.2240638350515  12.4214498556701 15.1855369072165  12.4214498556701 15.1451954226804  C 12.4639434226804 14.7383626391753  12.6343819381443 14.4592215670103  12.7709352989691 14.1501198350515  C 12.8050736494845 14.137502556701  12.8304347628866 14.1119304742268  12.8304347628866 14.0608284536082  C 12.8390431752577 14.0373662680412  12.856091257732 14.0329776494845  12.856091257732 14.0031435051546  C 12.8730549278351 14.0031435051546  12.8816633814433 14.0031435051546  12.8901873814433 14.0031435051546  C 12.9070244536083 13.9605233402062  12.9327653608248 13.9285792989691  12.9496024329897 13.8861279175258  C 12.9753855257732 13.864817814433  12.9922225979382 13.8328315876289  13.0096082474227 13.7986510515464  C 13.0862401649485 13.7943046185567  13.052059628866 13.6837031752577  13.1204207010309 13.6814666804124  C 13.1799201649485 13.6536580618557  13.2141007010309 13.6154687010309  13.239461814433 13.5643666804124  C 13.2481546391753 13.5023775257732  13.3161359175258 13.5067661443299  13.3246599587629 13.4472244948454  C 13.3844126185567 13.4194158762887  13.4186353402062 13.3811843298969  13.4442074226804 13.3298291134021  C 13.503749072165 13.3191951752577  13.503749072165 13.2490195876289  13.5632485360825 13.2405377319588  C 13.6146459381443 13.2147968247423  13.6572661030928 13.1766496494845  13.682669443299 13.1234377319588  C 13.6996752989691 13.0467214020618  13.8107409484536 13.0614063917526  13.8275780206186 12.9762082474227  C 13.9212580206186 12.9402131958763  13.9810528659794 12.8781818556701  14.0578535670103 12.8315528247423  C 14.1087868041237 12.8315528247423  14.1344854845361 12.8080062268041  14.1514491546392 12.7717579793814  C 14.4667962474227 12.6439396701031  14.756571257732 12.4757376494845  15.1486346804124 12.4202892371134  C 15.1823932371134 12.4202892371134  15.2249712164949 12.4202892371134  15.2593205360825 12.4202892371134  C 15.3274284123711 12.403114556701  15.4552889484536 12.4563264742268  15.472548 12.3905816907216  C 15.5404026804124 12.3905816907216  15.6087637525773 12.3905816907216  15.6769138556701 12.3905816907216  C 15.778906886598 12.3905816907216  15.8899303505155 12.3905816907216  15.9920077525773 12.3905816907216  C 16.0603688247423 12.3905816907216  16.1286032989691 12.3905816907216  16.1967111752577 12.3905816907216  C 16.213843628866 12.4563264742268  16.3415775670103 12.403114556701  16.4099386391753 12.4202892371134  C 16.4441191752577 12.4202892371134  16.4866127422681 12.4202892371134  16.5205401237114 12.4202892371134  C 16.8869470515464 12.4797887010309  17.1596739793815 12.627018185567  17.458184 12.7419660618557  C 17.4751054845361 12.7783409072165  17.5008041649485 12.8036598350515  17.5518217731959 12.8014655257732  C 17.6712426804124 12.8527785154639  17.7648382680413 12.9421121237113  17.8673376494845 13.0060001649484  C 17.8756506804124 13.0826742680412  17.9865897319588 13.0489157113402  17.9865897319588 13.1234377319588  C 18.0119086597938 13.1766918350515  18.0544444123711 13.2148390103093  18.105841814433 13.2405377319588  C 18.2249251134021 13.3364120412371  18.3357797525773 13.4428780618557  18.4297973608247 13.5643666804124  C 18.4551584742268 13.6154687010309  18.4892545979382 13.6537002474227  18.5487962474227 13.6814666804124  C 18.6170307216495 13.6837031752577  18.5829767835052 13.7943046597938  18.6595665154639 13.7986510515464  C 18.7363672164949 13.9308579793814  18.8557459381443 14.0181660618557  18.8983661030928 14.1778862268041  C 18.8983661030928 14.2289882474227  18.9152453608247 14.254644742268  18.9578233402062 14.2675151752577  C 19.085937072165 14.5487661443299  19.2221528247423 14.8190455670103  19.2478093195876 15.2049058556701  C 19.2647308041237 15.2559656907216  19.2136709690722 15.3774542680412  19.2815678762887 15.3796485773196  Z " fill-rule="nonzero" fill="#1e90ff" stroke="none" transform="matrix(1 0 0 1 104 515 )" />
  </g>
</svg>